<svg xmlns="http://www.w3.org/2000/svg" width="75.716" height="78.963" viewBox="0 0 75.716 78.963">
  <g id="Group_2416" data-name="Group 2416" transform="translate(-131.506 -1092.956)">
    <path id="Path_8416" data-name="Path 8416" d="M194.379,1110.381a20.448,20.448,0,0,1,7.863-3.789c4.908-1.283,14.991-4.861,7.2-11.248-10.039-8.231-25.4,6.516-25.4,18.313,0-11.8-15.365-26.544-25.4-18.313-7.79,6.387,2.292,9.965,7.2,11.248a20.451,20.451,0,0,1,7.863,3.789,19.515,19.515,0,0,1,5.367,7.093h9.947A19.51,19.51,0,0,1,194.379,1110.381Z" transform="translate(-14.674)" fill="#81c341"/>
    <path id="Path_8417" data-name="Path 8417" d="M143.506,1166.965v5.866h66.226v-5.866Z" transform="translate(-7.255 -44.746)" fill="#fff"/>
    <path id="Path_8418" data-name="Path 8418" d="M202.576,1154.965H136.152a4.651,4.651,0,0,0-4.646,4.646v6.064a4.651,4.651,0,0,0,4.646,4.646h3.041v33.405a5.69,5.69,0,0,0,5.684,5.684h48.975a5.69,5.69,0,0,0,5.684-5.684v-33.405h3.041a4.651,4.651,0,0,0,4.646-4.646v-6.064A4.651,4.651,0,0,0,202.576,1154.965Zm-.1,10.611H136.251v-5.866h66.226ZM152.4,1198.52a3.518,3.518,0,1,1-3.519-3.518A3.518,3.518,0,0,1,152.4,1198.52Zm4.828-14.23a3.9,3.9,0,1,1-3.9,3.9A3.9,3.9,0,0,1,157.225,1184.29Zm5.678,14.23a2.274,2.274,0,1,1-2.274,2.274A2.274,2.274,0,0,1,162.9,1198.52Zm23.662,1.276a4.751,4.751,0,1,1-4.751-4.751A4.751,4.751,0,0,1,186.565,1199.8Zm4.7-10.835a2.824,2.824,0,1,1-2.824,2.824A2.824,2.824,0,0,1,191.261,1188.96Zm-10.186-.772a2.734,2.734,0,1,1-2.734-2.734A2.734,2.734,0,0,1,181.075,1188.188Zm13.716-7.041a104.941,104.941,0,0,1-22.611,2.344v11.34a2.57,2.57,0,0,1-2.57,2.57h-.49a2.57,2.57,0,0,1-2.57-2.57v-11.816a30.409,30.409,0,0,1-3.716-.783c-8.822-2.486-15.208-1.509-18.9-.34v-11.572H194.79Z" transform="translate(0 -37.491)" fill="#404040"/>
    <path id="Path_8419" data-name="Path 8419" d="M162.946,1205.374c3.687-1.17,10.074-2.146,18.9.34a30.43,30.43,0,0,0,3.715.783v-12.468h5.63v12.944a104.949,104.949,0,0,0,22.611-2.344V1193.8H162.946Z" transform="translate(-19.009 -60.972)" fill="#fff"/>
    <path id="Path_8420" data-name="Path 8420" d="M220.133,1194.375v24.283a2.57,2.57,0,0,0,2.57,2.57h.49a2.57,2.57,0,0,0,2.57-2.57v-24.283Z" transform="translate(-53.584 -61.319)" fill="#81c341"/>
    <circle id="Ellipse_137" data-name="Ellipse 137" cx="3.898" cy="3.898" r="3.898" transform="translate(151.729 1151.119) rotate(-49.392)" fill="#fff"/>
    <path id="Path_8421" data-name="Path 8421" d="M207.436,1269.668a2.274,2.274,0,1,0-2.274-2.274A2.274,2.274,0,0,0,207.436,1269.668Z" transform="translate(-44.533 -104.092)" fill="#fff"/>
    <circle id="Ellipse_138" data-name="Ellipse 138" cx="2.734" cy="2.734" r="2.734" transform="translate(175.607 1147.963)" fill="#fff"/>
    <circle id="Ellipse_139" data-name="Ellipse 139" cx="4.751" cy="4.751" r="4.751" transform="translate(175.096 1162.304) rotate(-45)" fill="#fff"/>
    <path id="Path_8422" data-name="Path 8422" d="M278.315,1246.59a2.824,2.824,0,1,0-2.824-2.824A2.824,2.824,0,0,0,278.315,1246.59Z" transform="translate(-87.054 -89.474)" fill="#fff"/>
    <path id="Path_8423" data-name="Path 8423" d="M166.546,1259.74a3.518,3.518,0,1,0,3.518-3.518A3.518,3.518,0,0,0,166.546,1259.74Z" transform="translate(-21.185 -98.712)" fill="#fff"/>
  </g>
</svg>
