<svg xmlns="http://www.w3.org/2000/svg" width="67.95" height="84.574" viewBox="0 0 67.95 84.574">
  <g id="Group_2675" data-name="Group 2675" transform="translate(-403.409 -1485.152)">
    <path id="Path_4959" data-name="Path 4959" d="M1828.475,286.372a4.441,4.441,0,0,1-3.491-1.6,1.138,1.138,0,0,0-1.409-.429,73.374,73.374,0,0,1-25.434,2.431,114.867,114.867,0,0,1-18.967-2.841,1.425,1.425,0,0,0-1.118.378,4.918,4.918,0,1,1-6.99-6.9,1.38,1.38,0,0,0,.349-1.125,100.55,100.55,0,0,1-3.41-17.7,119.363,119.363,0,0,1-.38-18.989,139.817,139.817,0,0,1,4.093-26.468,1.36,1.36,0,0,0-.314-1.051,5,5,0,0,1,.018-6.97,4.836,4.836,0,0,1,6.933.1,1.208,1.208,0,0,0,1.4.246,82.337,82.337,0,0,1,26.345-2.972,72.025,72.025,0,0,1,17.26,2.855,1.247,1.247,0,0,0,1.386-.307,4.857,4.857,0,0,1,6.673,7.059,1.452,1.452,0,0,0-.472,1.544,176.554,176.554,0,0,1,4.174,28.784,101.6,101.6,0,0,1-1.522,26.819c-.518,2.48-1.266,4.914-1.97,7.351a1.164,1.164,0,0,0,.341,1.426,4.854,4.854,0,0,1-3.489,8.356Z" transform="translate(-1364.008 1282.767)" fill="#fff"/>
    <path id="Path_4957" data-name="Path 4957" d="M1828.475,286.372a4.441,4.441,0,0,1-3.491-1.6,1.138,1.138,0,0,0-1.409-.429,73.374,73.374,0,0,1-25.434,2.431,114.867,114.867,0,0,1-18.967-2.841,1.425,1.425,0,0,0-1.118.378,4.918,4.918,0,1,1-6.99-6.9,1.38,1.38,0,0,0,.349-1.125,100.55,100.55,0,0,1-3.41-17.7,119.363,119.363,0,0,1-.38-18.989,139.817,139.817,0,0,1,4.093-26.468,1.36,1.36,0,0,0-.314-1.051,5,5,0,0,1,.018-6.97,4.836,4.836,0,0,1,6.933.1,1.208,1.208,0,0,0,1.4.246,82.337,82.337,0,0,1,26.345-2.972,72.025,72.025,0,0,1,17.26,2.855,1.247,1.247,0,0,0,1.386-.307,4.857,4.857,0,0,1,6.673,7.059,1.452,1.452,0,0,0-.472,1.544,176.554,176.554,0,0,1,4.174,28.784,101.6,101.6,0,0,1-1.522,26.819c-.518,2.48-1.266,4.914-1.97,7.351a1.164,1.164,0,0,0,.341,1.426,4.854,4.854,0,0,1-3.489,8.356Zm-56.306-4.978c-.044,1.459,0,1.294,1,1.974a2.544,2.544,0,0,0,2.983-1.28c.485-1.017,2.117-2.206,3.13-1.948a98.658,98.658,0,0,0,19.86,3.2,64.644,64.644,0,0,0,24.406-2.833c1-.319,2.661.76,3.125,1.842a2.567,2.567,0,0,0,2.785,1.5c.744-.493.847-.263,1.295-1.224a2.738,2.738,0,0,0-1.334-2.795c-1.195-.763-2.22-.954-1.766-2.339.607-1.85,2.23-3.7,2.693-5.59,2.657-10.833,2.726-21.824,1.845-32.855a178,178,0,0,0-4.165-26.517c-.258-1.1.475-1.557,1.524-2.119a2.723,2.723,0,0,0,1.1-2.723c-.3-.945-.46-1.132-1.472-1.362a2.434,2.434,0,0,0-2.8,1.021c-.624,1.017-1.328,2.033-2.332,1.72a72.736,72.736,0,0,0-19.232-3.159,80.456,80.456,0,0,0-25.912,3.348c-.956.285-1.827-.818-2.4-1.819-.863-1.841-1.284-1.787-2.5-1.529-1.149.655-1.033.388-1.268,1.529a2.5,2.5,0,0,0,1.268,2.8c.736.447.909,2.013.7,2.794-2.479,9.267-2.969,17.688-3.465,27.271a118.012,118.012,0,0,0,.588,19.843c.688,5.887.877,11.67,2.628,17.335a1.324,1.324,0,0,1-.763,1.825A2.418,2.418,0,0,0,1772.169,281.394Z" transform="translate(-1364.008 1282.767)" fill="#404040"/>
    <g id="Group_1170" data-name="Group 1170" transform="translate(426.142 1507.521)">
      <path id="Path_4620" data-name="Path 4620" d="M219.247,616.762c-.055-.179-1.1-1.8-.949-2.215.183-.419,1.013-2.691.993-2.693.014-.011,1.051,2.208,1.155,2.587.139.373-1.184,2.329-1.2,2.32" transform="translate(-207.607 -584.744)" fill="#78bd00"/>
      <path id="Path_4621" data-name="Path 4621" d="M219,615.769c.009.018,2.018-1.568,2.18-1.673a18.708,18.708,0,0,1,2.59.442l-2.035,1.622L219,615.769" transform="translate(-207.231 -583.569)" fill="#78bd00"/>
      <path id="Path_4633" data-name="Path 4633" d="M220.409,614.37c.909-.655,1.667-1.591,2.149-1.824a26.546,26.546,0,0,1,3.276-.349,24.278,24.278,0,0,1-2.154,2.406c-.327.242-3.278-.211-3.271-.232" transform="translate(-206.49 -584.564)" fill="#78bd00"/>
      <path id="Path_4622" data-name="Path 4622" d="M220.631,615.361a20.977,20.977,0,0,0,1.158-2.166,17.67,17.67,0,0,0-1.277-3.4c.021.006-.976,2.3-1.142,2.538a21.321,21.321,0,0,0,1.261,3.023" transform="translate(-207.04 -585.824)" fill="#78bd00"/>
      <path id="Path_4619" data-name="Path 4619" d="M214.636,621.012c.018.069,4.276-2.014,4.709-2.3.438-.145,4.831-.312,6.25-1.069,2.035-.958,4.795-2.192,4.795-2.206a64.464,64.464,0,0,1-5.307,3.782c-.845.586-3.759,1.023-4.586,1.083-.841.172-5.4,1.029-5.861.708" transform="translate(-209.524 -582.859)" fill="#78bd00"/>
      <path id="Path_4617" data-name="Path 4617" d="M222.667,615.374c.047.051-3.538,3.358-4.543,4.182-1.356,1.481-6.79,4.466-6.839,4.368q.478.343.966.677a60.477,60.477,0,0,0,10.511-9.106l-.095-.12" transform="translate(-211.285 -582.893)" fill="#78bd00"/>
      <path id="Path_4638" data-name="Path 4638" d="M221.65,613.119a19.551,19.551,0,0,1,2.066-2.615c.484-.267,3.826-.871,3.831-.9a20.343,20.343,0,0,1-2.424,3.083,12.722,12.722,0,0,1-3.472.436" transform="translate(-205.838 -585.928)" fill="#78bd00"/>
      <path id="Path_4634" data-name="Path 4634" d="M221.908,613.732c.023.009,1.262-2.493,1.089-2.824-.2-.536-1.471-3.134-1.492-3.117.027,0-.876,2.732-.978,2.953-.047.2,1.4,2.967,1.381,2.987" transform="translate(-206.428 -586.878)" fill="#78bd00"/>
      <path id="Path_4639" data-name="Path 4639" d="M223.421,611.589a10.875,10.875,0,0,0,.874-2.917,23.746,23.746,0,0,0-1.811-3.334l-.906,3.2,1.843,3.046" transform="translate(-205.876 -588.168)" fill="#78bd00"/>
      <path id="Path_4641" data-name="Path 4641" d="M223.005,610.949l1.669-2.859c.156,0,3.59-1.023,3.59-1.063a22.294,22.294,0,0,1-1.786,3.351c-.27.332-3.477.6-3.472.571" transform="translate(-205.126 -587.28)" fill="#78bd00"/>
      <path id="Path_4643" data-name="Path 4643" d="M224.1,608.831c.072-.111,1.417-2.514,1.593-2.967.2-.379,3.911-1.908,3.907-1.958.043.025-1.5,3.824-1.907,4.04a13.444,13.444,0,0,1-3.593.885" transform="translate(-204.55 -588.92)" fill="#78bd00"/>
      <path id="Path_4640" data-name="Path 4640" d="M224.643,609.432a15.376,15.376,0,0,0,.751-3.448,29.091,29.091,0,0,0-2.4-3.413c.043,0-.474,3.465-.534,3.729.012.234,2.207,3.1,2.183,3.132" transform="translate(-205.412 -589.623)" fill="#78bd00"/>
      <path id="Path_4645" data-name="Path 4645" d="M225.347,606.041a29.429,29.429,0,0,1,1.577-3.411c.345-.129,2.932-1.637,2.926-1.666a37.963,37.963,0,0,1-1.2,3.628,16.092,16.092,0,0,1-3.3,1.449" transform="translate(-203.895 -590.467)" fill="#78bd00"/>
      <path id="Path_4642" data-name="Path 4642" d="M225.688,606.289c.024.009.795-2.775.59-3.068a35.941,35.941,0,0,0-2.7-2.976l-.358,3.277,2.471,2.768" transform="translate(-205.014 -590.845)" fill="#78bd00"/>
      <path id="Path_4644" data-name="Path 4644" d="M225.732,605.374c.043-.128-.517-3.19-.583-3.456.044-.207,2.264-5.007,2.189-5.078a22.052,22.052,0,0,1,.77,3.811,28.912,28.912,0,0,1-2.377,4.723" transform="translate(-203.999 -592.634)" fill="#78bd00"/>
      <path id="Path_4623" data-name="Path 4623" d="M216.851,614.924c-.145-.119-1.913-.9-2.015-1.327-.079-.451-.641-2.8-.659-2.792,0-.016,2.1,1.264,2.393,1.524.322.236.3,2.594.281,2.6" transform="translate(-209.765 -585.294)" fill="#78bd00"/>
      <path id="Path_4624" data-name="Path 4624" d="M216.067,614.814c.018.01.818-2.416.9-2.592a18.719,18.719,0,0,1,2.409-1.054l-.806,2.47-2.5,1.176" transform="translate(-208.772 -585.103)" fill="#78bd00"/>
      <path id="Path_4625" data-name="Path 4625" d="M216.377,613.127c.4-1.046.513-2.244.787-2.7a26.689,26.689,0,0,1,2.542-2.091,24.345,24.345,0,0,1-.468,3.192c-.14.382-2.856,1.623-2.86,1.6" transform="translate(-208.609 -586.594)" fill="#78bd00"/>
      <path id="Path_4626" data-name="Path 4626" d="M217.193,613.022a20.824,20.824,0,0,0-.23-2.443,17.825,17.825,0,0,0-2.941-2.133c.02-.006.456,2.458.447,2.744a21.2,21.2,0,0,0,2.725,1.831" transform="translate(-209.847 -586.534)" fill="#78bd00"/>
      <path id="Path_4618" data-name="Path 4618" d="M217.6,613.85c.069.017-1.1,4.744-1.483,5.983-.313,1.982-3.2,7.456-3.3,7.4q.59.023,1.184.035A60.591,60.591,0,0,0,217.75,613.9l-.147-.05" transform="translate(-210.477 -583.694)" fill="#78bd00"/>
      <path id="Path_4627" data-name="Path 4627" d="M216.466,611.49a19.406,19.406,0,0,1,.281-3.315c.256-.488,2.712-2.827,2.7-2.857a20.217,20.217,0,0,1-.319,3.9,12.684,12.684,0,0,1-2.659,2.27" transform="translate(-208.562 -588.178)" fill="#78bd00"/>
      <path id="Path_4628" data-name="Path 4628" d="M217.407,610.929c.025,0-.323-2.771-.65-2.954-.467-.334-2.961-1.808-2.967-1.78.026-.012.777,2.76.815,3,.073.2,2.81,1.706,2.8,1.735" transform="translate(-209.969 -587.718)" fill="#78bd00"/>
      <path id="Path_4629" data-name="Path 4629" d="M217.508,608.3a10.858,10.858,0,0,0-.882-2.915,23.976,23.976,0,0,0-3.353-1.786c.032-.014,1.016,3.033,1.013,3.172l3.222,1.529" transform="translate(-210.24 -589.084)" fill="#78bd00"/>
      <path id="Path_4630" data-name="Path 4630" d="M216.386,608.816l-.186-3.3,2.41-2.86a22.1,22.1,0,0,1,.362,3.779c-.044.424-2.575,2.409-2.586,2.383" transform="translate(-208.702 -589.579)" fill="#78bd00"/>
      <path id="Path_4631" data-name="Path 4631" d="M215.983,606.492c0-.133-.206-2.876-.31-3.35-.041-.427,2.213-3.739,2.182-3.779.049,0,.862,4.014.637,4.418a13.353,13.353,0,0,1-2.509,2.711" transform="translate(-208.979 -591.308)" fill="#78bd00"/>
      <path id="Path_4632" data-name="Path 4632" d="M217.444,605.757a15.48,15.48,0,0,0-1.278-3.289,29.579,29.579,0,0,0-3.889-1.53c.037-.02,1.516,3.152,1.613,3.405.14.188,3.558,1.376,3.555,1.414" transform="translate(-210.764 -590.482)" fill="#78bd00"/>
      <path id="Path_4635" data-name="Path 4635" d="M215.548,603.291a29.641,29.641,0,0,1-.568-3.714c.217-.3,1.544-2.975,1.523-2.995a37.272,37.272,0,0,1,1,3.687,15.921,15.921,0,0,1-1.956,3.021" transform="translate(-209.353 -592.77)" fill="#78bd00"/>
      <path id="Path_4636" data-name="Path 4636" d="M216.632,602.526c.026,0-.868-2.752-1.2-2.883a35.325,35.325,0,0,0-3.9-1c.031-.019,1.5,2.79,1.513,2.929l3.591.952" transform="translate(-211.157 -591.687)" fill="#78bd00"/>
      <path id="Path_4637" data-name="Path 4637" d="M215.636,602.086c-.035-.129-2.2-2.377-2.4-2.564-.078-.2-.876-5.419-.978-5.439a21.9,21.9,0,0,1,2.749,2.758,28.894,28.894,0,0,1,.626,5.245" transform="translate(-210.772 -594.083)" fill="#78bd00"/>
    </g>
  </g>
</svg>
