<svg xmlns="http://www.w3.org/2000/svg" width="73.803" height="73.804" viewBox="0 0 73.803 73.804">
  <g id="Group_12117" data-name="Group 12117" transform="translate(-673.328 -4885.442)">
    <path id="Path_8167" data-name="Path 8167" d="M1251.634,1825.018s11.634-4.653,11.634-13.961-11.634-18.614-11.634-18.614S1240,1801.75,1240,1811.057,1251.634,1825.018,1251.634,1825.018Z" transform="translate(-541.404 3113.614)" fill="none" stroke="#78bd00" stroke-linejoin="round" stroke-width="4"/>
    <path id="Path_8616" data-name="Path 8616" d="M0,0V13.961" transform="translate(710.23 4924.671)" fill="none" stroke="#78bd00" stroke-width="4"/>
    <line id="Line_590" data-name="Line 590" y2="30.248" transform="translate(710.23 4906.057)" fill="none" stroke="#78bd00" stroke-linejoin="round" stroke-width="4"/>
    <path id="Path_8168" data-name="Path 8168" d="M1204.9,1803.919l4.654,2.327,4.653-2.327,4.653,2.327,4.654-2.327,4.654,2.327,4.654-2.327,4.653,2.327,2.327-20.941-6.98-48.862-4.654,2.327-4.654-2.327-4.654,2.327-4.653-2.327-4.653,2.327-4.654-2.327-4.654,2.327-4.654-2.327-4.654,2.327-4.654-2.327-4.654,2.327-4.654-2.327L1170,1785.3l2.327,20.941,4.654-2.327,4.654,2.327,4.654-2.327,4.654,2.327,4.654-2.327,4.654,2.327Z" transform="translate(-494.672 3151)" fill="none" stroke="#434343" stroke-linejoin="round" stroke-width="4"/>
    <g id="Group_2353" data-name="Group 2353" transform="translate(677.655 4899.077)">
      <path id="Path_8169" data-name="Path 8169" d="M1177,1869.443h13.388c3.233,8.214,10.6,13.961,19.187,13.961s15.954-5.746,19.187-13.961h13.388" transform="translate(-1177 -1836.868)" fill="none" stroke="#434343" stroke-linejoin="round" stroke-width="4"/>
      <path id="Path_8170" data-name="Path 8170" d="M1239.823,1785.4h-11.061c-3.233-8.214-10.6-13.961-19.187-13.961s-15.954,5.746-19.187,13.961H1177" transform="translate(-1177 -1771.443)" fill="none" stroke="#434343" stroke-linejoin="round" stroke-width="4"/>
    </g>
    <line id="Line_591" data-name="Line 591" x1="4.654" transform="translate(686.962 4922.344)" fill="none" stroke="#78bd00" stroke-linejoin="round" stroke-width="4"/>
    <line id="Line_592" data-name="Line 592" x2="4.654" transform="translate(728.844 4922.344)" fill="none" stroke="#78bd00" stroke-linejoin="round" stroke-width="4"/>
    <path id="Path_8171" data-name="Path 8171" d="M1247,1820.443l9.307,4.653,9.307-4.653" transform="translate(-546.077 3094.921)" fill="none" stroke="#78bd00" stroke-linejoin="round" stroke-width="4"/>
    <path id="Path_8172" data-name="Path 8172" d="M1240,1848.443l11.634,4.653,11.634-4.653" transform="translate(-541.404 3076.229)" fill="none" stroke="#78bd00" stroke-linejoin="round" stroke-width="4"/>
  </g>
</svg>
