<svg xmlns="http://www.w3.org/2000/svg" width="73.108" height="82.666" viewBox="0 0 73.108 82.666">
  <g id="Group_12111" data-name="Group 12111" transform="translate(-384.999 -4689)">
    <path id="Path_8525" data-name="Path 8525" d="M-341.765,211.021a54.463,54.463,0,0,1-5.023,18.448c-.388.025-.251-.216-.207-.409a38.535,38.535,0,0,0-.98-13.446c-1.285-4.669-3.586-8.632-7.964-11.092a14.99,14.99,0,0,0-5.02-1.765,1.015,1.015,0,0,1-.951-.936c-2.713-11.452-9.776-18.589-21.239-21.331-.5-.12-.91-.171-1.025-.847-1.017-5.989-4.588-9.9-10.107-12.123a30.517,30.517,0,0,0-12.936-1.75c.041.4.368.414.564.537,6.822,4.273,11.816,9.953,13.808,17.938a22.314,22.314,0,0,1,.622,7.022c-.049.689.162.858.773.945a27.391,27.391,0,0,1,5.889,1.367c2.207.834,2.289,1.384.507,2.931a.455.455,0,0,1-.614.059,24.017,24.017,0,0,0-8.788-2.089c-.529-.053-.778-.11-.653-.754,1.178-6.08-.37-11.556-3.842-16.545-3.66-5.26-8.755-8.8-14.355-11.694-.435-.225-.871-.448-1.428-.734l1.581-.649a2.708,2.708,0,0,1,1.455-.641,70.712,70.712,0,0,1,15.685-2.919c6.869-.368,13.745-.533,20.509,1.2a40.712,40.712,0,0,1,16.48,8.312c.775.655,1.453,1.408,2.183,2.109.8.77.945.781,1.729,0q3.339-3.317,6.659-6.653a6.065,6.065,0,0,1,.818-.753,1.855,1.855,0,0,1,2.322.222A1.988,1.988,0,0,1-345,167.4a5.912,5.912,0,0,1-.752.819q-3.362,3.365-6.726,6.73c-.831.834-.834.95-.1,1.84a49.65,49.65,0,0,1,10.678,23.5C-341.387,202.794-341.744,210.765-341.765,211.021Z" transform="translate(799.732 4528.695)" fill="#78bd00"/>
    <path id="Path_8538" data-name="Path 8538" d="M-397.757,358.336c-3.884,0-6.708-1.622-7.883-4.646-1.391-3.58-.979-6.885,1.828-9.691q18.636-18.633,37.277-37.261a2.106,2.106,0,0,1,2.229-.489,1.448,1.448,0,0,1,1,1.271,1.433,1.433,0,0,1-.592,1.4q-8.223,8.229-16.432,16.472-10.538,10.565-21.078,21.128a5.119,5.119,0,0,0-.309,7.022,5.464,5.464,0,0,0,7.5.189,1.519,1.519,0,0,1,2.26-.22,1.77,1.77,0,0,1-.033,2.535A7.5,7.5,0,0,1-397.757,358.336Z" transform="translate(793.098 4412.395)" fill="#404040"/>
    <g id="Group_2676" data-name="Group 2676" transform="translate(8784.367 -13184)">
      <path id="Path_8536" data-name="Path 8536" d="M-238.136,439.152c-2.194,0-4.389-.032-6.582.018-.758.017-1.152-.136-1.026-.97.017-.113-.088-.245-.136-.368-.108-3.186-.226-6.371-.315-9.558-.014-.509-.088-.8-.675-.586-.445.159-.557-.057-.583-.477-.2-3.181-.464-6.359-.6-9.543a3.851,3.851,0,0,1,3.852-3.809q2.309,0,4.618,0a4.053,4.053,0,0,1,3.638,3.872c-.22,3.124-.479,6.246-.7,9.371-.028.393-.093.661-.549.577-.67-.124-.67.274-.677.763-.054,3.3-.129,6.595-.2,9.892C-238.079,438.607-238.115,438.88-238.136,439.152Z" transform="translate(-8113.251 17515.984)" fill="none" stroke="#404040" stroke-width="1"/>
      <path id="Path_8537" data-name="Path 8537" d="M-165.1,459l-.016-.689c.455-2.792.886-5.588,1.383-8.372.108-.6-.071-.757-.586-.691-.825.1-.983-.274-.969-1.035.041-2.281.037-4.565-.027-6.846a3.638,3.638,0,0,1,3.735-3.729c1.226.115,2.473.021,3.71.021a3.645,3.645,0,0,1,3.488,3.462c.013,2.475-.03,4.95,0,7.424.008.616-.241.657-.733.627-1.033-.063-1.025-.043-.88.979q.589,4.162,1.164,8.325c-.021.327-.084.567-.523.532-.491-.039-.988.007-1.483.016l-2.313-.008h-2.477Z" transform="translate(-8182.331 17496.145)" fill="none" stroke="#404040" stroke-width="1"/>
      <path id="Path_8539" data-name="Path 8539" d="M-303.819,488.651l-1.487,0c-2.136-.018-2.136-.018-2.135-2.147,0-.963.01-1.925,0-2.888,0-.253.128-.565-.208-.732-.619.139-.849-.1-.9-.741-.151-1.918-.388-3.83-.558-5.747a2.992,2.992,0,0,1,3.033-3.254c1.046,0,2.091,0,3.137,0a3.063,3.063,0,0,1,3.022,3.494c-.277,1.96-.523,3.924-.78,5.886-.042.32.023.7-.522.6-.443-.077-.3.3-.312.5-.118,1.508-.219,3.017-.325,4.525-.162.484-.537.533-.974.5C-303.159,488.627-303.49,488.65-303.819,488.651Z" transform="translate(-8062.267 17466.488)" fill="none" stroke="#404040" stroke-width="1"/>
      <path id="Path_8540" data-name="Path 8540" d="M-227.83,371.551a3.218,3.218,0,0,1-3.158-3.328,3.233,3.233,0,0,1,3.361-3.127,3.233,3.233,0,0,1,3.114,3.289A3.21,3.21,0,0,1-227.83,371.551Z" transform="translate(-8127.499 17556.695)" fill="#78bd00"/>
      <path id="Path_8541" data-name="Path 8541" d="M-144.028,396.856a2.893,2.893,0,0,1-2.834,2.935,2.907,2.907,0,0,1-2.991-2.868,2.909,2.909,0,0,1,2.84-2.934A2.89,2.89,0,0,1-144.028,396.856Z" transform="translate(-8195.238 17532.574)" fill="#78bd00"/>
      <path id="Path_8542" data-name="Path 8542" d="M-293.621,436.031a2.477,2.477,0,0,1,2.456,2.459,2.49,2.49,0,0,1-2.514,2.487,2.471,2.471,0,0,1-2.447-2.545A2.46,2.46,0,0,1-293.621,436.031Z" transform="translate(-8073.117 17497.473)" fill="#78bd00"/>
    </g>
  </g>
</svg>
