<svg id="Group_2683" data-name="Group 2683" xmlns="http://www.w3.org/2000/svg" width="88.25" height="53.322" viewBox="0 0 88.25 53.322">
  <path id="Path_8620" data-name="Path 8620" d="M-191.162,825.215a4.858,4.858,0,0,1-3.421-1.4,4.853,4.853,0,0,1-1.461-3.438,4.841,4.841,0,0,1,1.4-3.464l5.711-5.815a4.839,4.839,0,0,1,3.48-1.461,4.86,4.86,0,0,1,3.422,1.4,4.854,4.854,0,0,1,1.46,3.439,4.842,4.842,0,0,1-1.4,3.463l-5.708,5.814A4.847,4.847,0,0,1-191.162,825.215Zm4.709-12.339a2.617,2.617,0,0,0-1.885.79l-3.712,3.816a2.624,2.624,0,0,0-.758,1.877,2.626,2.626,0,0,0,.792,1.863,2.711,2.711,0,0,0,3.742-.033l3.709-3.815a2.62,2.62,0,0,0,.759-1.876,2.631,2.631,0,0,0-.791-1.864A2.637,2.637,0,0,0-186.453,812.875Z" transform="translate(208.792 -787.893)" fill="#78bd00"/>
  <path id="Path_8625" data-name="Path 8625" d="M-191.162,825.215a4.858,4.858,0,0,1-3.421-1.4,4.853,4.853,0,0,1-1.461-3.438,4.841,4.841,0,0,1,1.4-3.464l5.711-5.815a4.839,4.839,0,0,1,3.48-1.461,4.86,4.86,0,0,1,3.422,1.4,4.854,4.854,0,0,1,1.46,3.439,4.842,4.842,0,0,1-1.4,3.463l-5.708,5.814A4.847,4.847,0,0,1-191.162,825.215Zm4.709-12.339a2.617,2.617,0,0,0-1.885.79l-3.712,3.816a2.624,2.624,0,0,0-.758,1.877,2.626,2.626,0,0,0,.792,1.863,2.711,2.711,0,0,0,3.742-.033l3.709-3.815a2.62,2.62,0,0,0,.759-1.876,2.631,2.631,0,0,0-.791-1.864A2.637,2.637,0,0,0-186.453,812.875Z" transform="translate(215.792 -781.893)" fill="#78bd00"/>
  <path id="Path_8626" data-name="Path 8626" d="M-191.162,825.215a4.858,4.858,0,0,1-3.421-1.4,4.853,4.853,0,0,1-1.461-3.438,4.841,4.841,0,0,1,1.4-3.464l5.711-5.815a4.839,4.839,0,0,1,3.48-1.461,4.86,4.86,0,0,1,3.422,1.4,4.854,4.854,0,0,1,1.46,3.439,4.842,4.842,0,0,1-1.4,3.463l-5.708,5.814A4.847,4.847,0,0,1-191.162,825.215Zm4.709-12.339a2.617,2.617,0,0,0-1.885.79l-3.712,3.816a2.624,2.624,0,0,0-.758,1.877,2.626,2.626,0,0,0,.792,1.863,2.711,2.711,0,0,0,3.742-.033l3.709-3.815a2.62,2.62,0,0,0,.759-1.876,2.631,2.631,0,0,0-.791-1.864A2.637,2.637,0,0,0-186.453,812.875Z" transform="translate(222.792 -776.893)" fill="#78bd00"/>
  <path id="Path_8627" data-name="Path 8627" d="M-191.162,825.215a4.858,4.858,0,0,1-3.421-1.4,4.853,4.853,0,0,1-1.461-3.438,4.841,4.841,0,0,1,1.4-3.464l5.711-5.815a4.839,4.839,0,0,1,3.48-1.461,4.86,4.86,0,0,1,3.422,1.4,4.854,4.854,0,0,1,1.46,3.439,4.842,4.842,0,0,1-1.4,3.463l-5.708,5.814A4.847,4.847,0,0,1-191.162,825.215Zm4.709-12.339a2.617,2.617,0,0,0-1.885.79l-3.712,3.816a2.624,2.624,0,0,0-.758,1.877,2.626,2.626,0,0,0,.792,1.863,2.711,2.711,0,0,0,3.742-.033l3.709-3.815a2.62,2.62,0,0,0,.759-1.876,2.631,2.631,0,0,0-.791-1.864A2.637,2.637,0,0,0-186.453,812.875Z" transform="translate(228.792 -771.893)" fill="#78bd00"/>
  <path id="Path_8622" data-name="Path 8622" d="M256.344,734.54a4.858,4.858,0,0,1-.975-.1,1.117,1.117,0,1,1,.445-2.19,2.649,2.649,0,0,0,2.951-3.66,1.227,1.227,0,0,1,.276-1.524,1.256,1.256,0,0,1,1.567,0,1.129,1.129,0,0,1,.168.141,2.629,2.629,0,0,0,1.864.792,2.717,2.717,0,0,0,1.878-.758,2.662,2.662,0,0,0,.583-2.918,1.224,1.224,0,0,1,1.8-1.58,1.174,1.174,0,0,1,.2.16,2.644,2.644,0,0,0,3.741.035,2.661,2.661,0,0,0,.557-2.987,1.217,1.217,0,0,1,.277-1.522,1.268,1.268,0,0,1,1.607.05,1.1,1.1,0,0,1,.14.121,2.646,2.646,0,0,0,3.811-3.672l-14.979-12.616a1.118,1.118,0,1,1,1.44-1.71l15.023,12.653c.026.023.053.046.077.072a4.88,4.88,0,0,1-4.941,8.076,4.876,4.876,0,0,1-4.862,4.527h-.046a4.859,4.859,0,0,1-1.4-.217,4.9,4.9,0,0,1-4.874,4.521h-.044a4.9,4.9,0,0,1-1.416-.221,4.874,4.874,0,0,1-4.862,4.525Z" transform="translate(-208.438 -685.186)" fill="#434343"/>
  <path id="Path_8623" data-name="Path 8623" d="M105.062,511.025c-.343-.513-1.23-1.747-.716-2.09a7.174,7.174,0,0,0,.747-.586c.945-.833,5.856-5.247,10.9-9.871l.122-.111-11.839-11.591-.11.106c-2.043,1.983-4.23,1.947-6.688,1.947a13.791,13.791,0,0,1-4.432-.888c-.35-.117-.659-.22-.916-.29-1-.263-2.274-.634-3.465-.982l-.232-.067c-1.107-.322-2.122-.618-2.76-.785a5.121,5.121,0,0,0-1.275-.147c-.8,0-1.826-.834-3.385.7-.511.5-2.711,2.672-4.153,4.078l-1.848,1.8c-2.883,2.806-4.974,4.819-5.517,5.362a2.447,2.447,0,0,0-.739,1.759c0,.622.155,1.159,1.288,2.264,1.018,1.035,2.115.881,3.408.881a6.752,6.752,0,0,0,3.328-1.433c1.915-1.543,3.51-3.9,4.463-4.707.332-.282.478-.417.579-.511a3.937,3.937,0,0,1,.355-.3c.49-.373,1.984-.489,2.358,0s.49,2.4,0,2.775a2.187,2.187,0,0,0-.191.165c-.113.105-.278.259-.654.579-.96.816-2.569,2.181-4.507,3.743a11.156,11.156,0,0,1-6.877,2.622,6.69,6.69,0,0,1-4.732-1.774,6.011,6.011,0,0,1-2.054-4.285,4.665,4.665,0,0,1,1.4-3.356c.544-.544,3.646-3.566,6.537-6.38l1.847-1.8c1.44-1.4,2.637-2.57,3.147-3.072a8.627,8.627,0,0,1,5.952-2.337,7.349,7.349,0,0,1,1.843.221c.652.17,1.687.472,2.818.8l.233.068c1.172.342,2.425.708,3.414.969.3.081.652.2,1.051.33a11.736,11.736,0,0,0,3.722.771,7.209,7.209,0,0,0,5.13-2.315l.892-.867a1.119,1.119,0,0,1,1.563,0L120.52,497.6a1.118,1.118,0,0,1-.027,1.622l-.99.908c-5.365,4.917-10.979,10.059-11.93,10.9a9.347,9.347,0,0,1-.985.768C106.4,511.92,105.277,511.347,105.062,511.025Z" transform="translate(-32.605 -482.097)" fill="#78bd00"/>
  <path id="Path_8624" data-name="Path 8624" d="M-394.389,511.3a1.11,1.11,0,0,1-.739-.28c-.718-.633-4.285-3.893-11.929-10.9l-.99-.908a1.116,1.116,0,0,1-.362-.8,1.117,1.117,0,0,1,.334-.817l15.458-15.181a1.118,1.118,0,0,1,1.562,0l.893.868a7.214,7.214,0,0,0,5.13,2.314,11.732,11.732,0,0,0,3.721-.771c.4-.134.752-.249,1.046-.328,1.063-.28,2.42-.678,3.658-1.04,1.128-.329,2.162-.629,2.813-.8a7.359,7.359,0,0,1,1.843-.221A8.62,8.62,0,0,1-366,484.773a1.117,1.117,0,0,1,.014,1.58,1.116,1.116,0,0,1-1.581.014,6.361,6.361,0,0,0-4.384-1.7,5.158,5.158,0,0,0-1.275.146c-.638.168-1.65.461-2.753.784-1.258.368-2.637.771-3.711,1.053-.252.068-.56.171-.91.288a13.793,13.793,0,0,1-4.431.888,9.342,9.342,0,0,1-6.687-2.946l-.111-.107-13.839,13.59.122.112c7.633,7,11.191,10.247,11.9,10.871a1.117,1.117,0,0,1,.1,1.577A1.116,1.116,0,0,1-394.389,511.3Z" transform="translate(408.41 -482.097)" fill="#434343"/>
</svg>
