<svg xmlns="http://www.w3.org/2000/svg" width="99.278" height="75.006" viewBox="0 0 99.278 75.006">
  <g id="Group_12112" data-name="Group 12112" transform="translate(-562.58 -4699)">
    <g id="Group_2677" data-name="Group 2677" transform="translate(562 4699.5)">
      <g id="Group_1201" data-name="Group 1201" transform="translate(0.58 0)">
        <path id="Path_4952" data-name="Path 4952" d="M1037.392,457.567a7.464,7.464,0,1,0,7.464,7.464A7.472,7.472,0,0,0,1037.392,457.567Zm0,13.286a5.822,5.822,0,1,1,5.823-5.821A5.827,5.827,0,0,1,1037.392,470.853Z" transform="translate(-1005.481 -397.99)" fill="#404040"/>
        <path id="Path_4953" data-name="Path 4953" d="M1022.913,457.567a7.464,7.464,0,1,0,7.464,7.464A7.472,7.472,0,0,0,1022.913,457.567Zm0,13.286a5.822,5.822,0,1,1,5.823-5.821A5.827,5.827,0,0,1,1022.913,470.853Z" transform="translate(-1011.142 -397.99)" fill="#404040"/>
        <path id="Path_4954" data-name="Path 4954" d="M1073.388,457.567a7.464,7.464,0,1,0,7.464,7.464A7.473,7.473,0,0,0,1073.388,457.567Zm0,13.286a5.822,5.822,0,1,1,5.823-5.821A5.829,5.829,0,0,1,1073.388,470.853Z" transform="translate(-991.405 -397.99)" fill="#404040"/>
        <path id="Path_4955" data-name="Path 4955" d="M1081.09,442.34c-.006-.021-.011-.042-.018-.063-.061-.181-.118-.359-.174-.531-.8-2.484-1.591-3.988-5.926-3.913h-3.9a.822.822,0,0,0-.821.822v10.7a.82.82,0,0,0,.821.821h10.917a.822.822,0,0,0,.8-1.02Zm-9.192,6.191v-9.056h3.088c3.44-.061,3.724.828,4.349,2.772.056.17.11.344.17.52l1.438,5.763Z" transform="translate(-989.712 -405.707)" fill="#404040"/>
        <path id="Path_4956" data-name="Path 4956" d="M1111.481,443.084a8.86,8.86,0,0,0-2.874-3.519,1.3,1.3,0,0,1-.4-.6,28.236,28.236,0,0,0-.786-3.091c-.437-1.552-1.114-3.8-1.86-5.674-1.162-2.924-5.578-2.921-7.072-2.923h-3.771c-5.2-6.091-5.55-5.966-6.182-5.734a.892.892,0,0,0-.577.851v5.614c0,.015,0,.031,0,.046s0,.033,0,.052c.149,15.233.156,16.687.114,22.671h-1.5V399.029a.822.822,0,0,0-.822-.821h-69.6a.822.822,0,0,0-.822.821v51.746h-2.047a.821.821,0,0,0-.821.814l-.1,11.476a.819.819,0,0,0,.82.828h2a.821.821,0,0,0,.768-.534c1.769-4.752,4.053-6.536,8.428-6.589a8.175,8.175,0,0,1,7.84,6.474.819.819,0,0,0,.8.65h2.057a.822.822,0,0,0,.8-.65,8.744,8.744,0,0,1,8.161-6.628c4.122,0,7.281,2.445,8.668,6.71a.822.822,0,0,0,.78.568h7.6v.746a2.069,2.069,0,0,0,2.114,2.014h15.667a2.069,2.069,0,0,0,2.114-2.014v-.746h4.264a.821.821,0,0,0,.8-.65,8.465,8.465,0,0,1,8.49-6.414,8.6,8.6,0,0,1,8.324,6.44.82.82,0,0,0,.8.623h3.885a.82.82,0,0,0,.821-.821v-4.912l1.024,0h0a.822.822,0,0,0,.715-.417,13.7,13.7,0,0,0,1.523-4.664c0-.029.005-.058.005-.088,0,0-.035-9.489-.086-9.69A.772.772,0,0,0,1111.481,443.084Zm-1.555,1.166.054,4.933h-.669a1.015,1.015,0,0,1-.95-1.067v-2.8a1.015,1.015,0,0,1,.95-1.067Zm-20.33-20.238c.6.611,1.53,1.623,2.952,3.263H1089.6Zm-72.636-24.16V450.7l67.962.079H1016.96V399.851Zm62.378,64.785a.438.438,0,0,1-.473.371H1063.2a.438.438,0,0,1-.473-.371v-6.4a.438.438,0,0,1,.473-.371h15.667a.438.438,0,0,1,.473.371Zm27.382-2.388h-2.445a10.256,10.256,0,0,0-9.683-7.062h-.068a10.159,10.159,0,0,0-9.921,7.062h-3.624v-4.013a2.068,2.068,0,0,0-2.114-2.014H1063.2a2.068,2.068,0,0,0-2.114,2.014v4.013h-7.014c-1.7-4.57-5.412-7.278-10.032-7.278a10.35,10.35,0,0,0-9.6,7.278h-.781a9.827,9.827,0,0,0-9.3-7.122c-4.892.058-7.748,2.131-9.741,7.123H1014l.081-9.832h79.831a20.409,20.409,0,0,1,4.294.727c2.646.815,4.553,2.9,6.235,4.736a.815.815,0,0,0,.6.267l1.674,0Zm3.269-9.3a11.849,11.849,0,0,1-1.1,3.571l-3.476-.01c-1.692-1.843-3.789-4.03-6.72-4.931a31.027,31.027,0,0,0-8.979-.881c.039-5.812.033-7.378-.107-21.778h8.921c1.181,0,4.756,0,5.506,1.886a70.532,70.532,0,0,1,2.519,8.246.89.89,0,0,0,.021.17,2.934,2.934,0,0,0,.982,1.6,12.182,12.182,0,0,1,1.783,1.783h-.025a2.656,2.656,0,0,0-2.591,2.71v2.8a2.656,2.656,0,0,0,2.591,2.71h.677Z" transform="translate(-1012.353 -398.208)" fill="#404040"/>
        <rect id="Rectangle_563" data-name="Rectangle 563" width="1.731" height="44.454" transform="translate(2.899 7.614)" fill="#404040"/>
        <rect id="Rectangle_1088" data-name="Rectangle 1088" width="72" height="53" transform="translate(2.42 -0.5)" fill="#78bd00"/>
      </g>
    </g>
    <g id="Group_2678" data-name="Group 2678" transform="translate(178.592 3212.506)">
      <g id="Group_1170" data-name="Group 1170" transform="translate(412.789 1500.55)">
        <path id="Path_4620" data-name="Path 4620" d="M218.891,614.95c-.035-.113-.694-1.135-.6-1.4.115-.264.639-1.7.627-1.7.009-.007.663,1.393.728,1.632.088.235-.747,1.469-.756,1.464" transform="translate(-211.549 -594.753)" fill="#fff"/>
        <path id="Path_4621" data-name="Path 4621" d="M219,615.149c.006.012,1.273-.989,1.375-1.056a11.816,11.816,0,0,1,1.634.279l-1.284,1.023L219,615.149" transform="translate(-211.576 -594.837)" fill="#fff"/>
        <path id="Path_4633" data-name="Path 4633" d="M220.409,613.567c.574-.413,1.052-1,1.356-1.151a16.724,16.724,0,0,1,2.066-.22,15.325,15.325,0,0,1-1.359,1.518,7.865,7.865,0,0,1-2.063-.147" transform="translate(-211.629 -594.766)" fill="#fff"/>
        <path id="Path_4622" data-name="Path 4622" d="M220.163,613.308a13.25,13.25,0,0,0,.73-1.366,11.147,11.147,0,0,0-.805-2.142c.013,0-.616,1.452-.721,1.6a13.458,13.458,0,0,0,.8,1.907" transform="translate(-211.59 -594.676)" fill="#fff"/>
        <path id="Path_4619" data-name="Path 4619" d="M214.636,618.954c.012.043,2.7-1.27,2.971-1.449.276-.091,3.048-.2,3.943-.674,1.284-.6,3.025-1.383,3.025-1.392a40.7,40.7,0,0,1-3.348,2.386,9.247,9.247,0,0,1-2.893.683c-.53.109-3.407.649-3.7.446" transform="translate(-211.411 -594.888)" fill="#fff"/>
        <path id="Path_4617" data-name="Path 4617" d="M218.465,615.374c.03.032-2.232,2.118-2.866,2.638a21.415,21.415,0,0,1-4.314,2.755q.3.217.609.427a38.145,38.145,0,0,0,6.63-5.744l-.06-.076" transform="translate(-211.285 -594.885)" fill="#fff"/>
        <path id="Path_4638" data-name="Path 4638" d="M221.65,611.82a12.338,12.338,0,0,1,1.3-1.649c.305-.168,2.413-.549,2.416-.571a12.841,12.841,0,0,1-1.529,1.945,8.027,8.027,0,0,1-2.19.275" transform="translate(-211.676 -594.668)" fill="#fff"/>
        <path id="Path_4634" data-name="Path 4634" d="M221.4,611.538a6.335,6.335,0,0,0,.687-1.781c-.129-.338-.928-1.977-.941-1.966.017,0-.552,1.723-.617,1.863-.03.128.885,1.872.871,1.884" transform="translate(-211.633 -594.599)" fill="#fff"/>
        <path id="Path_4639" data-name="Path 4639" d="M222.74,609.281a6.861,6.861,0,0,0,.551-1.84,14.979,14.979,0,0,0-1.142-2.1l-.572,2.021,1.162,1.922" transform="translate(-211.673 -594.507)" fill="#fff"/>
        <path id="Path_4641" data-name="Path 4641" d="M223.005,609.5l1.053-1.8c.1,0,2.264-.645,2.264-.671a14.067,14.067,0,0,1-1.127,2.114,8.425,8.425,0,0,1-2.19.36" transform="translate(-211.727 -594.571)" fill="#fff"/>
        <path id="Path_4643" data-name="Path 4643" d="M224.1,607.013c.045-.07.894-1.586,1-1.871a19.906,19.906,0,0,1,2.464-1.235,12.834,12.834,0,0,1-1.2,2.548,8.483,8.483,0,0,1-2.266.558" transform="translate(-211.768 -594.453)" fill="#fff"/>
        <path id="Path_4640" data-name="Path 4640" d="M223.837,606.9a9.7,9.7,0,0,0,.474-2.175,18.353,18.353,0,0,0-1.514-2.153c.027,0-.3,2.185-.337,2.352.008.147,1.392,1.956,1.377,1.976" transform="translate(-211.706 -594.403)" fill="#fff"/>
        <path id="Path_4645" data-name="Path 4645" d="M225.347,604.167a18.58,18.58,0,0,1,1-2.152c.217-.082,1.849-1.033,1.846-1.051a23.955,23.955,0,0,1-.758,2.288,10.138,10.138,0,0,1-2.082.914" transform="translate(-211.815 -594.343)" fill="#fff"/>
        <path id="Path_4642" data-name="Path 4642" d="M224.776,604.058a7.289,7.289,0,0,0,.372-1.935,22.642,22.642,0,0,0-1.705-1.877l-.226,2.067,1.559,1.746" transform="translate(-211.735 -594.315)" fill="#fff"/>
        <path id="Path_4644" data-name="Path 4644" d="M225.517,602.223c.027-.081-.326-2.012-.368-2.18.028-.13,1.428-3.158,1.381-3.2a13.913,13.913,0,0,1,.486,2.4,18.231,18.231,0,0,1-1.5,2.979" transform="translate(-211.808 -594.187)" fill="#fff"/>
        <path id="Path_4623" data-name="Path 4623" d="M215.864,613.4c-.091-.075-1.207-.566-1.271-.837s-.4-1.767-.416-1.761c0-.01,1.323.8,1.51.961.2.149.189,1.636.177,1.637" transform="translate(-211.394 -594.713)" fill="#fff"/>
        <path id="Path_4624" data-name="Path 4624" d="M216.067,613.468c.012.006.516-1.524.565-1.635a11.814,11.814,0,0,1,1.52-.665l-.508,1.558-1.576.742" transform="translate(-211.465 -594.726)" fill="#fff"/>
        <path id="Path_4625" data-name="Path 4625" d="M216.377,611.357c.251-.66.323-1.416.5-1.705a16.847,16.847,0,0,1,1.6-1.319,15.361,15.361,0,0,1-.3,2.013,7.916,7.916,0,0,1-1.8,1.01" transform="translate(-211.477 -594.62)" fill="#fff"/>
        <path id="Path_4626" data-name="Path 4626" d="M216.022,611.333a13.147,13.147,0,0,0-.145-1.541,11.243,11.243,0,0,0-1.855-1.345c.012,0,.288,1.55.282,1.731a13.378,13.378,0,0,0,1.719,1.155" transform="translate(-211.388 -594.624)" fill="#fff"/>
        <path id="Path_4618" data-name="Path 4618" d="M215.838,613.85c.043.01-.693,2.993-.935,3.774a21.28,21.28,0,0,1-2.081,4.668q.372.014.747.022a38.218,38.218,0,0,0,2.361-8.433l-.092-.032" transform="translate(-211.343 -594.828)" fill="#fff"/>
        <path id="Path_4627" data-name="Path 4627" d="M216.466,609.211a12.239,12.239,0,0,1,.177-2.091c.162-.308,1.711-1.783,1.7-1.8a12.75,12.75,0,0,1-.2,2.462,8,8,0,0,1-1.677,1.432" transform="translate(-211.48 -594.506)" fill="#fff"/>
        <path id="Path_4628" data-name="Path 4628" d="M216.072,609.182a6.331,6.331,0,0,0-.41-1.863c-.294-.211-1.868-1.14-1.872-1.123.016-.007.49,1.741.514,1.892.046.124,1.772,1.076,1.768,1.094" transform="translate(-211.379 -594.54)" fill="#fff"/>
        <path id="Path_4629" data-name="Path 4629" d="M215.944,606.561a6.844,6.844,0,0,0-.556-1.839,15.113,15.113,0,0,0-2.115-1.127c.02-.009.641,1.913.639,2l2.032.964" transform="translate(-211.36 -594.442)" fill="#fff"/>
        <path id="Path_4630" data-name="Path 4630" d="M216.318,606.541l-.117-2.083,1.52-1.8a13.939,13.939,0,0,1,.228,2.383c-.028.267-1.624,1.52-1.631,1.5" transform="translate(-211.47 -594.406)" fill="#fff"/>
        <path id="Path_4631" data-name="Path 4631" d="M215.868,603.86c0-.084-.13-1.814-.2-2.114a19.812,19.812,0,0,1,1.376-2.384,12.749,12.749,0,0,1,.4,2.787,8.428,8.428,0,0,1-1.583,1.71" transform="translate(-211.451 -594.282)" fill="#fff"/>
        <path id="Path_4632" data-name="Path 4632" d="M215.536,603.977a9.765,9.765,0,0,0-.806-2.075,18.673,18.673,0,0,0-2.453-.965c.023-.013.957,1.988,1.017,2.148.089.118,2.244.868,2.242.892" transform="translate(-211.322 -594.342)" fill="#fff"/>
        <path id="Path_4635" data-name="Path 4635" d="M215.331,600.814a18.691,18.691,0,0,1-.358-2.342c.137-.187.974-1.877.96-1.889a23.5,23.5,0,0,1,.631,2.326,10.043,10.043,0,0,1-1.234,1.906" transform="translate(-211.424 -594.178)" fill="#fff"/>
        <path id="Path_4636" data-name="Path 4636" d="M214.748,601.093a7.241,7.241,0,0,0-.758-1.819,22.242,22.242,0,0,0-2.462-.629c.019-.012.947,1.76.955,1.848l2.265.6" transform="translate(-211.294 -594.255)" fill="#fff"/>
        <path id="Path_4637" data-name="Path 4637" d="M214.391,599.131c-.022-.082-1.385-1.5-1.512-1.617-.049-.123-.552-3.418-.617-3.431a13.816,13.816,0,0,1,1.734,1.74,18.23,18.23,0,0,1,.395,3.308" transform="translate(-211.322 -594.083)" fill="#fff"/>
      </g>
    </g>
  </g>
</svg>
