<?xml version="1.0" encoding="UTF-8"?>
<svg version="1.1" xmlns="http://www.w3.org/2000/svg" width="579" height="260">
<path d="M0 0 C0.99 0.495 0.99 0.495 2 1 C0.4656691 5.19573204 -2.24587507 6.8626231 -5.875 9.3125 C-6.45000244 9.70203857 -7.02500488 10.09157715 -7.61743164 10.49291992 C-12.41787074 13.70568815 -17.36772185 16.63368595 -22.38671875 19.4921875 C-25.35718715 21.20609005 -28.18449868 23.04479075 -31 25 C-30.44054687 24.91621094 -29.88109375 24.83242188 -29.3046875 24.74609375 C-21.77090297 23.78923044 -14.54228746 24.29358979 -7 25 C-6.72542969 24.26910156 -6.45085937 23.53820312 -6.16796875 22.78515625 C-3.64039343 16.75786126 -0.18683702 10.57960281 5.890625 7.6484375 C13.75266795 5.23158726 21.20470343 5.79133264 29 8 C29 8.66 29 9.32 29 10 C29.54785156 9.7834375 30.09570312 9.566875 30.66015625 9.34375 C38.54878699 6.57310896 45.73323753 6.70239655 54 7 C54 8.32 54 9.64 54 11 C54.54785156 10.855625 55.09570312 10.71125 55.66015625 10.5625 C63.70071097 8.67983353 74.38311554 6.62123437 81.94921875 10.51953125 C82.62597656 11.00808594 83.30273438 11.49664062 84 12 C83.01 13.32 82.02 14.64 81 16 C82.093125 15.835 83.18625 15.67 84.3125 15.5 C91.66882405 14.59842565 99.06273027 14.00009958 106 17 C106 18.32 106 19.64 106 21 C105.01 21.66 104.02 22.32 103 23 C103.96550781 22.83886719 104.93101562 22.67773438 105.92578125 22.51171875 C110.34958175 21.88387467 114.72479222 21.80890286 119.1875 21.8125 C120.01741455 21.81185547 120.8473291 21.81121094 121.70239258 21.81054688 C128.2765219 21.86667605 134.57399984 22.56344907 141 24 C141.33 24.99 141.66 25.98 142 27 C136.555 27.495 136.555 27.495 131 28 C131.79664063 28.04898438 132.59328125 28.09796875 133.4140625 28.1484375 C134.47367187 28.22320312 135.53328125 28.29796875 136.625 28.375 C137.66914063 28.44460937 138.71328125 28.51421875 139.7890625 28.5859375 C143 29 143 29 145.79443359 29.97705078 C149.09502833 31.03032511 152.0550088 31.46130047 155.5 31.78125 C156.716875 31.90113281 157.93375 32.02101562 159.1875 32.14453125 C160.445625 32.26183594 161.70375 32.37914062 163 32.5 C165.50060809 32.73315096 168.00064577 32.97252125 170.5 33.21875 C171.6034375 33.32123047 172.706875 33.42371094 173.84375 33.52929688 C177.07779232 34.01160145 179.93532872 34.87613335 183 36 C182.67 36.66 182.34 37.32 182 38 C177.38 38 172.76 38 168 38 C168 38.66 168 39.32 168 40 C168.71115967 40.13140381 169.42231934 40.26280762 170.1550293 40.39819336 C173.00545799 41.00115455 175.73506245 41.77334321 178.51953125 42.62890625 C179.54111328 42.94150391 180.56269531 43.25410156 181.61523438 43.57617188 C182.67033203 43.90166016 183.72542969 44.22714844 184.8125 44.5625 C185.88693359 44.89185547 186.96136719 45.22121094 188.06835938 45.56054688 C190.71290985 46.37154236 193.35675437 47.18476372 196 48 C196 49.32 196 50.64 196 52 C193.37461716 51.85946128 190.74982573 51.71281053 188.125 51.5625 C187.00544922 51.50352539 187.00544922 51.50352539 185.86328125 51.44335938 C180.2265625 51.11328125 180.2265625 51.11328125 178 50 C178 50.66 178 51.32 178 52 C178.66 52.2475 179.32 52.495 180 52.75 C183 54 183 54 186.44921875 55.7734375 C192.75692898 58.94817907 199.3451437 61.48102163 205.89257812 64.11328125 C213.97043106 67.41855951 221.72535687 71.15023791 229 76 C229 76.66 229 77.32 229 78 C223.71573915 77.48167123 219.79838647 76.18305975 215.0625 73.8125 C199.75535469 66.28271361 199.75535469 66.28271361 183.33203125 62.46484375 C181.99301758 62.33432617 181.99301758 62.33432617 180.62695312 62.20117188 C179.69818359 62.11416016 178.76941406 62.02714844 177.8125 61.9375 C176.87212891 61.84662109 175.93175781 61.75574219 174.96289062 61.66210938 C172.6422078 61.43828717 170.32126311 61.21770754 168 61 C170.04864394 63.22453365 171.87680421 64.60157711 174.6171875 65.8671875 C175.65166016 66.36025391 175.65166016 66.36025391 176.70703125 66.86328125 C178.14293861 67.53337135 179.58042594 68.200087 181.01953125 68.86328125 C185.54540715 71.02929635 188.66073838 73.24169379 192 77 C190 78 190 78 188.07421875 77.43359375 C187.28660156 77.10488281 186.49898438 76.77617188 185.6875 76.4375 C184.80707031 76.07011719 183.92664063 75.70273438 183.01953125 75.32421875 C177.64120211 72.96554659 172.31438651 70.49892783 167 68 C167.4640625 69.3921875 167.4640625 69.3921875 167.9375 70.8125 C168.625 72.875 169.3125 74.9375 170 77 C169.01 77 168.02 77 167 77 C167 77.99 167 78.98 167 80 C166.34 80 165.68 80 165 80 C164.51466797 78.68902344 164.51466797 78.68902344 164.01953125 77.3515625 C161.32822848 72.88514514 158.11466889 70.98204942 153.6875 68.375 C152.89166504 67.89571045 152.09583008 67.4164209 151.27587891 66.92260742 C144.43952541 62.95397104 137.77514026 60.56252819 130 59 C130 60.65 130 62.3 130 64 C126.10417481 64 123.7886313 62.26989858 120.5625 60.3125 C108.85718488 53.12763998 108.85718488 53.12763998 95.625 51.125 C87.34416802 51.60784735 79.68952204 46.45968136 73 42 C73 43.65 73 45.3 73 47 C70.95737483 46.71512349 68.91592973 46.42177949 66.875 46.125 C65.16957031 45.88136719 65.16957031 45.88136719 63.4296875 45.6328125 C60.13921085 45.02568583 57.14220897 44.13654367 54 43 C54 43.99 54 44.98 54 46 C50.21510558 47.3275376 47.04209882 46.77295886 43.125 46.1875 C41.93132812 46.01605469 40.73765625 45.84460938 39.5078125 45.66796875 C36.19636428 45.03739231 33.16514041 44.14700042 30 43 C30 43.66 30 44.32 30 45 C29.21753906 44.98839844 28.43507813 44.97679687 27.62890625 44.96484375 C26.61699219 44.95582031 25.60507812 44.94679687 24.5625 44.9375 C23.55316406 44.92589844 22.54382813 44.91429687 21.50390625 44.90234375 C19.05978933 44.71387324 19.05978933 44.71387324 18 46 C19.216875 46.12375 20.43375 46.2475 21.6875 46.375 C27.82127444 47.05108696 33.90701176 48.03001887 40 49 C40 49.66 40 50.32 40 51 C40.886875 51.268125 41.77375 51.53625 42.6875 51.8125 C45.7909666 52.9250635 48.31110685 54.10195778 51 56 C51 56.66 51 57.32 51 58 C51.99 58 52.98 58 54 58 C53.67 59.32 53.34 60.64 53 62 C52.41734375 61.74605469 51.8346875 61.49210937 51.234375 61.23046875 C29.96880345 52.30294107 6.69865147 52.29458853 -16 51 C-17.50626953 50.90887939 -17.50626953 50.90887939 -19.04296875 50.81591797 C-32.23358301 50.02796223 -45.41479781 49.89937628 -58.625 49.875 C-59.44042267 49.87232117 -60.25584534 49.86964233 -61.09597778 49.86688232 C-79.97034645 49.33628075 -79.97034645 49.33628075 -98.0625 53.75 C-98.72950928 54.01441895 -99.39651855 54.27883789 -100.08374023 54.55126953 C-103.23017544 55.80894044 -106.3342732 57.14662438 -109.4375 58.5078125 C-119.19023723 62.77463504 -119.19023723 62.77463504 -125 62 C-126 61 -126 61 -126.33984375 58.65234375 C-126 56 -126 56 -124.19140625 54.19140625 C-115.2449971 48.64808884 -105.874176 45.50751174 -95.91162109 42.33496094 C-82.39987941 38.0289155 -69.33787369 32.82118454 -56.25341797 27.35644531 C-53.31036308 26.12939946 -50.36132038 24.9183047 -47.41015625 23.7109375 C-33.31286145 17.87907182 -19.60689333 11.1441884 -6.40039062 3.49414062 C-5.59279297 3.02685547 -4.78519531 2.55957031 -3.953125 2.078125 C-3.23801758 1.6543457 -2.52291016 1.23056641 -1.78613281 0.79394531 C-1.19670898 0.53194336 -0.60728516 0.26994141 0 0 Z M49 13 C48.67 13.66 48.34 14.32 48 15 C48.99 14.67 49.98 14.34 51 14 C50.34 13.67 49.68 13.34 49 13 Z M11 22 C9.68 23.32 8.36 24.64 7 26 C10.96 27.98 10.96 27.98 15 30 C13.87548273 27.0280615 12.77706209 24.66559313 11 22 Z M38 21 C32.555 22.485 32.555 22.485 27 24 C29.6860286 25.79068573 31.6626589 26.66055791 34.6875 27.625 C35.89986328 28.01558594 35.89986328 28.01558594 37.13671875 28.4140625 C37.75160156 28.60742188 38.36648438 28.80078125 39 29 C38.67 27.35 38.34 25.7 38 24 C38.66 23.67 39.32 23.34 40 23 C39.34 22.34 38.68 21.68 38 21 Z M56 25 C56.33 25.99 56.66 26.98 57 28 C60.00847418 29.22520264 60.00847418 29.22520264 63 30 C63 28.68 63 27.36 63 26 C63.99 26 64.98 26 66 26 C66 25.34 66 24.68 66 24 C62.49064814 24 59.43515002 24.37542727 56 25 Z M77 28 C79.92824652 30.92824652 82.2979993 32.27239967 86 34 C86 32.35 86 30.7 86 29 C83.03 28.67 80.06 28.34 77 28 Z M-29.25 31.75 C-30.87893188 32.01635254 -30.87893188 32.01635254 -32.54077148 32.28808594 C-40.85727127 33.69550311 -48.9333363 35.53409305 -57 38 C-56.67 38.66 -56.34 39.32 -56 40 C-54.71838989 39.97607178 -54.71838989 39.97607178 -53.41088867 39.95166016 C-43.50976159 39.85051431 -33.73255318 40.38254586 -23.86499023 41.171875 C-21.30574617 41.37553746 -18.7457955 41.56724146 -16.18554688 41.7578125 C-8.19059343 42.37156806 -0.31832452 43.09053243 7.56567383 44.61962891 C10.08249523 45.01289014 12.45690041 45.06547777 15 45 C15 44.34 15 43.68 15 43 C14.45472656 42.86464844 13.90945312 42.72929688 13.34765625 42.58984375 C6.40523755 40.60799089 0.34335921 37.04284313 -4.31396484 31.41113281 C-9.84717241 26.78009607 -22.70582466 30.64908227 -29.25 31.75 Z M102 34 C104.48952921 36.66735273 106.63408134 38.55746343 110 40 C110.99 38.02 111.98 36.04 113 34 C109.37 34 105.74 34 102 34 Z M49 39 C49.66 40.32 50.32 41.64 51 43 C51.33 42.01 51.66 41.02 52 40 C51.01 39.67 50.02 39.34 49 39 Z M124 41 C125.98 41.99 125.98 41.99 128 43 C127.67 42.34 127.34 41.68 127 41 C126.01 41 125.02 41 124 41 Z M130 41 C130 42.32 130 43.64 130 45 C131.485 45.99 131.485 45.99 133 47 C133.66 45.02 134.32 43.04 135 41 C133.35 41 131.7 41 130 41 Z M96 47 C96.66 47.66 97.32 48.32 98 49 C98 48.34 98 47.68 98 47 C97.34 47 96.68 47 96 47 Z M168 47 C168 47.33 168 47.66 168 48 C170.31 48 172.62 48 175 48 C175 47.67 175 47.34 175 47 C172.69 47 170.38 47 168 47 Z M158 65 C159.65 66.65 161.3 68.3 163 70 C163.33 68.68 163.66 67.36 164 66 C161.03 65.505 161.03 65.505 158 65 Z " fill="#9CC36E" transform="translate(237,19)"/>
<path d="M0 0 C15.20928118 12.10534625 26.00128944 26.12564159 28.48828125 45.98046875 C30.00878952 66.04788136 26.65661976 84.91123412 13.4453125 100.828125 C1.39884669 114.07683291 -14.32020894 122.2264667 -32.34375 123.359375 C-52.49108666 124.08710099 -70.39350064 118.80585494 -85.51171875 104.98046875 C-98.76443552 92.41088171 -104.36377476 75.94520694 -104.97949219 58.06347656 C-105.20142892 39.41406559 -99.77307719 25.69501718 -88.51171875 10.98046875 C-87.89296875 10.12839844 -87.27421875 9.27632812 -86.63671875 8.3984375 C-79.95486705 0.79537463 -68.86271918 -3.71109986 -59.51171875 -7.01953125 C-58.63902344 -7.35082031 -57.76632812 -7.68210937 -56.8671875 -8.0234375 C-39.91199987 -13.43260323 -14.5727707 -10.37121314 0 0 Z M-62.51171875 13.98046875 C-74.22627316 34.16121859 -75.21525314 59.71793025 -69.51171875 81.98046875 C-65.83003219 94.14831228 -60.04239506 105.67726075 -48.5390625 112.078125 C-41.999552 114.87334321 -35.56084618 115.05353157 -28.94921875 112.41796875 C-18.10998904 107.01723757 -11.84861645 98.20746771 -7.76171875 87.04296875 C-1.06070027 66.26902527 -0.93627229 39.89668513 -10.421875 20.06640625 C-15.28559715 10.75734666 -20.64213703 3.21600777 -30.90625 -0.35546875 C-44.62986066 -3.85324058 -54.67526697 2.97640906 -62.51171875 13.98046875 Z " fill="#3E8B3C" transform="translate(523.51171875,119.01953125)"/>
<path d="M0 0 C1.3948613 0.00303635 1.3948613 0.00303635 2.81790161 0.00613403 C4.2787468 0.00350555 4.2787468 0.00350555 5.769104 0.00082397 C9.0054398 -0.00359642 12.24172146 -0.00065589 15.47805786 0.00271606 C17.71625784 0.00204308 19.95445774 0.0010731 22.19265747 -0.00018311 C26.89033705 -0.00166033 31.58799766 0.00049528 36.28567505 0.00515747 C42.322164 0.01085477 48.3586085 0.0075759 54.39509583 0.00158501 C59.01887347 -0.00201993 63.6426405 -0.00088233 68.26641846 0.0017128 C70.49287928 0.00238225 72.71934106 0.001553 74.94580078 -0.00076675 C78.05163141 -0.00329218 81.15738896 0.00054576 84.26321411 0.00613403 C85.19312164 0.0041098 86.12302917 0.00208557 87.08111572 0 C93.4262956 0.0212663 93.4262956 0.0212663 94.54055786 1.13552856 C94.64038844 3.12309884 94.67136539 5.11420376 94.67337036 7.10427856 C94.67465942 8.31470825 94.67594849 9.52513794 94.67727661 10.77224731 C94.67340942 12.04713013 94.66954224 13.32201294 94.66555786 14.63552856 C94.66942505 15.91041138 94.67329224 17.18529419 94.67727661 18.49880981 C94.67598755 19.7092395 94.67469849 20.91966919 94.67337036 22.16677856 C94.67224243 23.28632935 94.6711145 24.40588013 94.66995239 25.55935669 C94.54055786 28.13552856 94.54055786 28.13552856 93.54055786 29.13552856 C90.85305786 29.76052856 90.85305786 29.76052856 87.54055786 29.13552856 C85.85510054 27.04574321 84.55400217 24.82528204 83.16946411 22.52615356 C78.40006005 15.52645265 70.37319569 11.94884559 62.35305786 10.01052856 C53.82233958 8.72633441 45.15663105 8.56633222 36.54055786 8.13552856 C36.54055786 26.28552856 36.54055786 44.43552856 36.54055786 63.13552856 C58.53577599 61.9850413 58.53577599 61.9850413 75.77493286 50.52615356 C77.54055786 49.13552856 77.54055786 49.13552856 83.54055786 49.13552856 C83.54055786 60.68552856 83.54055786 72.23552856 83.54055786 84.13552856 C81.89055786 84.46552856 80.24055786 84.79552856 78.54055786 85.13552856 C76.22805786 83.01052856 76.22805786 83.01052856 73.54055786 80.13552856 C65.08960242 73.34317186 55.13860877 72.07488922 44.63040161 71.55740356 C43.45858337 71.49432007 43.45858337 71.49432007 42.26309204 71.42996216 C40.35578891 71.32785033 38.44819836 71.2311309 36.54055786 71.13552856 C36.60961315 76.43790638 36.69766607 81.73950902 36.80300903 87.04129028 C36.83617559 88.84328585 36.86423311 90.64538324 36.88699341 92.44754028 C36.92069218 95.04449679 36.97301435 97.64052722 37.02883911 100.23709106 C37.03522903 101.03732697 37.04161896 101.83756287 37.04820251 102.66204834 C37.19481899 108.29389639 38.12318402 112.80151244 42.35305786 116.88552856 C44.98835289 118.39141144 47.63576596 119.27729459 50.54055786 120.13552856 C50.58310142 122.13507602 50.58136569 124.13594493 50.54055786 126.13552856 C48.83490168 127.84118474 46.63322291 127.26304912 44.30227661 127.2649231 C43.18441772 127.26807526 42.06655884 127.27122742 40.91482544 127.2744751 C39.69819214 127.27245087 38.48155884 127.27042664 37.22805786 127.26834106 C35.98886597 127.26929779 34.74967407 127.27025452 33.47293091 127.27124023 C30.84667506 127.2719223 28.22051153 127.27056394 25.5942688 127.26589966 C22.22127072 127.26020237 18.84835221 127.26348159 15.47535706 127.26947212 C12.2679211 127.27394627 9.06049486 127.27081739 5.85305786 127.26834106 C4.63642456 127.2703653 3.41979126 127.27238953 2.16629028 127.2744751 C0.48950195 127.26974686 0.48950195 127.26974686 -1.22116089 127.2649231 C-2.21075806 127.2641275 -3.20035522 127.26333191 -4.21994019 127.26251221 C-6.45944214 127.13552856 -6.45944214 127.13552856 -7.45944214 126.13552856 C-7.50037151 123.80255423 -7.50185937 121.46847632 -7.45944214 119.13552856 C-6.22194214 118.90865356 -4.98444214 118.68177856 -3.70944214 118.44802856 C-0.61827192 117.66019049 0.52568874 117.14887265 2.97805786 114.94802856 C6.0876965 109.35067901 5.6925802 102.81654799 5.70169067 96.55740356 C5.70665558 95.72881836 5.71162048 94.90023315 5.71673584 94.04653931 C5.73125132 91.32619374 5.73813982 88.60590637 5.74368286 85.88552856 C5.74651024 84.95188477 5.74933762 84.01824097 5.75225067 83.05630493 C5.76719639 78.12047038 5.77645638 73.18466474 5.78079224 68.24880981 C5.78628581 63.16135181 5.81034571 58.07416022 5.83876419 52.98678589 C5.85741373 49.06276682 5.86259729 45.13881184 5.86412811 41.2147522 C5.86714734 39.3393304 5.87515115 37.46390953 5.88831329 35.58853149 C5.90543068 32.96336657 5.90348034 30.33885215 5.89700317 27.71365356 C5.91082535 26.56165466 5.91082535 26.56165466 5.92492676 25.38638306 C5.88082894 19.66052418 4.94537089 14.54034159 0.72805786 10.32302856 C-1.91621546 8.88756591 -4.57851962 7.98671022 -7.45944214 7.13552856 C-7.5019857 5.1359811 -7.50024997 3.1351122 -7.45944214 1.13552856 C-5.51862806 -0.80528552 -2.58329235 0.00865808 0 0 Z " fill="#3E8B3D" transform="translate(90.45944213867188,111.86447143554688)"/>
<path d="M0 0 C0.33 0 0.66 0 1 0 C1.02465622 4.25414623 1.04283899 8.50825498 1.05493164 12.76245117 C1.05997101 14.21070073 1.06680253 15.65894517 1.07543945 17.10717773 C1.08752247 19.18474588 1.09323211 21.26224697 1.09765625 23.33984375 C1.10289307 24.59144287 1.10812988 25.84304199 1.11352539 27.13256836 C1 30 1 30 0 31 C-2.328125 31.3515625 -2.328125 31.3515625 -5 31 C-6.921875 29.0234375 -6.921875 29.0234375 -8.75 26.375 C-16.74626848 15.89100355 -25.15389219 13.51336892 -38 11 C-44.27 10.67 -50.54 10.34 -57 10 C-57 28.15 -57 46.3 -57 65 C-36.63036592 64.07974477 -36.63036592 64.07974477 -19.75 54.25 C-19.29753906 53.64671875 -18.84507812 53.0434375 -18.37890625 52.421875 C-17 51 -17 51 -13.6875 50.5 C-11 51 -11 51 -10 52 C-9.89912788 54.50924153 -9.86027968 56.99036384 -9.8671875 59.5 C-9.86623077 60.25087891 -9.86527405 61.00175781 -9.86428833 61.77539062 C-9.86360662 63.36588627 -9.86546028 64.95638467 -9.86962891 66.546875 C-9.87497733 68.98964655 -9.86968366 71.43223421 -9.86328125 73.875 C-9.86394203 75.41666707 -9.8652232 76.95833403 -9.8671875 78.5 C-9.86516327 79.23541016 -9.86313904 79.97082031 -9.86105347 80.72851562 C-9.88504839 85.88504839 -9.88504839 85.88504839 -11 87 C-13.25 87.4375 -13.25 87.4375 -16 87 C-17.16445971 85.56937807 -18.3229224 84.13292734 -19.43359375 82.66015625 C-26.86504983 74.78392474 -38.70377247 73.99695811 -48.80859375 73.453125 C-49.59713745 73.40881348 -50.38568115 73.36450195 -51.19812012 73.31884766 C-53.13196415 73.21047624 -55.06596741 73.10495267 -57 73 C-56.930958 78.44478172 -56.84291113 83.88880758 -56.73754883 89.33300781 C-56.70437704 91.18350819 -56.67632113 93.03410786 -56.65356445 94.88476562 C-56.6198755 97.55121003 -56.5675534 100.2167509 -56.51171875 102.8828125 C-56.50532883 103.70492218 -56.4989389 104.52703186 -56.49235535 105.37405396 C-56.36782684 110.28341051 -55.73190713 113.75584584 -53 118 C-50.56378547 119.54911332 -50.56378547 119.54911332 -47.8125 120.375 C-46.46091797 120.85066406 -46.46091797 120.85066406 -45.08203125 121.3359375 C-44.39496094 121.55507812 -43.70789063 121.77421875 -43 122 C-42.95745644 123.99954746 -42.95919217 126.00041636 -43 128 C-45.88186663 130.88186663 -53.94324571 129.50013144 -58 129.625 C-58.69152161 129.64745789 -59.38304321 129.66991577 -60.09552002 129.6930542 C-69.87058062 129.99984141 -79.59916025 130.02221571 -89.375 129.625 C-90.4371875 129.58197754 -91.499375 129.53895508 -92.59375 129.49462891 C-99.86021689 129.13978311 -99.86021689 129.13978311 -101 128 C-101.04092937 125.66702567 -101.04241723 123.33294775 -101 121 C-100.38511719 120.84144531 -99.77023438 120.68289062 -99.13671875 120.51953125 C-93.97956727 119.08586652 -93.97956727 119.08586652 -90 115.6875 C-87.9289969 110.12167918 -87.84750333 104.51972595 -87.83886719 98.64306641 C-87.83390228 97.82598709 -87.82893738 97.00890778 -87.82382202 96.16706848 C-87.80928143 93.47855776 -87.80241271 90.79010599 -87.796875 88.1015625 C-87.79111779 86.22358195 -87.78536013 84.3456014 -87.77960205 82.46762085 C-87.76911576 78.53537728 -87.76325729 74.60315401 -87.75976562 70.67089844 C-87.75427957 65.64516357 -87.73023907 60.61969943 -87.70179367 55.59404945 C-87.68312537 51.71631089 -87.6779595 47.83863709 -87.67642975 43.96085739 C-87.67341322 42.10859062 -87.66541864 40.25632471 -87.65224457 38.40410233 C-87.63509268 35.80776861 -87.63708619 33.21209082 -87.64355469 30.61572266 C-87.6343399 29.85909836 -87.62512512 29.10247406 -87.6156311 28.32292175 C-87.66108103 22.46715483 -88.58357342 16.49975163 -92.8125 12.125 C-95.46654362 10.76006328 -98.14106665 9.84468485 -101 9 C-101 6.69 -101 4.38 -101 2 C-99.74941299 1.98969254 -98.49882599 1.97938507 -97.21034241 1.96876526 C-85.45240313 1.87121298 -73.69451894 1.76849664 -61.93666935 1.66066074 C-55.89114817 1.60538258 -49.8456222 1.5519549 -43.80004883 1.50268555 C-37.97101411 1.455114 -32.1420403 1.40277409 -26.31307793 1.34705925 C-24.0838414 1.32660291 -21.85458814 1.30789539 -19.62532234 1.29092598 C-16.51455736 1.26695429 -13.40390871 1.23689022 -10.29321289 1.20532227 C-9.36173431 1.1995668 -8.43025574 1.19381134 -7.47055054 1.18788147 C-3.41228147 1.54957733 -3.41228147 1.54957733 0 0 Z " fill="#3E8B3C" transform="translate(290,110)"/>
<path d="M0 0 C14.81616438 1.49332882 30.96920605 5.99102559 42.87890625 15.234375 C45.59360937 18.77398791 45.57787233 21.54612949 45.3125 25.8125 C45.28994141 26.50537109 45.26738281 27.19824219 45.24414062 27.91210938 C45.18562661 29.60901573 45.0959548 31.30479861 45 33 C41.60546875 32.671875 41.60546875 32.671875 38 32 C36.3125 29.25 36.3125 29.25 35 26 C29.49368369 18.24221213 20.33140642 12.83952456 11 11 C0.4700701 9.86262081 -8.56712596 12.68216718 -17 19 C-27.22213216 27.98588152 -32.8933071 40.59320605 -34 54 C-34.06413086 54.66515625 -34.12826172 55.3303125 -34.19433594 56.015625 C-36.15230545 76.85066896 -33.83625217 96.23260047 -20.34375 113.06640625 C-14.45669894 119.49495494 -6.7482395 123.51398669 2 124 C3.258125 124.0825 4.51625 124.165 5.8125 124.25 C14.63159736 124.07974716 22.26519304 120.55022629 29 115 C30.79045664 113.07416737 32.37343673 111.07017143 34 109 C34.66 109 35.32 109 36 109 C36.268125 108.113125 36.53625 107.22625 36.8125 106.3125 C37.92470128 103.21004381 39.24829771 100.77352862 41 98 C41.28875 97.2575 41.5775 96.515 41.875 95.75 C43 94 43 94 45.625 93.25 C46.40875 93.1675 47.1925 93.085 48 93 C49.41961143 97.25883428 49.38514448 101.34908674 49.5 105.8125 C49.58121094 107.14764648 49.58121094 107.14764648 49.6640625 108.50976562 C49.79806553 114.96584009 49.79806553 114.96584009 47.4765625 117.97412109 C42.91744677 122 42.91744677 122 40 122 C40 122.66 40 123.32 40 124 C18.01464689 133.71507734 -3.73008878 138.09169699 -27 130 C-43.73225964 123.31500738 -55.8655084 111.42300059 -63.30078125 95.16796875 C-69.79353544 79.91967396 -70.6052275 59.64949422 -65 44 C-60.95400524 33.95825521 -55.98593082 25.44996231 -48 18 C-46.87851562 16.92492187 -46.87851562 16.92492187 -45.734375 15.828125 C-33.98292322 5.47750853 -18.8741116 2.11091605 -3.625 1.24609375 C-1.07604249 1.28871512 -1.07604249 1.28871512 0 0 Z " fill="#3E8A3D" transform="translate(364,108)"/>
<path d="M0 0 C1.68526291 0.03541649 1.68526291 0.03541649 3.40457153 0.07154846 C6.98078927 0.14790915 10.55677526 0.23205215 14.1328125 0.31640625 C16.56248879 0.36965455 18.99217627 0.42239475 21.421875 0.47460938 C27.3673298 0.60348686 33.3126135 0.73874843 39.2578125 0.87890625 C39.2578125 3.51890625 39.2578125 6.15890625 39.2578125 8.87890625 C37.27213542 9.26953125 35.28645833 9.66015625 33.30078125 10.05078125 C30.60023414 11.14545809 29.81666912 12.43263871 28.2578125 14.87890625 C25.35020095 24.48852577 25.94762115 35.04203179 25.95703125 44.98046875 C25.95313423 46.71056214 25.94879753 48.44065459 25.94404602 50.17074585 C25.93663137 53.7762972 25.93684155 57.38175053 25.94213867 60.98730469 C25.94794589 65.58448419 25.93094897 70.18126243 25.907794 74.77837563 C25.89299862 78.34394637 25.8921925 81.90942154 25.89530373 85.47501755 C25.89479405 87.16932346 25.88962364 88.86363522 25.87949181 90.55791092 C25.59366949 103.56139453 25.59366949 103.56139453 29.2578125 115.87890625 C32.34483391 118.55974063 35.2477269 119.30603688 39.2578125 119.87890625 C39.2578125 122.51890625 39.2578125 125.15890625 39.2578125 127.87890625 C32.10482062 128.07292746 24.95155325 128.25023326 17.79785156 128.41601562 C15.36513936 128.47435405 12.93251521 128.53649497 10.5 128.60253906 C7.0001631 128.69689741 3.50023572 128.77750167 0 128.85546875 C-1.62689255 128.90376328 -1.62689255 128.90376328 -3.28665161 128.95303345 C-8.52683911 129.05660346 -12.84772288 129.04192003 -17.7421875 126.87890625 C-17.7421875 124.56890625 -17.7421875 122.25890625 -17.7421875 119.87890625 C-17.12730469 119.72035156 -16.51242188 119.56179687 -15.87890625 119.3984375 C-10.72175477 117.96477277 -10.72175477 117.96477277 -6.7421875 114.56640625 C-4.6839846 109.03498595 -4.58976329 103.47052475 -4.58105469 97.62963867 C-4.57608978 96.82391922 -4.57112488 96.01819977 -4.56600952 95.18806458 C-4.55146914 92.53682586 -4.54459978 89.88564695 -4.5390625 87.234375 C-4.53482143 85.86937583 -4.53482143 85.86937583 -4.53049469 84.47680092 C-4.5155354 79.66185849 -4.50628516 74.84694578 -4.50195312 70.03198242 C-4.49647101 65.07584642 -4.47243908 60.11998549 -4.44398117 55.16393566 C-4.42529552 51.33676881 -4.42014606 47.50966748 -4.41861725 43.68245888 C-4.41560396 41.85613818 -4.40762051 40.02981827 -4.39443207 38.20354271 C-4.37724574 35.64093848 -4.37928209 33.07899697 -4.38574219 30.51635742 C-4.37192001 29.40084 -4.37192001 29.40084 -4.3578186 28.26278687 C-4.40506003 22.23591743 -5.30607888 15.48302236 -9.5546875 10.94140625 C-12.21932481 9.64715384 -14.90329839 8.71766894 -17.7421875 7.87890625 C-17.7421875 5.56890625 -17.7421875 3.25890625 -17.7421875 0.87890625 C-11.83014589 -0.44528407 -6.01404191 -0.1499085 0 0 Z " fill="#3E8C3C" transform="translate(39.7421875,111.12109375)"/>
<path d="M0 0 C0.99 0.495 0.99 0.495 2 1 C0.4656691 5.19573204 -2.24587507 6.8626231 -5.875 9.3125 C-6.45000244 9.70203857 -7.02500488 10.09157715 -7.61743164 10.49291992 C-12.41787074 13.70568815 -17.36772185 16.63368595 -22.38671875 19.4921875 C-25.35718715 21.20609005 -28.18449868 23.04479075 -31 25 C-30.44054687 24.91621094 -29.88109375 24.83242188 -29.3046875 24.74609375 C-21.77090297 23.78923044 -14.54228746 24.29358979 -7 25 C-6.72542969 24.26910156 -6.45085937 23.53820312 -6.16796875 22.78515625 C-3.61368709 16.69417691 -0.16765166 10.65795803 5.921875 7.640625 C10.17071593 6.33083193 14.57979982 6.15986257 19 6 C19.33 6.99 19.66 7.98 20 9 C18.68 9.66 17.36 10.32 16 11 C16.33 11.99 16.66 12.98 17 14 C16.34 14 15.68 14 15 14 C14.67 16.31 14.34 18.62 14 21 C14.66 21 15.32 21 16 21 C15.67 22.32 15.34 23.64 15 25 C15.66 25.33 16.32 25.66 17 26 C16.34 26 15.68 26 15 26 C14.67 26.66 14.34 27.32 14 28 C13.01 26.35 12.02 24.7 11 23 C9.68 23.66 8.36 24.32 7 25 C6.67 23.68 6.34 22.36 6 21 C1.01256118 22.27585644 -1.65862518 24.08581807 -5 28 C-5.495 29.485 -5.495 29.485 -6 31 C-6.65121826 30.97969727 -7.30243652 30.95939453 -7.97338867 30.93847656 C-15.2542084 30.8121115 -22.13962313 31.54778621 -29.3125 32.75 C-30.40103271 32.92756836 -31.48956543 33.10513672 -32.61108398 33.28808594 C-40.6057919 34.64265716 -48.30421008 36.41179158 -56 39 C-52.7 39 -49.4 39 -46 39 C-46.33 39.99 -46.66 40.98 -47 42 C-47.99 42 -48.98 42 -50 42 C-50.33 42.99 -50.66 43.98 -51 45 C-51.66 45 -52.32 45 -53 45 C-53 45.66 -53 46.32 -53 47 C-52.34628418 46.99476318 -51.69256836 46.98952637 -51.01904297 46.98413086 C-34.06870235 46.86639946 -17.781637 47.37308722 -1 50 C-0.505 49.01 -0.505 49.01 0 48 C1.010625 48.350625 2.02125 48.70125 3.0625 49.0625 C6.92337378 50.1892448 10.05394586 49.80531717 14 49 C14 48.34 14 47.68 14 47 C20.23071051 45.92105816 25.31462308 46.25381631 31.5 47.4375 C32.32242188 47.58509766 33.14484375 47.73269531 33.9921875 47.88476562 C35.99670608 48.24604514 37.99865397 48.62154033 40 49 C40 49.66 40 50.32 40 51 C40.886875 51.268125 41.77375 51.53625 42.6875 51.8125 C45.7909666 52.9250635 48.31110685 54.10195778 51 56 C51 56.66 51 57.32 51 58 C51.99 58 52.98 58 54 58 C53.67 59.32 53.34 60.64 53 62 C52.41734375 61.74605469 51.8346875 61.49210937 51.234375 61.23046875 C29.96880345 52.30294107 6.69865147 52.29458853 -16 51 C-17.50626953 50.90887939 -17.50626953 50.90887939 -19.04296875 50.81591797 C-32.23358301 50.02796223 -45.41479781 49.89937628 -58.625 49.875 C-59.44042267 49.87232117 -60.25584534 49.86964233 -61.09597778 49.86688232 C-79.97034645 49.33628075 -79.97034645 49.33628075 -98.0625 53.75 C-98.72950928 54.01441895 -99.39651855 54.27883789 -100.08374023 54.55126953 C-103.23017544 55.80894044 -106.3342732 57.14662438 -109.4375 58.5078125 C-119.19023723 62.77463504 -119.19023723 62.77463504 -125 62 C-126 61 -126 61 -126.33984375 58.65234375 C-126 56 -126 56 -124.19140625 54.19140625 C-115.2449971 48.64808884 -105.874176 45.50751174 -95.91162109 42.33496094 C-82.39987941 38.0289155 -69.33787369 32.82118454 -56.25341797 27.35644531 C-53.31036308 26.12939946 -50.36132038 24.9183047 -47.41015625 23.7109375 C-33.31286145 17.87907182 -19.60689333 11.1441884 -6.40039062 3.49414062 C-5.59279297 3.02685547 -4.78519531 2.55957031 -3.953125 2.078125 C-3.23801758 1.6543457 -2.52291016 1.23056641 -1.78613281 0.79394531 C-1.19670898 0.53194336 -0.60728516 0.26994141 0 0 Z " fill="#9DC471" transform="translate(237,19)"/>
<path d="M0 0 C0.92683594 0.14759766 1.85367188 0.29519531 2.80859375 0.44726562 C5.08223235 0.81057901 7.35409619 1.1825297 9.625 1.5625 C9.625 2.2225 9.625 2.8825 9.625 3.5625 C10.511875 3.830625 11.39875 4.09875 12.3125 4.375 C15.4159666 5.4875635 17.93610685 6.66445778 20.625 8.5625 C20.625 9.2225 20.625 9.8825 20.625 10.5625 C21.615 10.5625 22.605 10.5625 23.625 10.5625 C23.295 11.8825 22.965 13.2025 22.625 14.5625 C22.04234375 14.30855469 21.4596875 14.05460937 20.859375 13.79296875 C-0.40619655 4.86544107 -23.67634853 4.85708853 -46.375 3.5625 C-47.88126953 3.47137939 -47.88126953 3.47137939 -49.41796875 3.37841797 C-62.60858301 2.59046223 -75.78979781 2.46187628 -89 2.4375 C-89.81542267 2.43482117 -90.63084534 2.43214233 -91.47097778 2.42938232 C-109.89406342 1.81600451 -109.89406342 1.81600451 -127.5 6.125 C-133.1483711 8.5625 -133.1483711 8.5625 -136.375 8.5625 C-136.375 7.9025 -136.375 7.2425 -136.375 6.5625 C-135.53195313 6.21316406 -134.68890625 5.86382812 -133.8203125 5.50390625 C-132.72460938 5.04886719 -131.62890625 4.59382813 -130.5 4.125 C-128.86417969 3.44630859 -128.86417969 3.44630859 -127.1953125 2.75390625 C-125.56941376 2.06706537 -123.95368226 1.35184113 -122.375 0.5625 C-110.99294135 -1.0798474 -99.26595748 -0.58965003 -87.80102539 -0.56787109 C-84.44868434 -0.56251786 -81.09647757 -0.56783849 -77.74414062 -0.57421875 C-64.23686571 -0.5790443 -50.88058347 -0.42304849 -37.5 1.625 C-36.32695312 1.80160156 -35.15390625 1.97820312 -33.9453125 2.16015625 C-33.09710938 2.29292969 -32.24890625 2.42570312 -31.375 2.5625 C-31.045 1.9025 -30.715 1.2425 -30.375 0.5625 C-29.364375 0.913125 -28.35375 1.26375 -27.3125 1.625 C-23.45162622 2.7517448 -20.32105414 2.36781717 -16.375 1.5625 C-16.375 0.9025 -16.375 0.2425 -16.375 -0.4375 C-10.66888118 -1.86876901 -5.69240985 -0.95414858 0 0 Z " fill="#9CC276" transform="translate(267.375,66.4375)"/>
<path d="M0 0 C1.78857422 0.44859375 1.78857422 0.44859375 3.61328125 0.90625 C11.29051503 2.61330374 19.14229503 3.11873262 26.95898438 3.85546875 C28.16232422 3.97535156 29.36566406 4.09523438 30.60546875 4.21875 C31.68981201 4.32123047 32.77415527 4.42371094 33.89135742 4.52929688 C37.10407096 5.01575817 39.95339259 5.88558985 43 7 C42.67 7.66 42.34 8.32 42 9 C37.38 9 32.76 9 28 9 C28 9.66 28 10.32 28 11 C28.71115967 11.13140381 29.42231934 11.26280762 30.1550293 11.39819336 C33.00545799 12.00115455 35.73506245 12.77334321 38.51953125 13.62890625 C40.0519043 14.09780273 40.0519043 14.09780273 41.61523438 14.57617188 C42.67033203 14.90166016 43.72542969 15.22714844 44.8125 15.5625 C45.88693359 15.89185547 46.96136719 16.22121094 48.06835938 16.56054688 C50.71290985 17.37154236 53.35675437 18.18476372 56 19 C56 20.32 56 21.64 56 23 C53.37461716 22.85946128 50.74982573 22.71281053 48.125 22.5625 C47.37863281 22.52318359 46.63226563 22.48386719 45.86328125 22.44335938 C40.2265625 22.11328125 40.2265625 22.11328125 38 21 C38 19.68 38 18.36 38 17 C28.16600283 13.75340288 28.16600283 13.75340288 18 12 C18 11.01 18 10.02 18 9 C17.01 9.66 16.02 10.32 15 11 C12.66800612 11.07905064 10.33167378 11.08798769 8 11 C8.33 10.01 8.66 9.02 9 8 C8.71195826 5.7543576 8.71195826 5.7543576 7 4 C4.30025624 3.32918791 1.79756106 3.18048781 -1 3 C-0.67 2.01 -0.34 1.02 0 0 Z " fill="#A5C47F" transform="translate(377,48)"/>
<path d="M0 0 C1.48345947 0.99876404 1.48345947 0.99876404 3 3 C3.25656452 5.753269 3.33079682 8.27082289 3.26464844 11.01977539 C3.25693924 11.83630081 3.24923004 12.65282623 3.24128723 13.49409485 C3.21198958 16.1956897 3.16095766 18.8964022 3.109375 21.59765625 C3.08387889 23.47186232 3.05958237 25.34608507 3.03643799 27.22032166 C2.98484973 31.14879058 2.92333851 35.07693173 2.85400391 39.00512695 C2.76513062 44.04810068 2.69368168 49.09112093 2.62871933 54.13445377 C2.56603089 58.93478344 2.49409985 63.73496237 2.421875 68.53515625 C2.40892143 69.45540148 2.39596786 70.37564671 2.38262177 71.32377815 C2.34453294 73.91917525 2.29981163 76.51436787 2.25292969 79.10961914 C2.24246109 79.88317749 2.23199249 80.65673584 2.22120667 81.45373535 C2.11471745 86.77056509 2.11471745 86.77056509 1 89 C1.0825 89.928125 1.165 90.85625 1.25 91.8125 C1 95 1 95 -1.125 97.75 C-4.06762022 100.05292017 -6.40406836 101.08011051 -10 102 C-9.21625 101.236875 -8.4325 100.47375 -7.625 99.6875 C-1.4967608 93.41335034 -1.85508797 86.60197716 -1.81054688 78.32666016 C-1.80225357 77.48843719 -1.79396027 76.65021423 -1.78541565 75.78659058 C-1.76810728 73.97894735 -1.75291596 72.17128284 -1.73963928 70.3636055 C-1.71850764 67.50629246 -1.69149919 64.6490877 -1.66296387 61.7918396 C-1.5933513 54.70360758 -1.53356826 47.61529943 -1.47393799 40.52697754 C-1.42309427 34.52125567 -1.36833556 28.51559564 -1.30812073 22.50996017 C-1.28148163 19.68859417 -1.26071562 16.8672225 -1.2401123 14.04580688 C-1.22352035 12.32952594 -1.2066495 10.61324765 -1.18945312 8.89697266 C-1.18526871 8.10740173 -1.18108429 7.31783081 -1.17677307 6.5043335 C-1.11385825 1.11385825 -1.11385825 1.11385825 0 0 Z " fill="#4A8347" transform="translate(98,130)"/>
<path d="M0 0 C5.46428571 0.60714286 5.46428571 0.60714286 7.875 2.375 C9 4 9 4 9 7 C8.34 7 7.68 7 7 7 C7.15597656 7.65226563 7.31195313 8.30453125 7.47265625 8.9765625 C7.76462891 10.28753906 7.76462891 10.28753906 8.0625 11.625 C8.25972656 12.48351562 8.45695313 13.34203125 8.66015625 14.2265625 C9 17 9 17 8.51367188 19.6940918 C7.93781669 23.4002016 7.97473619 26.93831697 8.12109375 30.66796875 C8.17013255 32.20060068 8.21912123 33.73323422 8.26806641 35.26586914 C8.29588196 36.06832062 8.32369751 36.87077209 8.35235596 37.69754028 C8.84092992 51.98543927 9.11453892 66.26638731 9.125 80.5625 C9.12740692 81.31147552 9.12981384 82.06045105 9.1322937 82.8321228 C9.1381784 84.95193058 9.13686008 87.07159674 9.1328125 89.19140625 C9.13168457 90.38967041 9.13055664 91.58793457 9.12939453 92.82250977 C9.01292619 95.6825767 8.59008005 98.21045078 8 101 C8 102.32 8 103.64 8 105 C5 107.25 5 107.25 2 109 C1.34 108.67 0.68 108.34 0 108 C0.47086186 107.59046805 0.94172373 107.18093611 1.42685413 106.7589941 C5.78571424 101.88518717 5.29518519 93.51578301 5.2746582 87.30249023 C5.27976913 86.48497284 5.28488007 85.66745544 5.29014587 84.82516479 C5.30391956 82.15289768 5.30309494 79.48089189 5.30078125 76.80859375 C5.30467382 74.93489996 5.30900963 73.06120705 5.31376648 71.18751526 C5.32120158 67.27317433 5.32095635 63.35892366 5.31567383 59.44458008 C5.30987113 54.44244758 5.32684273 49.44068439 5.3500185 44.43861294 C5.36478502 40.57373415 5.36562377 36.70894383 5.36250877 32.84404182 C5.36302013 31.00015593 5.36822284 29.15626485 5.37832069 27.31240654 C5.39072997 24.73073469 5.38386776 22.14977662 5.37231445 19.56811523 C5.37995819 18.81620407 5.38760193 18.06429291 5.39547729 17.28959656 C5.33103343 10.7371403 3.67848989 5.51773484 0 0 Z " fill="#498247" transform="translate(197,121)"/>
<path d="M0 0 C0.66 0.33 1.32 0.66 2 1 C0.4656691 5.19573204 -2.24587507 6.8626231 -5.875 9.3125 C-6.45000244 9.70131348 -7.02500488 10.09012695 -7.61743164 10.49072266 C-13.25402131 14.25770079 -19.05341042 17.74413677 -25 21 C-26.02222656 21.60070312 -27.04445312 22.20140625 -28.09765625 22.8203125 C-29.05542969 23.20960937 -30.01320312 23.59890625 -31 24 C-32.34900007 23.36563336 -33.68329164 22.69892869 -35 22 C-37.71353035 22.81798382 -37.71353035 22.81798382 -40.4375 24.3125 C-44.0099998 26.12607779 -47.05642765 27.31004395 -51 28 C-51.66 28.350625 -52.32 28.70125 -53 29.0625 C-55.44989787 30.21088963 -57.32638335 30.14853426 -60 30 C-57.75642443 27.75642443 -56.05058991 27.07275104 -53.1171875 25.8984375 C-52.12259521 25.49488037 -51.12800293 25.09132324 -50.10327148 24.67553711 C-49.03794189 24.24635986 -47.9726123 23.81718262 -46.875 23.375 C-33.24047817 17.77801011 -20.31273679 11.64935764 -7.78100586 3.88061523 C-5.19541254 2.27973801 -2.89872934 0.96624311 0 0 Z " fill="#A3C87A" transform="translate(237,19)"/>
<path d="M0 0 C4.78834149 -0.27361951 8.19040403 0.58625315 12 3.5625 C13.94251058 5.16749171 13.94251058 5.16749171 16.5 5.5 C19.35106339 6.07021268 20.81021713 7.13462941 23 9 C23.33 8.01 23.66 7.02 24 6 C22.68 5.34 21.36 4.68 20 4 C20.94875 3.87625 21.8975 3.7525 22.875 3.625 C26.08667191 3.28312823 26.08667191 3.28312823 28 1 C28.42039551 1.45648926 28.84079102 1.91297852 29.27392578 2.38330078 C31.01385831 4.01298016 32.46542363 4.87342333 34.6171875 5.8671875 C35.30683594 6.19589844 35.99648438 6.52460937 36.70703125 6.86328125 C38.14293861 7.53337135 39.58042594 8.200087 41.01953125 8.86328125 C45.54540715 11.02929635 48.66073838 13.24169379 52 17 C50 18 50 18 48.07421875 17.43359375 C47.28660156 17.10488281 46.49898438 16.77617188 45.6875 16.4375 C44.80707031 16.07011719 43.92664063 15.70273438 43.01953125 15.32421875 C37.64120211 12.96554659 32.31438651 10.49892783 27 8 C27.4640625 9.3921875 27.4640625 9.3921875 27.9375 10.8125 C28.625 12.875 29.3125 14.9375 30 17 C29.01 17 28.02 17 27 17 C27 17.99 27 18.98 27 20 C26.34 20 25.68 20 25 20 C24.68933594 19.12859375 24.37867188 18.2571875 24.05859375 17.359375 C21.23628468 12.75370935 17.67899181 10.88486726 13.0625 8.25 C12.25103516 7.76917969 11.43957031 7.28835937 10.60351562 6.79296875 C7.12065438 4.74153776 3.63070558 2.77884661 0 1 C0 0.67 0 0.34 0 0 Z " fill="#A7C583" transform="translate(377,79)"/>
<path d="M0 0 C3.82243925 0.28668294 6.35972554 1.09733001 9.45703125 3.24609375 C14.70636557 6.61842626 20.37573372 8.66930338 26.1875 10.875 C36.31634939 14.81506196 45.92283876 18.94855918 55 25 C55 25.66 55 26.32 55 27 C49.71573915 26.48167123 45.79838647 25.18305975 41.0625 22.8125 C25.85772403 15.32444196 25.85772403 15.32444196 9.55078125 11.46484375 C8.70322266 11.37783203 7.85566406 11.29082031 6.98242188 11.20117188 C5.66081055 11.0706543 5.66081055 11.0706543 4.3125 10.9375 C3.41982422 10.84662109 2.52714844 10.75574219 1.60742188 10.66210938 C-0.59476265 10.43835801 -2.79721768 10.21777399 -5 10 C-5 9.67 -5 9.34 -5 9 C0.61 9 6.22 9 12 9 C10.49336217 5.98672434 7.96833589 5.38943382 5 4 C5 3.34 5 2.68 5 2 C3.35 1.67 1.7 1.34 0 1 C0 0.67 0 0.34 0 0 Z " fill="#A7C887" transform="translate(411,70)"/>
<path d="M0 0 C3.35234105 0.00535323 6.70454782 0.00003261 10.05688477 -0.00634766 C23.56415968 -0.0111732 36.92044192 0.1448226 50.30102539 2.19287109 C51.47407227 2.36947266 52.64711914 2.54607422 53.85571289 2.72802734 C54.70391602 2.86080078 55.55211914 2.99357422 56.42602539 3.13037109 C56.75602539 2.47037109 57.08602539 1.81037109 57.42602539 1.13037109 C61.05602539 2.12037109 64.68602539 3.11037109 68.42602539 4.13037109 C68.42602539 4.46037109 68.42602539 4.79037109 68.42602539 5.13037109 C64.40514115 4.98592209 60.38433105 4.83948969 56.36352539 4.69287109 C55.12707275 4.648479 53.89062012 4.60408691 52.61669922 4.55834961 C47.02491145 4.35393411 41.43534909 4.14349953 35.84790039 3.84130859 C23.49670561 3.18397499 11.16707552 3.02332839 -1.19897461 3.00537109 C-2.01403473 3.0027829 -2.82909485 3.0001947 -3.66885376 2.99752808 C-22.09247645 2.38384589 -22.09247645 2.38384589 -39.69897461 6.69287109 C-45.34734571 9.13037109 -45.34734571 9.13037109 -48.57397461 9.13037109 C-48.57397461 8.47037109 -48.57397461 7.81037109 -48.57397461 7.13037109 C-47.73092773 6.78103516 -46.88788086 6.43169922 -46.01928711 6.07177734 C-44.92358398 5.61673828 -43.82788086 5.16169922 -42.69897461 4.69287109 C-41.0631543 4.01417969 -41.0631543 4.01417969 -39.39428711 3.32177734 C-37.76838837 2.63493646 -36.15265687 1.91971222 -34.57397461 1.13037109 C-23.19191596 -0.51197631 -11.46493209 -0.02177893 0 0 Z " fill="#A9C885" transform="translate(179.573974609375,65.86962890625)"/>
<path d="M0 0 C0.33 0 0.66 0 1 0 C0.92998779 1.0830542 0.85997559 2.1661084 0.7878418 3.28198242 C-0.19092799 19.95871815 -0.18755808 36.63470626 -0.18530273 53.33374023 C-0.18519991 57.51487849 -0.19901662 61.6958515 -0.21607494 65.87695026 C-0.22721267 69.13444278 -0.22922164 72.39189493 -0.22869301 75.64940453 C-0.22986408 77.19185153 -0.23423613 78.73429989 -0.24202538 80.27672768 C-0.27668633 87.82635234 -0.07278818 94.70385138 2 102 C1.55769348 104.20307922 1.55769348 104.20307922 1 106 C-2.81995692 100.02093699 -3.1515311 95.40580924 -3.16113281 88.39526367 C-3.16609772 87.52810226 -3.17106262 86.66094086 -3.17617798 85.76750183 C-3.19077335 82.9009827 -3.19759724 80.03451892 -3.203125 77.16796875 C-3.20887862 75.17263284 -3.21463633 73.17729694 -3.22039795 71.18196106 C-3.23090047 66.9981765 -3.23674804 62.81441112 -3.24023438 58.63061523 C-3.24571746 53.27739856 -3.26974477 47.92443644 -3.29820633 42.57129955 C-3.31685704 38.44911465 -3.32203961 34.32699076 -3.32357025 30.20476723 C-3.32659181 28.23165813 -3.33460353 26.25854998 -3.34775543 24.28548241 C-3.36486671 21.52109949 -3.36292328 18.75733474 -3.35644531 15.99291992 C-3.3656601 15.18280457 -3.37487488 14.37268921 -3.3843689 13.5380249 C-3.34603912 8.29963411 -2.35795911 4.68799105 0 0 Z " fill="#4D864B" transform="translate(66,123)"/>
<path d="M0 0 C0.99 0 1.98 0 3 0 C6.57326972 5.35990459 6.14891432 11.25904594 6.14526367 17.5246582 C6.15030159 18.77712845 6.15030159 18.77712845 6.15544128 20.05490112 C6.16490679 22.80354315 6.16689222 25.55212396 6.16796875 28.30078125 C6.17118453 30.22120692 6.17454884 32.14163234 6.17805481 34.0620575 C6.18403518 38.08426481 6.18589585 42.10645067 6.18530273 46.12866211 C6.18520121 51.26633727 6.19884862 56.40387393 6.21607494 61.5415163 C6.227229 65.507651 6.22922089 69.47375258 6.22869301 73.43990135 C6.22986817 75.33319768 6.23426377 77.22649499 6.24202538 79.11977577 C6.25189363 81.77566675 6.24892038 84.4312618 6.24291992 87.0871582 C6.24853943 87.8588887 6.25415894 88.6306192 6.25994873 89.42573547 C6.2291273 94.83195554 5.35488703 99.77132716 4 105 C4.66 105.33 5.32 105.66 6 106 C5.16855469 106.39832031 5.16855469 106.39832031 4.3203125 106.8046875 C3.59585938 107.15789062 2.87140625 107.51109375 2.125 107.875 C1.40570313 108.22304687 0.68640625 108.57109375 -0.0546875 108.9296875 C-2.15135019 109.96557543 -2.15135019 109.96557543 -4 112 C-6.125 111.625 -6.125 111.625 -8 111 C-7.67 111.99 -7.34 112.98 -7 114 C-2.02246557 114.79516042 2.86080907 115.19353048 7.90234375 115.31640625 C8.98619102 115.3475779 8.98619102 115.3475779 10.0919342 115.37937927 C12.3737037 115.44415426 14.65557667 115.5034203 16.9375 115.5625 C18.49545291 115.60575397 20.0533958 115.64937031 21.61132812 115.69335938 C25.40744922 115.79976039 29.20367314 115.90122499 33 116 C33 116.33 33 116.66 33 117 C27.9833177 117.19309609 22.96640148 117.37168108 17.94873047 117.53710938 C16.24351314 117.59534104 14.53842398 117.65746654 12.83349609 117.72363281 C10.37621412 117.81830918 7.9188046 117.89875713 5.4609375 117.9765625 C4.70444916 118.00875885 3.94796082 118.0409552 3.16854858 118.0741272 C-1.31712035 118.19974825 -4.83890827 117.68630688 -9 116 C-9 113.69 -9 111.38 -9 109 C-8.38511719 108.84144531 -7.77023438 108.68289062 -7.13671875 108.51953125 C-1.97956727 107.08586652 -1.97956727 107.08586652 2 103.6875 C4.0582029 98.1560797 4.15242421 92.5916185 4.16113281 86.75073242 C4.16609772 85.94501297 4.17106262 85.13929352 4.17617798 84.30915833 C4.19071836 81.65791961 4.19758772 79.0067407 4.203125 76.35546875 C4.20736607 74.99046958 4.20736607 74.99046958 4.21169281 73.59789467 C4.2266521 68.78295224 4.23590234 63.96803953 4.24023438 59.15307617 C4.24571649 54.19694017 4.26974842 49.24107924 4.29820633 44.28502941 C4.31689198 40.45786256 4.32204144 36.63076123 4.32357025 32.80355263 C4.32658354 30.97723193 4.33456699 29.15091202 4.34775543 27.32463646 C4.36494176 24.76203223 4.36290541 22.20009072 4.35644531 19.63745117 C4.37026749 18.52193375 4.37026749 18.52193375 4.3843689 17.38388062 C4.33555221 11.15604526 2.78636951 5.57273902 0 0 Z " fill="#3F783E" transform="translate(31,122)"/>
<path d="M0 0 C0.82540283 0.00386719 1.65080566 0.00773437 2.5012207 0.01171875 C9.04825853 0.10368767 15.35140443 0.81957544 21.75 2.25 C22.245 3.735 22.245 3.735 22.75 5.25 C17.8 5.58 12.85 5.91 7.75 6.25 C7.255 4.27 7.255 4.27 6.75 2.25 C5.76 2.58 4.77 2.91 3.75 3.25 C1.74867081 3.25 -0.25279264 3.24812414 -2.25390625 3.21875 C-4.6723233 3.25661172 -6.89695668 3.71216153 -9.25 4.25 C-10.24 4.25 -11.23 4.25 -12.25 4.25 C-14.16169739 4.86971088 -16.05673201 5.54194617 -17.9375 6.25 C-19.42830078 6.806875 -19.42830078 6.806875 -20.94921875 7.375 C-21.70847656 7.66375 -22.46773438 7.9525 -23.25 8.25 C-23.25 9.57 -23.25 10.89 -23.25 12.25 C-25.26822917 11.95703125 -27.28645833 11.6640625 -29.3046875 11.37109375 C-31.33140667 11.0815703 -31.33140667 11.0815703 -33.25 12.25 C-33.37375 11.321875 -33.37375 11.321875 -33.5 10.375 C-34.06258459 8.06562433 -34.06258459 8.06562433 -36.3125 7 C-36.951875 6.7525 -37.59125 6.505 -38.25 6.25 C-37.59 5.59 -36.93 4.93 -36.25 4.25 C-35.26 4.58 -34.27 4.91 -33.25 5.25 C-31.58378384 5.28874921 -29.91605828 5.2950286 -28.25 5.25 C-29.57 5.58 -30.89 5.91 -32.25 6.25 C-31.92 6.91 -31.59 7.57 -31.25 8.25 C-27.10964269 7.40483532 -23.76917462 5.4982637 -20.078125 3.50390625 C-13.40901453 0.54702163 -7.19167088 -0.08201478 0 0 Z " fill="#A1C578" transform="translate(356.25,40.75)"/>
<path d="M0 0 C1.85772162 0.08984301 3.71247985 0.24611861 5.5625 0.4375 C7.08037109 0.59025391 7.08037109 0.59025391 8.62890625 0.74609375 C9.80259766 0.87177734 9.80259766 0.87177734 11 1 C11 1.66 11 2.32 11 3 C11.8971875 2.6596875 11.8971875 2.6596875 12.8125 2.3125 C13.8953125 2.1578125 13.8953125 2.1578125 15 2 C15.99 2.99 16.98 3.98 18 5 C12.72 4.67 7.44 4.34 2 4 C2.33 17.86 2.66 31.72 3 46 C0 44 0 44 -0.67919922 41.92285156 C-1.10794535 38.01649788 -1.14272131 34.16151902 -1.1328125 30.234375 C-1.13376923 29.4003717 -1.13472595 28.56636841 -1.13571167 27.70709229 C-1.13638997 25.95218836 -1.13456017 24.19728187 -1.13037109 22.44238281 C-1.1249908 19.74538622 -1.13034172 17.04855412 -1.13671875 14.3515625 C-1.13605844 12.64583296 -1.13477824 10.94010353 -1.1328125 9.234375 C-1.13483673 8.42401794 -1.13686096 7.61366089 -1.13894653 6.77874756 C-1.11496889 1.11496889 -1.11496889 1.11496889 0 0 Z " fill="#4A8649" transform="translate(125,179)"/>
<path d="M0 0 C-2.26308359 3.39462539 -3.15375534 3.95102418 -7 5 C-10.3125 4.625 -10.3125 4.625 -13 4 C-13 4.66 -13 5.32 -13 6 C-13.66 6.103125 -14.32 6.20625 -15 6.3125 C-18.83841009 7.19213564 -22.33096691 8.56969896 -26 10 C-25.01 11.485 -25.01 11.485 -24 13 C-25.32 13 -26.64 13 -28 13 C-28.33 13.66 -28.66 14.32 -29 15 C-27.02 15 -25.04 15 -23 15 C-23 14.34 -23 13.68 -23 13 C-20.69 13.33 -18.38 13.66 -16 14 C-20.6404308 18.06037695 -25.85576257 19.86385794 -31.9375 20.25 C-35 20 -35 20 -36 19 C-36.33984375 16.65234375 -36.33984375 16.65234375 -36 14 C-29.2338843 7.2338843 -18.81571639 4.46398145 -9.90380859 1.61865234 C-8.1271372 1.04131388 -6.36910762 0.40746125 -4.61328125 -0.23046875 C-2 -1 -2 -1 0 0 Z " fill="#A0BF79" transform="translate(147,61)"/>
<path d="M0 0 C0.33 0 0.66 0 1 0 C1 16.17 1 32.34 1 49 C6.94 48.67 12.88 48.34 19 48 C15.5253111 49.73734445 13.87252474 50.3335055 10.1875 50.6875 C9.37667969 50.77386719 8.56585938 50.86023438 7.73046875 50.94921875 C5 51 5 51 -2 50 C-2 34.16 -2 18.32 -2 2 C-1.34 2 -0.68 2 0 2 C0 1.34 0 0.68 0 0 Z " fill="#3F7444" transform="translate(232,126)"/>
<path d="M0 0 C0.66 0 1.32 0 2 0 C2.56286585 6.89510672 0.86171551 12.84636544 -1.02734375 19.4140625 C-1.89428973 22.61027298 -2.46884727 25.73652109 -3 29 C-3.33 29.66 -3.66 30.32 -4 31 C-4.66 30.67 -5.32 30.34 -6 30 C-6.12375 30.5775 -6.2475 31.155 -6.375 31.75 C-7.00648824 34.02335767 -7.88858191 35.9253529 -9 38 C-9.66 38 -10.32 38 -11 38 C-11.04125 38.598125 -11.0825 39.19625 -11.125 39.8125 C-12 42 -12 42 -15.0625 43.75 C-16.031875 44.1625 -17.00125 44.575 -18 45 C-17.57867867 41.34854846 -15.73611397 39.45207263 -13.39453125 36.74609375 C-5.061789 26.31266018 -2.49516035 12.77824542 0 0 Z " fill="#4A8A4A" transform="translate(520,184)"/>
<path d="M0 0 C4.47773833 1.40728919 7.05210999 3.34461638 10 7 C10.36771245 9.8387401 10.48630804 12.01820151 10.3125 14.8125 C10.27866211 15.85180664 10.27866211 15.85180664 10.24414062 16.91210938 C10.18562661 18.60901573 10.0959548 20.30479861 10 22 C6.62109375 21.6796875 6.62109375 21.6796875 3 21 C0.83577992 17.78857666 0 15.87553592 0 12 C1.32 12 2.64 12 4 12 C4 12.66 4 13.32 4 14 C4.66 14 5.32 14 6 14 C5.67 12.35 5.34 10.7 5 9 C4.01 8.67 3.02 8.34 2 8 C2.33 6.68 2.66 5.36 3 4 C2.34 4 1.68 4 1 4 C0.67 2.68 0.34 1.36 0 0 Z " fill="#4A8849" transform="translate(399,119)"/>
<path d="M0 0 C1.99954746 -0.04254356 4.00041636 -0.04080783 6 0 C7 1 7 1 7.11352539 4.05102539 C7.11336634 5.39991271 7.10767612 6.74880614 7.09765625 8.09765625 C7.0962413 8.80651474 7.09482635 9.51537323 7.09336853 10.24571228 C7.08775443 12.51801712 7.07519963 14.79022475 7.0625 17.0625 C7.05748681 18.59960796 7.05292359 20.13671745 7.04882812 21.67382812 C7.03778042 25.44925642 7.02050641 29.22461171 7 33 C6.34 32.67 5.68 32.34 5 32 C5 22.1 5 12.2 5 2 C4.34 1.67 3.68 1.34 3 1 C3.33 2.32 3.66 3.64 4 5 C-4.05988746 9.97312205 -11.56620364 12.251286 -21 13 C-21 12.67 -21 12.34 -21 12 C-20.14277344 11.78085938 -19.28554687 11.56171875 -18.40234375 11.3359375 C-11.14924676 9.32436832 -6.22979211 7.46750994 -1 2 C-0.67 1.34 -0.34 0.68 0 0 Z " fill="#2D792C" transform="translate(273,161)"/>
<path d="M0 0 C0.66 0.33 1.32 0.66 2 1 C0.4656691 5.19573204 -2.24587507 6.8626231 -5.875 9.3125 C-6.73097778 9.89245728 -6.73097778 9.89245728 -7.60424805 10.48413086 C-13.24547082 14.25969129 -19.07877913 17.68198254 -25 21 C-25 20.01 -25 19.02 -25 18 C-22.75 16.5 -22.75 16.5 -20 15 C-18.65368175 14.01755155 -17.31558703 13.02323436 -16 12 C-17.0725 12.474375 -18.145 12.94875 -19.25 13.4375 C-21.80839865 14.53766332 -24.25835017 15.45167003 -27 16 C-23.83375375 12.42722337 -20.60390851 10.60670229 -16.3125 8.5625 C-11.30381692 6.15352462 -6.43631189 3.6158267 -1.671875 0.75 C-1.12015625 0.5025 -0.5684375 0.255 0 0 Z " fill="#AECC8D" transform="translate(237,19)"/>
<path d="M0 0 C1.22355698 0.00222061 2.44711395 0.00444122 3.70774841 0.00672913 C4.71746201 0.00651009 4.71746201 0.00651009 5.74757385 0.00628662 C7.98229649 0.00698573 10.21693674 0.01477799 12.4516449 0.02259827 C13.99721226 0.02446245 15.54278022 0.02588635 17.08834839 0.02688599 C21.16380941 0.03071112 25.23923502 0.04054135 29.31468201 0.05158997 C33.47035747 0.0618042 37.62603864 0.06638363 41.78172302 0.07142639 C49.94124452 0.08216363 58.10073718 0.09923998 66.26023865 0.12025452 C66.26023865 0.45025452 66.26023865 0.78025452 66.26023865 1.12025452 C44.81023865 1.45025452 23.36023865 1.78025452 1.26023865 2.12025452 C1.26023865 3.44025452 1.26023865 4.76025452 1.26023865 6.12025452 C3.73523865 7.11025452 3.73523865 7.11025452 6.26023865 8.12025452 C6.26023865 9.11025452 6.26023865 10.10025452 6.26023865 11.12025452 C1.31023865 9.14025452 1.31023865 9.14025452 -3.73976135 7.12025452 C-3.78230492 5.12070706 -3.78056918 3.11983815 -3.73976135 1.12025452 C-2.73976135 0.12025452 -2.73976135 0.12025452 0 0 Z " fill="#427D40" transform="translate(86.73976135253906,111.87974548339844)"/>
<path d="M0 0 C0 11.55 0 23.1 0 35 C-0.99 35.495 -0.99 35.495 -2 36 C-2 29.4 -2 22.8 -2 16 C-2.66 16.66 -3.32 17.32 -4 18 C-4 13.38 -4 8.76 -4 4 C-4.928125 4.680625 -5.85625 5.36125 -6.8125 6.0625 C-8.3903125 7.0215625 -8.3903125 7.0215625 -10 8 C-10.99 7.67 -11.98 7.34 -13 7 C-11.97866524 5.81549341 -10.93185158 4.652929 -9.875 3.5 C-9.29492188 2.8503125 -8.71484375 2.200625 -8.1171875 1.53125 C-6 0 -6 0 0 0 Z " fill="#437F43" transform="translate(174,161)"/>
<path d="M0 0 C0.33 0 0.66 0 1 0 C1.02465622 4.25414623 1.04283899 8.50825498 1.05493164 12.76245117 C1.05997101 14.21070073 1.06680253 15.65894517 1.07543945 17.10717773 C1.08752247 19.18474588 1.09323211 21.26224697 1.09765625 23.33984375 C1.10551147 25.21724243 1.10551147 25.21724243 1.11352539 27.13256836 C1 30 1 30 0 31 C-2.4375 31.25 -2.4375 31.25 -5 31 C-5.66 30.01 -6.32 29.02 -7 28 C-5.35 27.67 -3.7 27.34 -2 27 C-2.66 25.35 -3.32 23.7 -4 22 C-3.34 21.34 -2.68 20.68 -2 20 C-1.6925109 17.09335779 -1.4889338 14.28814155 -1.375 11.375 C-1.189375 7.229375 -1.189375 7.229375 -1 3 C-7.93 3 -14.86 3 -22 3 C-22 2.67 -22 2.34 -22 2 C-21.36908447 1.97494385 -20.73816895 1.9498877 -20.08813477 1.92407227 C-17.24603175 1.80845863 -14.40428917 1.68557684 -11.5625 1.5625 C-10.56927734 1.52318359 -9.57605469 1.48386719 -8.55273438 1.44335938 C-7.60849609 1.40146484 -6.66425781 1.35957031 -5.69140625 1.31640625 C-4.81685791 1.27974854 -3.94230957 1.24309082 -3.04125977 1.20532227 C-1.0072598 1.21818934 -1.0072598 1.21818934 0 0 Z " fill="#4A8247" transform="translate(290,110)"/>
<path d="M0 0 C1.03125 0.61875 2.0625 1.2375 3.125 1.875 C6.31472483 3.70698045 9.45888021 4.9635747 13 6 C13.04254356 7.99954746 13.04080783 10.00041636 13 12 C11.08780415 13.91219585 7.66354496 13.24435298 5.12109375 13.31640625 C4.09110008 13.3475779 4.09110008 13.3475779 3.04029846 13.37937927 C0.83947065 13.44494143 -1.36147975 13.50379015 -3.5625 13.5625 C-5.05144514 13.60567892 -6.54037773 13.649293 -8.02929688 13.69335938 C-11.68606553 13.8006293 -15.34297318 13.90187772 -19 14 C-19 13.01 -19 12.02 -19 11 C-10.09 10.67 -1.18 10.34 8 10 C8.66 8.68 9.32 7.36 10 6 C8.081875 5.814375 8.081875 5.814375 6.125 5.625 C2.25 5.25 2.25 5.25 0 3 C0 2.01 0 1.02 0 0 Z " fill="#517A53" transform="translate(234,226)"/>
<path d="M0 0 C0.66 0.33 1.32 0.66 2 1 C2.03738281 2.02996094 2.07476562 3.05992187 2.11328125 4.12109375 C2.73482806 18.45063467 4.8133845 32.25246114 9 46 C8.34 46 7.68 46 7 46 C7 44.68 7 43.36 7 42 C6.34 42 5.68 42 5 42 C1.99440348 36.99067246 1.70658112 33.67276511 2 28 C1.67 28 1.34 28 1 28 C0.2665547 22.95756356 -0.08409673 18.17236145 0.0625 13.078125 C0.07655853 10.98578587 0.07655853 10.98578587 -0.52734375 8.96875 C-1.26639755 5.89037713 -0.53308744 3.08006079 0 0 Z " fill="#4C814E" transform="translate(449,166)"/>
<path d="M0 0 C0.66 0.33 1.32 0.66 2 1 C1.34 3.97 0.68 6.94 0 10 C0.66 10.33 1.32 10.66 2 11 C1.16855469 11.39832031 1.16855469 11.39832031 0.3203125 11.8046875 C-0.40414062 12.15789062 -1.12859375 12.51109375 -1.875 12.875 C-2.95394531 13.39707031 -2.95394531 13.39707031 -4.0546875 13.9296875 C-6.15135019 14.96557543 -6.15135019 14.96557543 -8 17 C-10.125 16.625 -10.125 16.625 -12 16 C-11.67 16.99 -11.34 17.98 -11 19 C-6.02246557 19.79516042 -1.13919093 20.19353048 3.90234375 20.31640625 C4.6249086 20.33718735 5.34747345 20.35796844 6.0919342 20.37937927 C8.3737037 20.44415426 10.65557667 20.5034203 12.9375 20.5625 C14.49545291 20.60575397 16.0533958 20.64937031 17.61132812 20.69335938 C21.40744922 20.79976039 25.20367314 20.90122499 29 21 C29 21.33 29 21.66 29 22 C23.9833177 22.19309609 18.96640148 22.37168108 13.94873047 22.53710938 C12.24351314 22.59534104 10.53842398 22.65746654 8.83349609 22.72363281 C6.37621412 22.81830918 3.9188046 22.89875713 1.4609375 22.9765625 C0.32620499 23.02485703 0.32620499 23.02485703 -0.83145142 23.0741272 C-5.31712035 23.19974825 -8.83890827 22.68630688 -13 21 C-13 18.69 -13 16.38 -13 14 C-12.38511719 13.84144531 -11.77023438 13.68289062 -11.13671875 13.51953125 C-5.97956727 12.08586652 -5.97956727 12.08586652 -2 8.6875 C-0.92082211 5.78720942 -0.35702571 3.0704211 0 0 Z " fill="#5B7E5D" transform="translate(35,217)"/>
<path d="M0 0 C0.99 0 1.98 0 3 0 C3 17.16 3 34.32 3 52 C2.67 52 2.34 52 2 52 C0.71985951 41.31121962 0.66385168 30.56189493 0.4375 19.8125 C0.39422208 17.88736208 0.35060513 15.96223174 0.30664062 14.03710938 C0.20051632 9.35815131 0.09898677 4.67911429 0 0 Z " fill="#4B7D4A" transform="translate(124,120)"/>
<path d="M0 0 C25.08 0 50.16 0 76 0 C76 0.33 76 0.66 76 1 C51.91 1.33 27.82 1.66 3 2 C2.67 3.98 2.34 5.96 2 8 C1.34 7.67 0.68 7.34 0 7 C0 4.69 0 2.38 0 0 Z " fill="#468144" transform="translate(189,112)"/>
<path d="M0 0 C0.33 0 0.66 0 1 0 C1 5.94 1 11.88 1 18 C0.67 18 0.34 18 0 18 C-0.33 28.56 -0.66 39.12 -1 50 C-1.33 50 -1.66 50 -2 50 C-2 34.16 -2 18.32 -2 2 C-1.34 2 -0.68 2 0 2 C0 1.34 0 0.68 0 0 Z " fill="#498347" transform="translate(232,126)"/>
<path d="M0 0 C-0.6290625 0.25652344 -1.258125 0.51304688 -1.90625 0.77734375 C-14.87178772 6.57668818 -19.74236566 16.52954854 -25 29 C-25.66 28.34 -26.32 27.68 -27 27 C-26.73445313 26.49210937 -26.46890625 25.98421875 -26.1953125 25.4609375 C-24.59246019 22.33713044 -23.12666878 19.45795634 -22.1875 16.0625 C-19.84851202 10.03037311 -15.42262143 4.55494751 -10 1 C-3.66666667 -1.22222222 -3.66666667 -1.22222222 0 0 Z " fill="#4B7A49" transform="translate(480,119)"/>
<path d="M0 0 C0.99 0.33 1.98 0.66 3 1 C2.13375 2.299375 2.13375 2.299375 1.25 3.625 C0.88648438 4.17285156 0.52296875 4.72070312 0.1484375 5.28515625 C-0.92573252 6.889104 -2.02450787 8.47649664 -3.125 10.0625 C-5.05460244 12.84461239 -5.05460244 12.84461239 -5.9375 15.625 C-7.75274855 19.6826144 -10.84620337 21.4872015 -14.8125 23.25 C-15.534375 23.4975 -16.25625 23.745 -17 24 C-16.04956626 22.66102417 -15.08940853 21.32894573 -14.125 20 C-13.32449219 18.88625 -13.32449219 18.88625 -12.5078125 17.75 C-11.76144531 16.88375 -11.76144531 16.88375 -11 16 C-10.34 16 -9.68 16 -9 16 C-8.731875 15.113125 -8.46375 14.22625 -8.1875 13.3125 C-7.07529872 10.21004381 -5.75170229 7.77352862 -4 5 C-3.649375 4.2575 -3.29875 3.515 -2.9375 2.75 C-2 1 -2 1 0 0 Z " fill="#50844E" transform="translate(409,201)"/>
<path d="M0 0 C0.66 0.33 1.32 0.66 2 1 C2.61916858 23.59489033 2.61916858 23.59489033 -1 34 C-1.93423645 30.98968256 -2.04449911 30.13349732 -1 27 C-1.66 26.67 -2.32 26.34 -3 26 C-2.67 25.34 -2.34 24.68 -2 24 C-1.76725791 21.12089412 -1.58027243 18.25853505 -1.4375 15.375 C-1.39431641 14.57320312 -1.35113281 13.77140625 -1.30664062 12.9453125 C-1.20048543 10.9637489 -1.09973145 8.98189729 -1 7 C-0.34 7 0.32 7 1 7 C0.34 5.02 -0.32 3.04 -1 1 C-0.67 0.67 -0.34 0.34 0 0 Z " fill="#458C45" transform="translate(550,164)"/>
<path d="M0 0 C7.35140156 -0.26412221 14.56645655 0.13123204 21.875 0.875 C23.08700073 0.99270752 23.08700073 0.99270752 24.32348633 1.11279297 C28.79437077 1.59550581 32.76803902 2.3806966 37 4 C37 4.66 37 5.32 37 6 C33.625 6.125 33.625 6.125 30 6 C29.34 5.34 28.68 4.68 28 4 C25.87139338 3.63047951 25.87139338 3.63047951 23.4296875 3.5859375 C22.53378906 3.54726563 21.63789063 3.50859375 20.71484375 3.46875 C19.77769531 3.4378125 18.84054688 3.406875 17.875 3.375 C16.45767578 3.31699219 16.45767578 3.31699219 15.01171875 3.2578125 C12.67467625 3.16338654 10.33764499 3.07781606 8 3 C8 2.34 8 1.68 8 1 C5.69 1.33 3.38 1.66 1 2 C0.67 1.34 0.34 0.68 0 0 Z " fill="#9FBD7F" transform="translate(211,60)"/>
<path d="M0 0 C-1.24556092 0.81928886 -2.49666635 1.63015186 -3.75 2.4375 C-4.44609375 2.88996094 -5.1421875 3.34242187 -5.859375 3.80859375 C-8 5 -8 5 -10.140625 5.53515625 C-12.2314561 5.88845893 -12.2314561 5.88845893 -14 8 C-16.625 8.125 -16.625 8.125 -19 8 C-19 8.66 -19 9.32 -19 10 C-21.75 11.125 -21.75 11.125 -25 12 C-27.203125 11.0546875 -27.203125 11.0546875 -29 10 C-22.73190518 7.05490763 -16.40143717 4.26651705 -10 1.625 C-9.35345459 1.35026855 -8.70690918 1.07553711 -8.04077148 0.79248047 C-3.34704165 -1.11568055 -3.34704165 -1.11568055 0 0 Z " fill="#A6C782" transform="translate(177,50)"/>
<path d="M0 0 C0.33 0 0.66 0 1 0 C1.02505615 1.0830542 1.0501123 2.1661084 1.07592773 3.28198242 C1.17123976 7.36182295 1.27114002 11.44154123 1.37231445 15.52124023 C1.41520174 17.27544259 1.45690129 19.02967445 1.49731445 20.78393555 C1.73094912 30.88791393 2.06703127 40.93195092 3 51 C1.515 51.495 1.515 51.495 0 52 C0 34.84 0 17.68 0 0 Z " fill="#488F46" transform="translate(124,123)"/>
<path d="M0 0 C17.375 0 17.375 0 24 1 C24.33 1.99 24.66 2.98 25 4 C7.14350797 4.3690205 7.14350797 4.3690205 -1 2 C-0.67 1.34 -0.34 0.68 0 0 Z " fill="#4B8F4B" transform="translate(468,238)"/>
<path d="M0 0 C0.66 0.33 1.32 0.66 2 1 C2.02886338 5.47915328 2.04675187 9.95828291 2.0625 14.4375 C2.07087891 15.71689453 2.07925781 16.99628906 2.08789062 18.31445312 C2.09111328 19.52939453 2.09433594 20.74433594 2.09765625 21.99609375 C2.10289307 23.12200928 2.10812988 24.2479248 2.11352539 25.40795898 C2 28 2 28 1 29 C-0.99958364 29.04080783 -3.00045254 29.04254356 -5 29 C-5 28.34 -5 27.68 -5 27 C-3.68 26.67 -2.36 26.34 -1 26 C-0.67 17.42 -0.34 8.84 0 0 Z " fill="#528750" transform="translate(183,112)"/>
<path d="M0 0 C0.33 0.66 0.66 1.32 1 2 C2.99541868 2.68025637 4.99617991 3.34490497 7 4 C9.875 5.5 9.875 5.5 12 7 C12 7.66 12 8.32 12 9 C12.99 9 13.98 9 15 9 C14.67 10.32 14.34 11.64 14 13 C12.39414507 12.37935063 10.79037383 11.7533082 9.1875 11.125 C8.29417969 10.77695313 7.40085937 10.42890625 6.48046875 10.0703125 C4 9 4 9 1 7 C1.33 6.67 1.66 6.34 2 6 C1.01 5.01 0.02 4.02 -1 3 C-0.67 2.01 -0.34 1.02 0 0 Z " fill="#A6C085" transform="translate(276,68)"/>
<path d="M0 0 C2 1 2 1 3.3125 3.8125 C5.11769009 7.2223035 6.87642977 8.80505876 10 11 C9.67 11.99 9.34 12.98 9 14 C8.35933594 13.52949219 7.71867187 13.05898437 7.05859375 12.57421875 C2.17593784 9.0595797 -2.35086982 6.08772202 -8 4 C-7.67 3.34 -7.34 2.68 -7 2 C-5.00714063 1.62633887 -3.00636471 1.29259485 -1 1 C-0.67 0.67 -0.34 0.34 0 0 Z " fill="#458A43" transform="translate(387,116)"/>
<path d="M0 0 C0 0.66 0 1.32 0 2 C-4.50950277 4.78245915 -8.7398913 6.70818064 -13.796875 8.2734375 C-15.8650387 8.95549149 -17.77755533 9.76988443 -19.75 10.6875 C-22.83509755 11.93340478 -24.72858144 12.29740169 -28 12 C-25.66380634 9.66380634 -23.67289855 8.88464531 -20.625 7.6171875 C-19.55765625 7.17246094 -18.4903125 6.72773437 -17.390625 6.26953125 C-16.27171875 5.80933594 -15.1528125 5.34914063 -14 4.875 C-12.88109375 4.40707031 -11.7621875 3.93914063 -10.609375 3.45703125 C-2.26412172 0 -2.26412172 0 0 0 Z " fill="#AAC886" transform="translate(205,37)"/>
<path d="M0 0 C0 1.32 0 2.64 0 4 C-0.99 4.495 -0.99 4.495 -2 5 C-2.33 3.68 -2.66 2.36 -3 1 C-3.9178125 1.09539063 -4.835625 1.19078125 -5.78125 1.2890625 C-12.70704301 1.91471187 -18.38611419 2.24872118 -25 0 C-25 -0.33 -25 -0.66 -25 -1 C-16.67973805 -2.2558886 -7.92139358 -3.4254675 0 0 Z " fill="#ABC487" transform="translate(343,36)"/>
<path d="M0 0 C0.8353125 0.19916016 0.8353125 0.19916016 1.6875 0.40234375 C6.7858701 1.58220305 11.79787441 2.43249539 17 3 C16.67 4.32 16.34 5.64 16 7 C13.69 7.33 11.38 7.66 9 8 C8.835 7.360625 8.67 6.72125 8.5 6.0625 C7.218214 3.83880759 7.218214 3.83880759 5.0859375 3.51171875 C3.06424845 3.2724022 1.03158061 3.13106972 -1 3 C-0.67 2.01 -0.34 1.02 0 0 Z " fill="#9CBA77" transform="translate(377,48)"/>
<path d="M0 0 C1.93359375 -0.03867187 1.93359375 -0.03867187 3.90625 -0.078125 C7.64828637 0.26353919 9.50184543 1.05904089 12.5 3.25 C11.51 4.735 11.51 4.735 10.5 6.25 C9.51 6.25 8.52 6.25 7.5 6.25 C7.5 5.26 7.5 4.27 7.5 3.25 C0.45145753 0.99446641 -6.50188069 2.67295903 -13.5 4.25 C-13.17 3.26 -12.84 2.27 -12.5 1.25 C-8.30723889 0.25018774 -4.30495998 0.05165952 0 0 Z " fill="#A7BF80" transform="translate(308.5,27.75)"/>
<path d="M0 0 C0.33 0 0.66 0 1 0 C1 4.95 1 9.9 1 15 C1.66 15 2.32 15 3 15 C4.32 21.27 5.64 27.54 7 34 C6.34 33.67 5.68 33.34 5 33 C5 31.68 5 30.36 5 29 C4.34 29 3.68 29 3 29 C-0.16801648 19.21309195 -0.32476018 10.15176262 0 0 Z " fill="#4A844B" transform="translate(419,168)"/>
<path d="M0 0 C5.50102837 0.41257713 9.76201664 2.54722675 14 6 C14 6.66 14 7.32 14 8 C8.22621075 7.5188509 4.04140164 5.81532819 -1 3 C-0.67 2.01 -0.34 1.02 0 0 Z " fill="#A8CE7C" transform="translate(452,89)"/>
<path d="M0 0 C4.29 0.66 8.58 1.32 13 2 C13.33 2.99 13.66 3.98 14 5 C9.05 5.33 4.1 5.66 -1 6 C-0.67 4.02 -0.34 2.04 0 0 Z " fill="#B2CF86" transform="translate(365,41)"/>
<path d="M0 0 C0.66 0.33 1.32 0.66 2 1 C0.49069838 5.22604452 -2.08915253 6.96936766 -6 9 C-9.375 8.75 -9.375 8.75 -12 8 C-8.71268307 4.16479692 -4.74852829 1.67534656 0 0 Z " fill="#B8D49C" transform="translate(237,19)"/>
<path d="M0 0 C0.33 0 0.66 0 1 0 C1 6.27 1 12.54 1 19 C-0.32 19.33 -1.64 19.66 -3 20 C-2.88581333 17.41577541 -2.75907638 14.83320487 -2.625 12.25 C-2.5940625 11.52039063 -2.563125 10.79078125 -2.53125 10.0390625 C-2.3251506 6.26057344 -2.08487157 3.22053332 0 0 Z " fill="#4D8C4D" transform="translate(412,205)"/>
<path d="M0 0 C2.64 0.33 5.28 0.66 8 1 C8 1.66 8 2.32 8 3 C8.96099609 2.67515625 8.96099609 2.67515625 9.94140625 2.34375 C15.1738082 0.65940004 19.5065595 -0.35826786 25 0 C21.63591315 1.88355963 18.30568445 2.80038692 14.5625 3.6875 C12.89380859 4.09548828 12.89380859 4.09548828 11.19140625 4.51171875 C6.44189129 5.23838873 3.98478109 4.65652073 0 2 C0 1.34 0 0.68 0 0 Z " fill="#A7C585" transform="translate(258,26)"/>
<path d="M0 0 C5.26170694 1.41167747 8.72171358 3.74850232 13 7 C12.34 7.66 11.68 8.32 11 9 C9.39214223 8.40572612 7.78882291 7.79916412 6.1875 7.1875 C5.29417969 6.85105469 4.40085937 6.51460938 3.48046875 6.16796875 C1.08075928 5.03802681 -0.28423353 3.98937707 -2 2 C-1.34 1.34 -0.68 0.68 0 0 Z " fill="#A0BE81" transform="translate(416,88)"/>
<path d="M0 0 C0.66 0.33 1.32 0.66 2 1 C3.36597748 9.99169522 3.08983388 18.99629548 2 28 C1.67 28 1.34 28 1 28 C0.2665547 22.95756356 -0.08409673 18.17236145 0.0625 13.078125 C0.07655853 10.98578587 0.07655853 10.98578587 -0.52734375 8.96875 C-1.26639755 5.89037713 -0.53308744 3.08006079 0 0 Z " fill="#4C904C" transform="translate(449,166)"/>
<path d="M0 0 C1.65 1.32 3.3 2.64 5 4 C4.67 4.66 4.34 5.32 4 6 C1.36 5.34 -1.28 4.68 -4 4 C-4 5.65 -4 7.3 -4 9 C-7 9 -7 9 -9.1875 7 C-9.785625 6.34 -10.38375 5.68 -11 5 C-10.195625 4.87625 -9.39125 4.7525 -8.5625 4.625 C-7.716875 4.41875 -6.87125 4.2125 -6 4 C-5.67 3.34 -5.34 2.68 -5 2 C-3.35636866 1.27840576 -1.68949614 0.60648579 0 0 Z " fill="#A0C17E" transform="translate(371,74)"/>
<path d="M0 0 C0 0.66 0 1.32 0 2 C-0.85464844 2.04898437 -1.70929688 2.09796875 -2.58984375 2.1484375 C-3.69457031 2.22320313 -4.79929688 2.29796875 -5.9375 2.375 C-7.03964844 2.44460937 -8.14179688 2.51421875 -9.27734375 2.5859375 C-10.17582031 2.72257812 -11.07429687 2.85921875 -12 3 C-12.33 3.66 -12.66 4.32 -13 5 C-14.1663886 6.39295329 -15.35684153 7.76589408 -16.5625 9.125 C-17.20316406 9.84945312 -17.84382812 10.57390625 -18.50390625 11.3203125 C-19.24447266 12.15175781 -19.24447266 12.15175781 -20 13 C-20.99 12.67 -21.98 12.34 -23 12 C-18.94569265 5.61139447 -15.48985214 2.07756451 -7.875 0.25 C-5.22875255 0.01989153 -2.6543383 -0.07806877 0 0 Z " fill="#A6C48E" transform="translate(256,25)"/>
<path d="M0 0 C3.63 1.32 7.26 2.64 11 4 C11 4.99 11 5.98 11 7 C11.66 7 12.32 7 13 7 C13 7.66 13 8.32 13 9 C13.66 9.33 14.32 9.66 15 10 C10.25 11.125 10.25 11.125 8 10 C8 8.68 8 7.36 8 6 C5.36 5.01 2.72 4.02 0 3 C0 2.01 0 1.02 0 0 Z " fill="#A6C282" transform="translate(407,59)"/>
<path d="M0 0 C0.66 0 1.32 0 2 0 C2.42743816 5.55669614 0.88325643 9.87715219 -1 15 C-1.33 15.99 -1.66 16.98 -2 18 C-2.66 18 -3.32 18 -4 18 C-2.07289294 5.33029613 -2.07289294 5.33029613 0 0 Z " fill="#417440" transform="translate(423,149)"/>
<path d="M0 0 C0.98484375 0.11085937 1.9696875 0.22171875 2.984375 0.3359375 C3.73203125 0.43132813 4.4796875 0.52671875 5.25 0.625 C5.25 1.615 5.25 2.605 5.25 3.625 C-5.30808656 3.9940205 -5.30808656 3.9940205 -9.75 1.625 C-6.30824478 -0.52199969 -3.9779708 -0.47356795 0 0 Z " fill="#ABC88C" transform="translate(413.75,53.375)"/>
<path d="M0 0 C2.28586914 2.21660037 4.33198192 4.55947162 6.375 7 C9.01584086 10.03557708 11.33938262 12.21915911 15 14 C15.763125 14.391875 16.52625 14.78375 17.3125 15.1875 C17.869375 15.455625 18.42625 15.72375 19 16 C12.49454845 15.88383122 9.38947535 14.34049896 4.69921875 9.84375 C1.74525503 6.63852959 0 4.41092725 0 0 Z " fill="#4A844B" transform="translate(460,216)"/>
<path d="M0 0 C0.08226668 3.04386724 -0.02391783 5.07175348 -1 8 C-0.01 8.33 0.98 8.66 2 9 C2.33 8.01 2.66 7.02 3 6 C3.33 6 3.66 6 4 6 C4 7.65 4 9.3 4 11 C0.7 10.67 -2.6 10.34 -6 10 C-6 5 -6 5 -3.5625 2.1875 C-1 0 -1 0 0 0 Z " fill="#9CC56F" transform="translate(306,55)"/>
<path d="M0 0 C1.32 0.66 2.64 1.32 4 2 C4 2.66 4 3.32 4 4 C4.66 4 5.32 4 6 4 C6.66 5.32 7.32 6.64 8 8 C7.01 8.33 6.02 8.66 5 9 C2.73828125 7.78515625 2.73828125 7.78515625 0.3125 6.0625 C-0.49574219 5.49660156 -1.30398438 4.93070312 -2.13671875 4.34765625 C-3.05904297 3.68056641 -3.05904297 3.68056641 -4 3 C-2.68 2.01 -1.36 1.02 0 0 Z " fill="#BBD093" transform="translate(396,86)"/>
<path d="M0 0 C-2.26308359 3.39462539 -3.15375534 3.95102418 -7 5 C-10.3125 4.625 -10.3125 4.625 -13 4 C-13 4.66 -13 5.32 -13 6 C-14.65 6 -16.3 6 -18 6 C-15.3685629 2.71777738 -12.39092229 1.93381807 -8.4375 0.75 C-7.28121094 0.39421875 -6.12492188 0.0384375 -4.93359375 -0.328125 C-2 -1 -2 -1 0 0 Z " fill="#ABC885" transform="translate(147,61)"/>
<path d="M0 0 C3.96 0 7.92 0 12 0 C11.01 0.495 11.01 0.495 10 1 C8.86649466 3.01669827 8.86649466 3.01669827 8 5 C7.13375 4.835 6.2675 4.67 5.375 4.5 C2.18774801 4.02781452 -0.78485027 3.92344882 -4 4 C-2.68 3.67 -1.36 3.34 0 3 C0 2.01 0 1.02 0 0 Z " fill="#B0CB86" transform="translate(393,52)"/>
<path d="M0 0 C0.33 0.66 0.66 1.32 1 2 C-2.82623391 7.82991261 -6.34271572 12.8605237 -12 17 C-11.25 14.0625 -11.25 14.0625 -10 11 C-7.875 10.125 -7.875 10.125 -6 10 C-5.67 8.68 -5.34 7.36 -5 6 C-4.34 6 -3.68 6 -3 6 C-2.87625 5.195625 -2.7525 4.39125 -2.625 3.5625 C-2.41875 2.716875 -2.2125 1.87125 -2 1 C-1.34 0.67 -0.68 0.34 0 0 Z " fill="#49834A" transform="translate(542,209)"/>
<path d="M0 0 C1.65 0 3.3 0 5 0 C5 2.64 5 5.28 5 8 C3.02 8 1.04 8 -1 8 C-0.67 5.36 -0.34 2.72 0 0 Z " fill="#448541" transform="translate(74,231)"/>
<path d="M0 0 C0.33 0.66 0.66 1.32 1 2 C1.66 2 2.32 2 3 2 C3.4626052 5.9784047 3.36873404 7.52281478 0.875 10.75 C-2.06762022 13.05292017 -4.40406836 14.08011051 -8 15 C-7.21625 14.236875 -6.4325 13.47375 -5.625 12.6875 C-1.52554061 8.49043443 -0.65112021 5.75156189 0 0 Z " fill="#467B44" transform="translate(96,217)"/>
<path d="M0 0 C2.22889496 -0.05428973 4.45817471 -0.09292338 6.6875 -0.125 C8.54955078 -0.15980469 8.54955078 -0.15980469 10.44921875 -0.1953125 C13.81237857 -0.01032021 15.9985587 0.54232105 19 2 C19 2.66 19 3.32 19 4 C18.01 4 17.02 4 16 4 C16 3.34 16 2.68 16 2 C15.01 2.33 14.02 2.66 13 3 C10.767731 2.91382274 8.53761514 2.76077759 6.3125 2.5625 C5.13300781 2.46066406 3.95351563 2.35882813 2.73828125 2.25390625 C1.38283203 2.12822266 1.38283203 2.12822266 0 2 C0 1.34 0 0.68 0 0 Z " fill="#A5C184" transform="translate(347,41)"/>
<path d="M0 0 C0 0.66 0 1.32 0 2 C-0.66 2 -1.32 2 -2 2 C-2 2.66 -2 3.32 -2 4 C-3.43739513 4.02712066 -4.87493863 4.04645067 -6.3125 4.0625 C-7.51326172 4.07990234 -7.51326172 4.07990234 -8.73828125 4.09765625 C-11 4 -11 4 -14 3 C-14 2.34 -14 1.68 -14 1 C-12.41693353 0.83081732 -10.83353281 0.66476064 -9.25 0.5 C-8.36828125 0.4071875 -7.4865625 0.314375 -6.578125 0.21875 C-4 0 -4 0 0 0 Z " fill="#9EC36C" transform="translate(222,46)"/>
<path d="M0 0 C0.33 1.32 0.66 2.64 1 4 C0.34 4 -0.32 4 -1 4 C-1.33 4.99 -1.66 5.98 -2 7 C-2.99 6.34 -3.98 5.68 -5 5 C-7.51584891 4.75849227 -7.51584891 4.75849227 -10.1875 4.875 C-11.53908203 4.90207031 -11.53908203 4.90207031 -12.91796875 4.9296875 C-13.94857422 4.96449219 -13.94857422 4.96449219 -15 5 C-15 4.67 -15 4.34 -15 4 C-12.87607494 3.3299166 -10.75082476 2.66403203 -8.625 2 C-7.44164062 1.62875 -6.25828125 1.2575 -5.0390625 0.875 C-2 0 -2 0 0 0 Z " fill="#467F43" transform="translate(161,169)"/>
<path d="M0 0 C0.78821819 2.29543427 1.13558044 3.58008982 0.37915039 5.92285156 C0.03875732 6.5722168 -0.30163574 7.22158203 -0.65234375 7.890625 C-1.01650391 8.59960938 -1.38066406 9.30859375 -1.75585938 10.0390625 C-2.14580078 10.76867187 -2.53574219 11.49828125 -2.9375 12.25 C-3.32357422 12.99507812 -3.70964844 13.74015625 -4.10742188 14.5078125 C-5.06090166 16.34414394 -6.02905677 18.17284207 -7 20 C-7.66 19.34 -8.32 18.68 -9 18 C-8.73445313 17.49210937 -8.46890625 16.98421875 -8.1953125 16.4609375 C-6.54566912 13.24593909 -5.06322931 10.19340731 -3.9375 6.75 C-2.9977429 3.99337919 -1.86913998 2.20898361 0 0 Z " fill="#548955" transform="translate(462,128)"/>
<path d="M0 0 C0.99 0 1.98 0 3 0 C3 1.32 3 2.64 3 4 C4.65 4 6.3 4 8 4 C7.67 4.99 7.34 5.98 7 7 C6.01 7.33 5.02 7.66 4 8 C3.67 7.67 3.34 7.34 3 7 C2.01 7.99 1.02 8.98 0 10 C-0.66 9.34 -1.32 8.68 -2 8 C-0.68 6.35 0.64 4.7 2 3 C1.34 3 0.68 3 0 3 C0 2.01 0 1.02 0 0 Z " fill="#9FBB79" transform="translate(288,26)"/>
<path d="M0 0 C0.94696598 2.55680815 1.04509772 3.83600828 0.3125 6.5 C-1.11219358 9.21370205 -2.73212969 10.95891672 -5 13 C-5.33 12.34 -5.66 11.68 -6 11 C-4.45884606 6.83888437 -2.87385045 3.42125054 0 0 Z " fill="#4C894C" transform="translate(430,137)"/>
<path d="M0 0 C2.375 -0.125 2.375 -0.125 5 0 C6.66666667 1.66666667 8.33333333 3.33333333 10 5 C8.02 5.66 6.04 6.32 4 7 C0 1.125 0 1.125 0 0 Z " fill="#3B8E39" transform="translate(388,117)"/>
<path d="M0 0 C6.75 0.75 6.75 0.75 9 3 C9 3.66 9 4.32 9 5 C7.375 5.6875 7.375 5.6875 5 6 C1.75 4.5625 1.75 4.5625 -1 3 C-0.67 2.01 -0.34 1.02 0 0 Z " fill="#B0CB91" transform="translate(408,85)"/>
<path d="M0 0 C0.99 0 1.98 0 3 0 C3.04125 0.61875 3.0825 1.2375 3.125 1.875 C3.41375 2.57625 3.7025 3.2775 4 4 C6.99615946 5.3045656 6.99615946 5.3045656 10 6 C10 7.98 10 9.96 10 12 C2.15820312 5.5546875 2.15820312 5.5546875 0 2 C0 1.34 0 0.68 0 0 Z " fill="#458149" transform="translate(307,213)"/>
<path d="M0 0 C5.61 0.33 11.22 0.66 17 1 C15 3 15 3 11.5234375 3.1953125 C10.14049032 3.18201493 8.75761346 3.15816232 7.375 3.125 C6.66859375 3.11597656 5.9621875 3.10695312 5.234375 3.09765625 C3.48943902 3.07407603 1.74467705 3.03820461 0 3 C0 2.01 0 1.02 0 0 Z " fill="#4E854D" transform="translate(233,180)"/>
<path d="M0 0 C4.49699606 3.65461928 8.62848394 7.25880554 12 12 C11.67 12.99 11.34 13.98 11 15 C10.67 13.68 10.34 12.36 10 11 C9.34 11 8.68 11 8 11 C8 10.34 8 9.68 8 9 C6.68 9 5.36 9 4 9 C0 2.25 0 2.25 0 0 Z " fill="#437B42" transform="translate(528,123)"/>
<path d="M0 0 C6.6 0 13.2 0 20 0 C20 0.33 20 0.66 20 1 C11.585 1.495 11.585 1.495 3 2 C2.67 3.98 2.34 5.96 2 8 C1.34 7.67 0.68 7.34 0 7 C0 4.69 0 2.38 0 0 Z " fill="#4D844B" transform="translate(189,112)"/>
<path d="M0 0 C1.69752187 0.25245197 3.38471545 0.57645775 5.0625 0.9375 C5.98160156 1.13214844 6.90070313 1.32679687 7.84765625 1.52734375 C8.91306641 1.76130859 8.91306641 1.76130859 10 2 C10 2.33 10 2.66 10 3 C8.01432292 2.96744792 6.02864583 2.93489583 4.04296875 2.90234375 C1.79694539 2.91736783 1.79694539 2.91736783 -1 4 C-2.47586615 4.11687338 -3.95706612 4.17501742 -5.4375 4.1875 C-6.19933594 4.20167969 -6.96117187 4.21585937 -7.74609375 4.23046875 C-10.23347315 3.97612666 -11.84808106 3.24017196 -14 2 C-13.07316406 1.93941406 -12.14632813 1.87882812 -11.19140625 1.81640625 C-9.39509766 1.69072266 -9.39509766 1.69072266 -7.5625 1.5625 C-5.77005859 1.44068359 -5.77005859 1.44068359 -3.94140625 1.31640625 C-1.11429756 1.32343886 -1.11429756 1.32343886 0 0 Z " fill="#488547" transform="translate(364,108)"/>
<path d="M0 0 C0.99 0 1.98 0 3 0 C4 3 5 6 6 9 C5.01 9 4.02 9 3 9 C3 9.99 3 10.98 3 12 C2.34 12 1.68 12 1 12 C0.375 10.125 0.375 10.125 0 8 C0.66 7.34 1.32 6.68 2 6 C1.67 5.01 1.34 4.02 1 3 C0.34 2.67 -0.32 2.34 -1 2 C-0.67 1.34 -0.34 0.68 0 0 Z " fill="#A5BE94" transform="translate(401,87)"/>
<path d="M0 0 C0.66 0.66 1.32 1.32 2 2 C1.8185339 4.60491661 1.53723614 7.05681623 1.125 9.625 C1.02058594 10.33140625 0.91617187 11.0378125 0.80859375 11.765625 C0.54900874 13.51192414 0.27578567 15.25618599 0 17 C-2 15 -2 15 -2.01171875 12.28515625 C-1.90472656 11.22167969 -1.79773438 10.15820312 -1.6875 9.0625 C-1.58824219 8.00160156 -1.48898437 6.94070312 -1.38671875 5.84765625 C-1 3 -1 3 0 0 Z " fill="#508B50" transform="translate(452,148)"/>
<path d="M0 0 C2.19219402 2.36689329 2.9871902 3.51727269 3.07421875 6.796875 C2.94660156 7.77140625 2.81898438 8.7459375 2.6875 9.75 C2.56761719 10.73484375 2.44773437 11.7196875 2.32421875 12.734375 C2.21722656 13.48203125 2.11023438 14.2296875 2 15 C0.02130559 12.03195838 -0.34161439 10.90215354 -0.6875 7.5 C-0.77386719 6.7265625 -0.86023438 5.953125 -0.94921875 5.15625 C-1 3 -1 3 0 0 Z " fill="#48824A" transform="translate(298,183)"/>
<path d="M0 0 C0.99 0 1.98 0 3 0 C3 0.66 3 1.32 3 2 C3.66 2 4.32 2 5 2 C5.66 3.65 6.32 5.3 7 7 C7.66 7 8.32 7 9 7 C9.33 8.65 9.66 10.3 10 12 C5.97372501 10.65790834 5.24830847 8.51298199 3 5 C2.4225 4.4225 1.845 3.845 1.25 3.25 C0.8375 2.8375 0.425 2.425 0 2 C0 1.34 0 0.68 0 0 Z " fill="#4B8B4B" transform="translate(503,124)"/>
<path d="M0 0 C1.65 0 3.3 0 5 0 C5 0.99 5 1.98 5 3 C5.66 3 6.32 3 7 3 C6.67 3.99 6.34 4.98 6 6 C3.36 5.67 0.72 5.34 -2 5 C-1.34 3.35 -0.68 1.7 0 0 Z " fill="#A2C464" transform="translate(283,26)"/>
<path d="M0 0 C11.39927405 0.39927405 11.39927405 0.39927405 16 5 C16.99 5.33 17.98 5.66 19 6 C18.67 6.99 18.34 7.98 18 9 C17.53851563 8.67386719 17.07703125 8.34773437 16.6015625 8.01171875 C11.30867699 4.46569466 6.1599374 2.55260717 0 1 C0 0.67 0 0.34 0 0 Z " fill="#457744" transform="translate(258,121)"/>
<path d="M0 0 C1.32 0 2.64 0 4 0 C4 2.64 4 5.28 4 8 C2.35 7.67 0.7 7.34 -1 7 C-0.34 6.67 0.32 6.34 1 6 C0.34 4.35 -0.32 2.7 -1 1 C-0.67 0.67 -0.34 0.34 0 0 Z " fill="#448743" transform="translate(75,112)"/>
<path d="M0 0 C5.94 1.485 5.94 1.485 12 3 C12 3.33 12 3.66 12 4 C4.6094524 4.14715692 -2.64424835 3.70776992 -10 3 C-10 2.67 -10 2.34 -10 2 C-6.7 2 -3.4 2 0 2 C0 1.34 0 0.68 0 0 Z " fill="#A4BD8A" transform="translate(236,67)"/>
<path d="M0 0 C5.47235396 0.65147071 10.03489463 2.03489463 14 6 C11 7 11 7 9.0625 6.328125 C8.381875 5.97234375 7.70125 5.6165625 7 5.25 C6.319375 4.90453125 5.63875 4.5590625 4.9375 4.203125 C2.98559909 2.9910575 1.5502837 1.68593353 0 0 Z " fill="#A5BD80" transform="translate(237,55)"/>
<path d="M0 0 C6.875 0.875 6.875 0.875 8 2 C8.04080783 3.99958364 8.04254356 6.00045254 8 8 C7.34 8 6.68 8 6 8 C6 7.34 6 6.68 6 6 C5.34 5.67 4.68 5.34 4 5 C1.875 3.5625 1.875 3.5625 0 2 C0 1.34 0 0.68 0 0 Z " fill="#487F48" transform="translate(133,230)"/>
<path d="M0 0 C0.99 0.33 1.98 0.66 3 1 C3.99 1 4.98 1 6 1 C5.67 1.99 5.34 2.98 5 4 C5.66 4 6.32 4 7 4 C7.33 5.32 7.66 6.64 8 8 C0.42857143 3.85714286 0.42857143 3.85714286 -2 1 C-1.34 0.67 -0.68 0.34 0 0 Z " fill="#488547" transform="translate(320,225)"/>
<path d="M0 0 C3.465 1.485 3.465 1.485 7 3 C7 3.66 7 4.32 7 5 C7.66 5.33 8.32 5.66 9 6 C8.01 7.485 8.01 7.485 7 9 C6.01 8.67 5.02 8.34 4 8 C3.29788106 6.34795544 2.63028587 4.68076231 2 3 C1.34 2.67 0.68 2.34 0 2 C0 1.34 0 0.68 0 0 Z " fill="#A3C47D" transform="translate(244,45)"/>
<path d="M0 0 C1.46015291 0.28241641 2.91809793 0.57626614 4.375 0.875 C5.18710937 1.03742187 5.99921875 1.19984375 6.8359375 1.3671875 C9 2 9 2 11 4 C6.8725485 4 3.084979 3.54466387 -1 3 C-0.67 2.01 -0.34 1.02 0 0 Z " fill="#A6C880" transform="translate(377,48)"/>
<path d="M0 0 C2.64 0.99 5.28 1.98 8 3 C8 2.34 8 1.68 8 1 C8.99 1.33 9.98 1.66 11 2 C10.34 3.65 9.68 5.3 9 7 C8.01 6.67 7.02 6.34 6 6 C6 5.34 6 4.68 6 4 C3.03 3.505 3.03 3.505 0 3 C0 2.01 0 1.02 0 0 Z " fill="#A4C781" transform="translate(291,45)"/>
<path d="M0 0 C-0.99 0.33 -1.98 0.66 -3 1 C-3.66 1.66 -4.32 2.32 -5 3 C-7.95664519 4.4783226 -10.74229737 4.06032783 -14 4 C-9.89239426 0.52433361 -5.34448487 -2.0555711 0 0 Z " fill="#468445" transform="translate(468,113)"/>
<path d="M0 0 C-8.07744875 5.74031891 -8.07744875 5.74031891 -14 5 C-12.6045933 2.20918661 -10.98580959 1.96096994 -8.125 0.8125 C-7.24070313 0.44769531 -6.35640625 0.08289062 -5.4453125 -0.29296875 C-3 -1 -3 -1 0 0 Z " fill="#B1C88C" transform="translate(177,50)"/>
<path d="M0 0 C3.3 0.33 6.6 0.66 10 1 C9.67 1.99 9.34 2.98 9 4 C5.37 3.67 1.74 3.34 -2 3 C-1.34 2.67 -0.68 2.34 0 2 C0 1.34 0 0.68 0 0 Z " fill="#A0BF7F" transform="translate(222,46)"/>
<path d="M0 0 C0.66 0.33 1.32 0.66 2 1 C2 7.93 2 14.86 2 22 C0 20 0 20 -0.1953125 16.19140625 C-0.18199853 14.64831694 -0.15812351 13.10529121 -0.125 11.5625 C-0.11597656 10.78583984 -0.10695313 10.00917969 -0.09765625 9.20898438 C-0.07269782 7.13921742 -0.0369203 5.06958814 0 3 C0 2.01 0 1.02 0 0 Z " fill="#417641" transform="translate(550,164)"/>
<path d="M0 0 C0.66 0.33 1.32 0.66 2 1 C1.25 2.9375 1.25 2.9375 0 5 C-2.125 5.75 -2.125 5.75 -4 6 C-4 4.68 -4 3.36 -4 2 C-2.125 0.9375 -2.125 0.9375 0 0 Z " fill="#BED0A3" transform="translate(237,19)"/>
<path d="M0 0 C3.3 0.33 6.6 0.66 10 1 C9.67 1.99 9.34 2.98 9 4 C6.03 4 3.06 4 0 4 C0 2.68 0 1.36 0 0 Z " fill="#4C8E48" transform="translate(364,232)"/>
<path d="M0 0 C0.66 0.33 1.32 0.66 2 1 C2.375 4.25 2.375 4.25 2 8 C-1 10.4375 -1 10.4375 -4 12 C-4.66 11.67 -5.32 11.34 -6 11 C-4.7934375 9.948125 -4.7934375 9.948125 -3.5625 8.875 C-0.76566189 5.73708407 -0.28691249 4.11241237 0 0 Z " fill="#4B8B49" transform="translate(203,218)"/>
<path d="M0 0 C1.32 0.33 2.64 0.66 4 1 C4.33 3.97 4.66 6.94 5 10 C1.65094547 6.65094547 1.10529715 4.50621146 0 0 Z " fill="#4D884F" transform="translate(512,137)"/>
<path d="M0 0 C0.66 0.33 1.32 0.66 2 1 C-0.52930196 3.52930196 -3.19593635 5.78011627 -6 8 C-6.66 8 -7.32 8 -8 8 C-7.9375 6.25 -7.9375 6.25 -7 4 C-4.74876994 2.27481113 -2.59865097 1.23093993 0 0 Z " fill="#4B8749" transform="translate(452,117)"/>
<path d="M0 0 C0.33 0.66 0.66 1.32 1 2 C3.02463255 2.65213292 3.02463255 2.65213292 5 3 C4.67 4.65 4.34 6.3 4 8 C3.01 7.67 2.02 7.34 1 7 C1.33 6.67 1.66 6.34 2 6 C1.01 5.01 0.02 4.02 -1 3 C-0.67 2.01 -0.34 1.02 0 0 Z " fill="#AEC987" transform="translate(276,68)"/>
<path d="M0 0 C0.33 0.99 0.66 1.98 1 3 C-0.6875 5.0625 -0.6875 5.0625 -3 7 C-5.75 6.75 -5.75 6.75 -8 6 C-6.72485508 3.44971017 -5.59658703 3.06918289 -3 2 C-2.01 2 -1.02 2 0 2 C0 1.34 0 0.68 0 0 Z " fill="#9AB374" transform="translate(307,40)"/>
<path d="M0 0 C0.66 0.33 1.32 0.66 2 1 C0.55746343 4.36591866 -1.33264727 6.51047079 -4 9 C-4.99 8.67 -5.98 8.34 -7 8 C-6.67 7.01 -6.34 6.02 -6 5 C-5.360625 4.855625 -4.72125 4.71125 -4.0625 4.5625 C-1.79688294 4.19895007 -1.79688294 4.19895007 -0.75 1.9375 C-0.5025 1.298125 -0.255 0.65875 0 0 Z " fill="#94B56D" transform="translate(258,31)"/>
<path d="M0 0 C0.66 0.33 1.32 0.66 2 1 C4.54615009 1.23172827 7.07396225 1.41894529 9.625 1.5625 C10.33140625 1.60568359 11.0378125 1.64886719 11.765625 1.69335938 C13.51018537 1.79944751 15.25506697 1.90022889 17 2 C17 2.33 17 2.66 17 3 C11.06 3.33 5.12 3.66 -1 4 C-1 1 -1 1 0 0 Z " fill="#3B7F37" transform="translate(85,235)"/>
<path d="M0 0 C1.051875 0.639375 2.10375 1.27875 3.1875 1.9375 C6.10828412 3.61754452 8.6171743 4.58996052 12 5 C11.67 5.99 11.34 6.98 11 8 C9.34739558 7.43613497 7.70298363 6.84821283 6.0625 6.25 C5.14597656 5.92515625 4.22945312 5.6003125 3.28515625 5.265625 C1 4 1 4 0.18359375 1.859375 C0.12300781 1.24578125 0.06242188 0.6321875 0 0 Z " fill="#467C45" transform="translate(234,226)"/>
<path d="M0 0 C2 0 4 0 6 0 C6 1.65 6 3.3 6 5 C3 5 3 5 0.8125 3 C0.214375 2.34 -0.38375 1.68 -1 1 C-0.67 0.67 -0.34 0.34 0 0 Z " fill="#A5BB92" transform="translate(361,78)"/>
<path d="M0 0 C5.7097955 0.41778991 8.60957142 2.57546571 13 6 C12.01 6.495 12.01 6.495 11 7 C8.96855359 6.06553465 6.96466413 5.06775224 5 4 C5 3.34 5 2.68 5 2 C3.35 1.67 1.7 1.34 0 1 C0 0.67 0 0.34 0 0 Z " fill="#A8C38B" transform="translate(411,70)"/>
<path d="M0 0 C1.98 0.99 3.96 1.98 6 3 C5.01 4.485 5.01 4.485 4 6 C3.01 6 2.02 6 1 6 C1 5.01 1 4.02 1 3 C0.01 2.67 -0.98 2.34 -2 2 C-1.34 1.34 -0.68 0.68 0 0 Z " fill="#B0C68F" transform="translate(315,28)"/>
<path d="M0 0 C0 0.99 0 1.98 0 3 C-4.29 3 -8.58 3 -13 3 C-13 2.67 -13 2.34 -13 2 C-4.57142857 -0.28571429 -4.57142857 -0.28571429 0 0 Z " fill="#4D944C" transform="translate(370,239)"/>
<path d="M0 0 C0.99 0 1.98 0 3 0 C4.6875 2 4.6875 2 6 4 C1.545 4.495 1.545 4.495 -3 5 C-3 4.01 -3 3.02 -3 2 C-2.01 2 -1.02 2 0 2 C0 1.34 0 0.68 0 0 Z " fill="#347533" transform="translate(373,237)"/>
<path d="M0 0 C3.91402949 1.26941497 5.79072873 2.51167694 8 6 C6.68 6.33 5.36 6.66 4 7 C3.67 6.01 3.34 5.02 3 4 C2.34 4 1.68 4 1 4 C0.67 2.68 0.34 1.36 0 0 Z " fill="#487E47" transform="translate(399,119)"/>
<path d="M0 0 C3.3125 -0.3125 3.3125 -0.3125 7 0 C8.9375 2.5 8.9375 2.5 10 5 C6.1936543 4.32829194 2.64793184 3.27253436 -1 2 C-0.67 1.34 -0.34 0.68 0 0 Z " fill="#A5C482" transform="translate(359,61)"/>
<path d="M0 0 C1.32 0.66 2.64 1.32 4 2 C3.34 3.32 2.68 4.64 2 6 C1.01 6 0.02 6 -1 6 C-1.33 5.01 -1.66 4.02 -2 3 C-1.34 2.01 -0.68 1.02 0 0 Z " fill="#A6C285" transform="translate(349,54)"/>
<path d="M0 0 C1.45792884 -0.05399736 2.91642712 -0.09279177 4.375 -0.125 C5.18710937 -0.14820313 5.99921875 -0.17140625 6.8359375 -0.1953125 C9 0 9 0 11 2 C6.70700357 3.26264601 4.12168689 2.62950412 0 1 C0 0.67 0 0.34 0 0 Z " fill="#477340" transform="translate(22,237)"/>
<path d="M0 0 C-1.97420135 2.52259061 -2.96745642 2.9929808 -6.1875 3.6875 C-7.5796875 3.8421875 -7.5796875 3.8421875 -9 4 C-9 3.34 -9 2.68 -9 2 C-5.5647952 -0.29013653 -4.014669 -0.17842973 0 0 Z " fill="#4B874B" transform="translate(519,233)"/>
<path d="M0 0 C0.66 0.66 1.32 1.32 2 2 C-3.37305699 3.67357513 -3.37305699 3.67357513 -6 4 C-8 2.625 -8 2.625 -9 1 C-5.75778445 -0.08073852 -3.39597063 -0.21676408 0 0 Z " fill="#A4C679" transform="translate(372,57)"/>
<path d="M0 0 C4.455 0.99 4.455 0.99 9 2 C9 2.33 9 2.66 9 3 C6.36 3.66 3.72 4.32 1 5 C0.67 3.35 0.34 1.7 0 0 Z " fill="#A2BF7B" transform="translate(275,43)"/>
<path d="M0 0 C0.33 0.99 0.66 1.98 1 3 C-2.3 3 -5.6 3 -9 3 C-4.5 -0.375 -4.5 -0.375 0 0 Z " fill="#ABC587" transform="translate(378,43)"/>
<path d="M0 0 C0.99 0.33 1.98 0.66 3 1 C2.67 2.32 2.34 3.64 2 5 C2.66 5.33 3.32 5.66 4 6 C3.34 6 2.68 6 2 6 C1.67 6.66 1.34 7.32 1 8 C-1 5 -1 5 -0.625 2.3125 C-0.41875 1.549375 -0.2125 0.78625 0 0 Z " fill="#A9C38A" transform="translate(250,39)"/>
<path d="M0 0 C1.5 1.3125 1.5 1.3125 3 3 C3 3.99 3 4.98 3 6 C1.68 5.67 0.36 5.34 -1 5 C-1.33 3.68 -1.66 2.36 -2 1 C-1.34 0.67 -0.68 0.34 0 0 Z " fill="#4F894E" transform="translate(427,203)"/>
<path d="M0 0 C0.33 0 0.66 0 1 0 C0.88541307 1.43836751 0.75790884 2.87570966 0.625 4.3125 C0.55539062 5.11300781 0.48578125 5.91351563 0.4140625 6.73828125 C0 9 0 9 -2 12 C-1.67 9.69 -1.34 7.38 -1 5 C-1.66 4.67 -2.32 4.34 -3 4 C-2.67 3.34 -2.34 2.68 -2 2 C-1.34 2 -0.68 2 0 2 C0 1.34 0 0.68 0 0 Z " fill="#447C47" transform="translate(550,186)"/>
<path d="M0 0 C0.33 0 0.66 0 1 0 C1.25 5.625 1.25 5.625 -1 9 C-1.66 9 -2.32 9 -3 9 C-1.125 2.25 -1.125 2.25 0 0 Z " fill="#498649" transform="translate(334,138)"/>
<path d="M0 0 C0.86625 0.37125 0.86625 0.37125 1.75 0.75 C0.6053125 1.3996875 0.6053125 1.3996875 -0.5625 2.0625 C-2.83093768 3.48686785 -4.4699723 4.78260097 -6.25 6.75 C-6.25 3.75 -6.25 3.75 -4.5 1.5 C-2.25 -0.25 -2.25 -0.25 0 0 Z " fill="#3F7B3D" transform="translate(321.25,123.25)"/>
<path d="M0 0 C2.97 0.99 5.94 1.98 9 3 C8.67 4.32 8.34 5.64 8 7 C6.66382648 6.02471263 5.3311249 5.04466681 4 4.0625 C3.2575 3.51722656 2.515 2.97195312 1.75 2.41015625 C1.1725 1.94480469 0.595 1.47945313 0 1 C0 0.67 0 0.34 0 0 Z " fill="#528A51" transform="translate(388,123)"/>
<path d="M0 0 C0.33 0 0.66 0 1 0 C1 1.65 1 3.3 1 5 C-2.3 4.67 -5.6 4.34 -9 4 C-6 2 -6 2 -3.3125 2.375 C-2.549375 2.58125 -1.78625 2.7875 -1 3 C-0.67 2.01 -0.34 1.02 0 0 Z " fill="#A2B981" transform="translate(309,61)"/>
<path d="M0 0 C2.31 0.66 4.62 1.32 7 2 C6.67 2.66 6.34 3.32 6 4 C3.69 3.67 1.38 3.34 -1 3 C-0.67 2.01 -0.34 1.02 0 0 Z " fill="#B6CF97" transform="translate(413,53)"/>
<path d="M0 0 C1.32 0.33 2.64 0.66 4 1 C2.35 2.98 0.7 4.96 -1 7 C-1.99 6.67 -2.98 6.34 -4 6 C-2.68 4.02 -1.36 2.04 0 0 Z " fill="#A7C17F" transform="translate(237,31)"/>
<path d="M0 0 C0.33 0.99 0.66 1.98 1 3 C-1.35438733 4.42944945 -2.48032433 5.08661261 -5.25 4.625 C-5.8275 4.41875 -6.405 4.2125 -7 4 C-2.25 1.125 -2.25 1.125 0 0 Z " fill="#4F8950" transform="translate(400,230)"/>
<path d="M0 0 C-2.64 1.65 -5.28 3.3 -8 5 C-8.33 4.01 -8.66 3.02 -9 2 C-3.375 -1.125 -3.375 -1.125 0 0 Z " fill="#487C48" transform="translate(529,228)"/>
<path d="M0 0 C1.98 0.66 3.96 1.32 6 2 C5.67 2.99 5.34 3.98 5 5 C2.69 4.67 0.38 4.34 -2 4 C-1.34 3.67 -0.68 3.34 0 3 C0 2.01 0 1.02 0 0 Z " fill="#388534" transform="translate(162,185)"/>
<path d="M0 0 C2.99324263 1.0975223 3.84610901 1.67682892 5.25 4.625 C5.4975 5.40875 5.745 6.1925 6 7 C5.01 7.33 4.02 7.66 3 8 C2.01 5.36 1.02 2.72 0 0 Z " fill="#417043" transform="translate(93,123)"/>
<path d="M0 0 C4.875 1.75 4.875 1.75 6 4 C4.02 4.99 4.02 4.99 2 6 C0 2.25 0 2.25 0 0 Z " fill="#B3D27A" transform="translate(357,74)"/>
<path d="M0 0 C1.32 0 2.64 0 4 0 C4 0.66 4 1.32 4 2 C4.66 2.33 5.32 2.66 6 3 C1.25 4.125 1.25 4.125 -1 3 C-0.67 2.01 -0.34 1.02 0 0 Z " fill="#A0B779" transform="translate(416,66)"/>
<path d="M0 0 C1.32 0.66 2.64 1.32 4 2 C4 2.66 4 3.32 4 4 C1.36 3.67 -1.28 3.34 -4 3 C-2.68 2.01 -1.36 1.02 0 0 Z " fill="#99C06F" transform="translate(202,40)"/>
<path d="M0 0 C2.475 0.99 2.475 0.99 5 2 C5 3.65 5 5.3 5 7 C3.29115995 5.37660195 1.62553283 3.70680947 0 2 C0 1.34 0 0.68 0 0 Z " fill="#4A894B" transform="translate(435,218)"/>
<path d="M0 0 C0.66 0.33 1.32 0.66 2 1 C2 2.65 2 4.3 2 6 C1.01 6.33 0.02 6.66 -1 7 C-1.04254356 5.00045254 -1.04080783 2.99958364 -1 1 C-0.67 0.67 -0.34 0.34 0 0 Z " fill="#448849" transform="translate(84,112)"/>
<path d="M0 0 C2.31 0.33 4.62 0.66 7 1 C5.375 2.5625 5.375 2.5625 3 4 C-0.25 3.6875 -0.25 3.6875 -3 3 C-2.01 2.67 -1.02 2.34 0 2 C0 1.34 0 0.68 0 0 Z " fill="#A8C57F" transform="translate(124,74)"/>
<path d="M0 0 C2.5 1.375 2.5 1.375 5 3 C5 3.66 5 4.32 5 5 C5.99 5.33 6.98 5.66 8 6 C2.46153846 5.38461538 2.46153846 5.38461538 0.125 3.4375 C-0.24625 2.963125 -0.6175 2.48875 -1 2 C-0.67 1.34 -0.34 0.68 0 0 Z " fill="#A5C583" transform="translate(311,58)"/>
<path d="M0 0 C-0.33 0.99 -0.66 1.98 -1 3 C-2.65 3.33 -4.3 3.66 -6 4 C-6 3.01 -6 2.02 -6 1 C-4 0 -4 0 0 0 Z " fill="#A2C679" transform="translate(372,48)"/>
<path d="M0 0 C1.50433594 0.01353516 1.50433594 0.01353516 3.0390625 0.02734375 C3.80992187 0.03894531 4.58078125 0.05054687 5.375 0.0625 C5.375 0.3925 5.375 0.7225 5.375 1.0625 C4.43527344 1.15337891 4.43527344 1.15337891 3.4765625 1.24609375 C2.65929687 1.32988281 1.84203125 1.41367187 1 1.5 C0.18789062 1.58121094 -0.62421875 1.66242187 -1.4609375 1.74609375 C-3.66772805 1.95340114 -3.66772805 1.95340114 -5.625 3.0625 C-6.285 2.4025 -6.945 1.7425 -7.625 1.0625 C-4.98041621 -0.25979189 -2.94738699 -0.03427194 0 0 Z " fill="#A4C778" transform="translate(251.625,26.9375)"/>
<path d="M0 0 C0.33 0.66 0.66 1.32 1 2 C0.01 2.33 -0.98 2.66 -2 3 C-2 4.32 -2 5.64 -2 7 C-2.66 7 -3.32 7 -4 7 C-4.33 5.02 -4.66 3.04 -5 1 C-3.35 0.67 -1.7 0.34 0 0 Z " fill="#51844E" transform="translate(194,230)"/>
<path d="M0 0 C0.66 0 1.32 0 2 0 C2.625 2.875 2.625 2.875 3 6 C2.34 6.66 1.68 7.32 1 8 C0.67 5.36 0.34 2.72 0 0 Z " fill="#508B4E" transform="translate(517,148)"/>
<path d="M0 0 C-2.97 2.475 -2.97 2.475 -6 5 C-6.66 3.35 -7.32 1.7 -8 0 C-4.71303767 -0.79953138 -3.28976808 -1.09658936 0 0 Z " fill="#457F43" transform="translate(73,121)"/>
<path d="M0 0 C1.98 0 3.96 0 6 0 C1.25 3.875 1.25 3.875 -1 5 C-0.67 3.35 -0.34 1.7 0 0 Z " fill="#438946" transform="translate(326,118)"/>
<path d="M0 0 C0 0.66 0 1.32 0 2 C-3.4352048 4.29013653 -4.985331 4.17842973 -9 4 C-6.43425105 1.43425105 -3.68548192 0 0 0 Z " fill="#3D7740" transform="translate(337,114)"/>
<path d="M0 0 C2.16874252 0.50603992 3.99967627 0.99983813 6 2 C6 2.66 6 3.32 6 4 C3.03 3.505 3.03 3.505 0 3 C0 2.01 0 1.02 0 0 Z " fill="#9DC081" transform="translate(460,93)"/>
<path d="M0 0 C2.625 1.4375 2.625 1.4375 5 3 C4.34 3.66 3.68 4.32 3 5 C0.9375 4.8125 0.9375 4.8125 -1 4 C-1.33 3.01 -1.66 2.02 -2 1 C-1.34 0.67 -0.68 0.34 0 0 Z " fill="#A7C08F" transform="translate(424,92)"/>
</svg>
