<svg xmlns="http://www.w3.org/2000/svg" width="78.577" height="76.105" viewBox="0 0 78.577 76.105">
  <g id="Group_12114" data-name="Group 12114" transform="translate(-927.216 -4694.699)">
    <g id="Group_2682" data-name="Group 2682" transform="translate(36 10.479)">
      <path id="Polygon_13" data-name="Polygon 13" d="M19.312,0,38.625,21.068H0Z" transform="translate(902.693 4738.453)" fill="#81c341"/>
      <line id="Line_738" data-name="Line 738" y2="24.749" transform="translate(903.132 4732.747)" fill="none" stroke="#404040" stroke-linecap="round" stroke-width="3"/>
      <line id="Line_744" data-name="Line 744" x2="0.001" y2="80.34" transform="translate(959.904 4694.551) rotate(56)" fill="none" stroke="#404040" stroke-linecap="round" stroke-width="3"/>
      <line id="Line_742" data-name="Line 742" y1="18.435" x2="18.435" transform="translate(903.132 4739.77)" fill="none" stroke="#404040" stroke-linecap="round" stroke-width="3"/>
      <line id="Line_743" data-name="Line 743" x1="18.435" y1="18.435" transform="translate(922.444 4739.77)" fill="none" stroke="#404040" stroke-linecap="round" stroke-width="3"/>
      <path id="Path_8617" data-name="Path 8617" d="M0,5.04V26.695" transform="translate(915.421 4719.749)" fill="none" stroke="#404040" stroke-linecap="round" stroke-width="3"/>
      <line id="Line_740" data-name="Line 740" y2="28.194" transform="translate(928.589 4716.946)" fill="none" stroke="#404040" stroke-linecap="round" stroke-width="3"/>
      <line id="Line_741" data-name="Line 741" y2="49.576" transform="translate(940.879 4708.167)" fill="none" stroke="#404040" stroke-linecap="round" stroke-width="3"/>
      <path id="Polygon_14" data-name="Polygon 14" d="M6.3,2.98a2,2,0,0,1,3.459,0l4.558,7.852a2,2,0,0,1-1.73,3H3.474a2,2,0,0,1-1.73-3Z" transform="translate(960.811 4684.22) rotate(56)" fill="#81c341"/>
    </g>
  </g>
</svg>
