<svg xmlns="http://www.w3.org/2000/svg" width="84.415" height="84.415" viewBox="0 0 84.415 84.415">
  <g id="Group_12115" data-name="Group 12115" transform="translate(-264.5 -4880.5)">
    <g id="Group_2667" data-name="Group 2667" transform="translate(267 4877)">
      <path id="Path_8029" data-name="Path 8029" d="M1113.436,1127.631h0a6.855,6.855,0,0,0,0-11h0a6.855,6.855,0,0,1-2.2-8.213h0a6.855,6.855,0,0,0-5.5-9.523h0a6.855,6.855,0,0,1-6.012-6.012h0a6.855,6.855,0,0,0-9.523-5.5h0a6.855,6.855,0,0,1-8.213-2.2h0a6.855,6.855,0,0,0-11,0h0a6.855,6.855,0,0,1-8.213,2.2h0a6.855,6.855,0,0,0-9.523,5.5h0a6.855,6.855,0,0,1-6.012,6.012h0a6.855,6.855,0,0,0-5.5,9.523h0a6.855,6.855,0,0,1-2.2,8.213h0a6.855,6.855,0,0,0,0,11h0a6.856,6.856,0,0,1,2.2,8.213h0a6.855,6.855,0,0,0,5.5,9.523h0a6.855,6.855,0,0,1,6.012,6.012h0a6.855,6.855,0,0,0,9.523,5.5h0a6.856,6.856,0,0,1,8.213,2.2h0a6.855,6.855,0,0,0,11,0h0a6.855,6.855,0,0,1,8.213-2.2h0a6.855,6.855,0,0,0,9.523-5.5h0a6.856,6.856,0,0,1,6.012-6.012h0a6.855,6.855,0,0,0,5.5-9.523h0A6.855,6.855,0,0,1,1113.436,1127.631Z" transform="translate(-1036.782 -1076.425)" fill="none" stroke="#404040" stroke-linecap="round" stroke-linejoin="round" stroke-width="5"/>
      <path id="Path_8439" data-name="Path 8439" d="M359.348,242.708a.966.966,0,1,1,.341,1.9,18.079,18.079,0,0,0-8.155,3.933c-2.187,1.846-5.077,7.4-5.359,7.534a5.3,5.3,0,0,1-.774-1.845c.488-2.453,2.5-5.159,4.882-7.167a20.062,20.062,0,0,1,9.065-4.358Z" transform="translate(-303.175 -195.72)" fill="#fff"/>
    </g>
    <path id="Path_27903" data-name="Path 27903" d="M-15.47-2.72h-5.92L-22.49,0h-4.04l6.18-14h3.9l6.2,14h-4.12Zm-1.16-2.92-1.8-4.48-1.8,4.48ZM.05-7.3h3.5v5.8A9.126,9.126,0,0,1,.79-.18,10.983,10.983,0,0,1-2.33.28,8.344,8.344,0,0,1-6.29-.65,6.938,6.938,0,0,1-9.05-3.24a7.143,7.143,0,0,1-1-3.76,7.143,7.143,0,0,1,1-3.76,6.905,6.905,0,0,1,2.78-2.59,8.55,8.55,0,0,1,4.02-.93,8.955,8.955,0,0,1,3.52.66,6.785,6.785,0,0,1,2.6,1.9L1.35-9.44A4.442,4.442,0,0,0-2.05-11a3.941,3.941,0,0,0-2.9,1.09A3.913,3.913,0,0,0-6.05-7a4.227,4.227,0,0,0,.5,2.07,3.585,3.585,0,0,0,1.4,1.42A4.1,4.1,0,0,0-2.09-3,5.059,5.059,0,0,0,.05-3.46ZM12.19-3.72H10.03V0H6.07V-14h6.4a7.985,7.985,0,0,1,3.3.63,4.894,4.894,0,0,1,2.16,1.8,4.935,4.935,0,0,1,.76,2.75,4.876,4.876,0,0,1-.71,2.65A4.8,4.8,0,0,1,15.95-4.4L18.97,0H14.73Zm1.88-6.62a2.731,2.731,0,0,0-1.84-.54h-2.2v4.1h2.2a2.767,2.767,0,0,0,1.84-.53,1.878,1.878,0,0,0,.62-1.51A1.908,1.908,0,0,0,14.07-10.34ZM20.87-14h3.96V0H20.87Z" transform="translate(307 4932.189)" fill="#21b702"/>
    <path id="Path_27901" data-name="Path 27901" d="M-22.89-.33a3.531,3.531,0,0,1-1.39-1.3,3.526,3.526,0,0,1-.5-1.87,3.526,3.526,0,0,1,.5-1.87,3.531,3.531,0,0,1,1.39-1.3A4.187,4.187,0,0,1-20.9-7.14a4.187,4.187,0,0,1,2,.47,3.531,3.531,0,0,1,1.39,1.3,3.526,3.526,0,0,1,.5,1.87,3.526,3.526,0,0,1-.5,1.87A3.531,3.531,0,0,1-18.9-.33a4.187,4.187,0,0,1-2,.47A4.187,4.187,0,0,1-22.89-.33Zm2.955-1.42a1.8,1.8,0,0,0,.68-.7,2.135,2.135,0,0,0,.25-1.045,2.135,2.135,0,0,0-.25-1.045,1.8,1.8,0,0,0-.68-.7,1.875,1.875,0,0,0-.96-.25,1.875,1.875,0,0,0-.96.25,1.8,1.8,0,0,0-.68.7,2.135,2.135,0,0,0-.25,1.045,2.135,2.135,0,0,0,.25,1.045,1.8,1.8,0,0,0,.68.7,1.875,1.875,0,0,0,.96.25A1.875,1.875,0,0,0-19.935-1.75Zm7.03-.11h-1.08V0h-1.98V-7h3.2a3.992,3.992,0,0,1,1.65.315,2.447,2.447,0,0,1,1.08.9,2.468,2.468,0,0,1,.38,1.375,2.438,2.438,0,0,1-.355,1.325,2.4,2.4,0,0,1-1.015.885L-9.515,0h-2.12Zm.94-3.31a1.366,1.366,0,0,0-.92-.27h-1.1v2.05h1.1a1.383,1.383,0,0,0,.92-.265.939.939,0,0,0,.31-.755A.954.954,0,0,0-11.965-5.17Zm8.09,1.52h1.75v2.9a4.563,4.563,0,0,1-1.38.66,5.492,5.492,0,0,1-1.56.23,4.172,4.172,0,0,1-1.98-.465,3.469,3.469,0,0,1-1.38-1.3,3.572,3.572,0,0,1-.5-1.88,3.572,3.572,0,0,1,.5-1.88,3.453,3.453,0,0,1,1.39-1.3,4.275,4.275,0,0,1,2.01-.465,4.478,4.478,0,0,1,1.76.33,3.393,3.393,0,0,1,1.3.95l-1.26,1.14a2.221,2.221,0,0,0-1.7-.78,1.97,1.97,0,0,0-1.45.545A1.956,1.956,0,0,0-6.925-3.5a2.114,2.114,0,0,0,.25,1.035,1.793,1.793,0,0,0,.7.71,2.052,2.052,0,0,0,1.03.255,2.53,2.53,0,0,0,1.07-.23Zm7.7,2.29H.865L.315,0h-2.02l3.09-7h1.95l3.1,7H4.375Zm-.58-1.46-.9-2.24-.9,2.24ZM13.655-7V0h-1.63L8.935-3.73V0H6.995V-7h1.63l3.09,3.73V-7Zm1.4,0h1.98V0h-1.98Zm4.9,6.675a3.477,3.477,0,0,1-1.375-1.3,3.572,3.572,0,0,1-.5-1.88,3.572,3.572,0,0,1,.5-1.88,3.477,3.477,0,0,1,1.375-1.3,4.143,4.143,0,0,1,1.975-.465,4.239,4.239,0,0,1,1.73.34,3.329,3.329,0,0,1,1.28.98l-1.26,1.14a2.073,2.073,0,0,0-1.65-.82,2.036,2.036,0,0,0-1.015.25,1.735,1.735,0,0,0-.69.7A2.17,2.17,0,0,0,20.085-3.5a2.17,2.17,0,0,0,.245,1.045,1.735,1.735,0,0,0,.69.7,2.036,2.036,0,0,0,1.015.25,2.073,2.073,0,0,0,1.65-.82l1.26,1.14a3.329,3.329,0,0,1-1.28.98,4.239,4.239,0,0,1-1.73.34A4.143,4.143,0,0,1,19.96-.325Z" transform="translate(307 4915)" fill="#21b702"/>
    <path id="Path_27902" data-name="Path 27902" d="M-15.675-7h1.98V0h-1.98Zm10.05,0V0h-1.63l-3.09-3.73V0h-1.94V-7h1.63l3.09,3.73V-7Zm6.25.315a2.447,2.447,0,0,1,1.08.9,2.468,2.468,0,0,1,.38,1.375A2.443,2.443,0,0,1,1.7-3.04a2.459,2.459,0,0,1-1.08.895,3.992,3.992,0,0,1-1.65.315h-1.22V0h-1.98V-7h3.2A3.992,3.992,0,0,1,.625-6.685Zm-.85,3.03a.939.939,0,0,0,.31-.755.954.954,0,0,0-.31-.76,1.366,1.366,0,0,0-.92-.27h-1.1v2.05h1.1A1.383,1.383,0,0,0-.225-3.655ZM3.78-.71a3.227,3.227,0,0,1-.865-2.41V-7h1.98v3.82q0,1.68,1.33,1.68t1.32-1.68V-7h1.95v3.88A3.227,3.227,0,0,1,8.63-.71,3.312,3.312,0,0,1,6.2.14,3.312,3.312,0,0,1,3.78-.71Zm8.435-4.72h-2.15V-7h6.27v1.57h-2.14V0h-1.98Z" transform="translate(307 4942)" fill="#21b702"/>
  </g>
</svg>
