<svg xmlns="http://www.w3.org/2000/svg" width="84.415" height="84.415" viewBox="0 0 84.415 84.415">
  <g id="Group_12116" data-name="Group 12116" transform="translate(-474.5 -4880.5)">
    <path id="Path_27904" data-name="Path 27904" d="M-7.588-29.224H9.126v.041a27.261,27.261,0,0,1-1.682,2.769H2.994A7.05,7.05,0,0,1,4.245-23.44H9q.082.021.082.082-1.6,2.707-1.641,2.728H4.368A8.9,8.9,0,0,1,3.2-17.268,7.831,7.831,0,0,1,.451-14.684a9.732,9.732,0,0,1-4.635,1.313v.041A7.647,7.647,0,0,0-3.1-11.71L5.147-.41V.123a.073.073,0,0,1-.082.082H1.436q-9.8-12.94-9.8-13v-2.625l.041-.1a12.516,12.516,0,0,0,2.03.144q5.476,0,6.829-4.04a3.688,3.688,0,0,0,.205-1.21H-9.187q-.082,0-.082-.1,1.641-2.707,1.682-2.707h7.9v-.041A4.885,4.885,0,0,0-2.317-25.9a7.35,7.35,0,0,0-2.5-.513H-9.229v-.1Q-7.629-29.224-7.588-29.224Z" transform="translate(517 4941)" fill="#78bd00"/>
    <path id="Path_8029" data-name="Path 8029" d="M1113.436,1127.631h0a6.855,6.855,0,0,0,0-11h0a6.855,6.855,0,0,1-2.2-8.213h0a6.855,6.855,0,0,0-5.5-9.523h0a6.855,6.855,0,0,1-6.012-6.012h0a6.855,6.855,0,0,0-9.523-5.5h0a6.855,6.855,0,0,1-8.213-2.2h0a6.855,6.855,0,0,0-11,0h0a6.855,6.855,0,0,1-8.213,2.2h0a6.855,6.855,0,0,0-9.523,5.5h0a6.855,6.855,0,0,1-6.012,6.012h0a6.855,6.855,0,0,0-5.5,9.523h0a6.855,6.855,0,0,1-2.2,8.213h0a6.855,6.855,0,0,0,0,11h0a6.856,6.856,0,0,1,2.2,8.213h0a6.855,6.855,0,0,0,5.5,9.523h0a6.855,6.855,0,0,1,6.012,6.012h0a6.855,6.855,0,0,0,9.523,5.5h0a6.856,6.856,0,0,1,8.213,2.2h0a6.855,6.855,0,0,0,11,0h0a6.855,6.855,0,0,1,8.213-2.2h0a6.855,6.855,0,0,0,9.523-5.5h0a6.856,6.856,0,0,1,6.012-6.012h0a6.855,6.855,0,0,0,5.5-9.523h0A6.855,6.855,0,0,1,1113.436,1127.631Z" transform="translate(-559.782 3800.575)" fill="none" stroke="#404040" stroke-linecap="round" stroke-linejoin="round" stroke-width="5"/>
  </g>
</svg>
