<svg xmlns="http://www.w3.org/2000/svg" width="74.859" height="75.5" viewBox="0 0 74.859 75.5">
  <g id="Group_12113" data-name="Group 12113" transform="translate(-751.998 -4699)">
    <g id="Group_2679" data-name="Group 2679" transform="translate(-15 -4.943)">
      <path id="Union_22" data-name="Union 22" d="M18.14,30.2a.889.889,0,0,0-.153-.018q-1.837.006-3.673,0c-1.493,0-2.986,0-4.479.007-.386,0-.562-.059-.525-.489.047-.56.039-1.124.055-1.687h0a1.828,1.828,0,0,1,1.025-.134c.124.008.248.016.371.015,1.18-.014,2.359-.013,3.539-.012,1.154,0,2.309,0,3.464-.01.63-.007.963.122.847.843a9.348,9.348,0,0,0-.037,1.306.268.268,0,0,1-.271.195A.99.99,0,0,1,18.14,30.2Zm.191-1.722q-.012-.035-.026-.07l-.061.067.035,0A.282.282,0,0,1,18.33,28.476ZM5.994,30.207c-1.322-.069-1.325-.019-1.326-1.425-.024-.434-.159-1.01.869-.929,1.423.112,1.375.03,1.45,1.369.041.747-.166.99-.822.99C6.111,30.212,6.054,30.211,5.994,30.207Zm18.943-.119a.544.544,0,0,1-.156-.065h0a3.268,3.268,0,0,1-2.628-2.912c-.014-.147-.018-.3-.022-.443v-.013l0-.083c-.032-1.024-.032-1.024-1.084-1.032a3.5,3.5,0,0,1-3.552-3.064,3.4,3.4,0,0,1,2.7-3.732c.189-.045.326-.1.379-.2a.441.441,0,0,0-.037-.363,1.447,1.447,0,0,1-.078-.4v-.017l0-.029c0-.051-.01-.1-.018-.155h0a.662.662,0,0,1-.126-.54h0c-.688-2.444-1.19-4.439-1.579-6.277h0c-.218-.17-.087-.447-.2-.649h0q-.227-.9-.454-1.8c-.392-1.551-.879-3.481-1.323-5.33-.113-.473-.258-.688-.824-.716-.178-.008-.351-.012-.529-.012-.338,0-.691.013-.974.023s-.64.023-.982.023c-.22,0-.414,0-.6-.015-.025,0-.053,0-.09,0a1.085,1.085,0,0,0-1.142,1.074,1.269,1.269,0,0,0,.293.937,1.131,1.131,0,0,0,.807.371c.232.013.476.019.747.019.312,0,.653-.008,1.105-.028l.07,0c.311,0,.409.107.423.458l0,.042c.036.883.055,1.326-.16,1.55-.178.185-.51.218-1.141.218l-.418,0H13.32a.659.659,0,0,0-.518.153.611.611,0,0,0-.078.506,1.383,1.383,0,0,1,0,.24v.008c0,.042,0,.09,0,.138.018,1.209.018,1.209,1.206,1.35l.035,0a1.087,1.087,0,0,1,1.077,1.164c.009,1.342.01,2.673.01,4.149q0,.745,0,1.485a1.968,1.968,0,0,1-.009.231,6.1,6.1,0,0,1-1.416,1.872,6.12,6.12,0,0,1-1.839,1.46,1.348,1.348,0,0,1-.2.015,1.525,1.525,0,0,1-1.2-.782l-.32-.317-.3-.286L8.534,17.094a1.459,1.459,0,0,1-.428-1.112c0-1.018,0-2.035,0-3.019v-.035c0-.682,0-1.36,0-2.039,0-1.116.4-1.571,1.379-1.571.061,0,.124,0,.189.005.045,0,.089,0,.129,0a.688.688,0,0,0,.54-.167.816.816,0,0,0,.1-.653,3.294,3.294,0,0,1,.008-.643V7.853c.01-.13.018-.238.021-.345a3.189,3.189,0,0,0-.569-2.22,3.032,3.032,0,0,1-.192-3.4A3.252,3.252,0,0,1,12.693.019C13.9.006,15.187,0,16.734,0c.837,0,1.816,0,2.992,0h.008c1.177,0,2.155,0,2.992,0l4.611,0h4.611l3.587,0c1.561,0,3.08.01,5.055.02H40.7l2.316.012.156.009h0L45.016.04H45.4C46.79.031,48.226.024,49.635.024h.329a1.1,1.1,0,0,1,.824.28,1.321,1.321,0,0,1,.3.982,3.541,3.541,0,0,1-.318,1.291q-.188.77-.375,1.539l-.007.029-.075.307-.007.029v0c-.373,1.533-.772,3.17-1.163,4.754-.167.674-.344,1.359-.516,2.021l-.005.021-.032.122v0q-.131.5-.261,1.01a3.794,3.794,0,0,1-.343,1.261h0c-.358,1.876-.844,3.653-1.44,5.781A2.243,2.243,0,0,1,44.156,20.9H21.4c-.2,0-.4,0-.574,0h-.087l-.264,0a2.444,2.444,0,0,0-.772.822.235.235,0,0,0-.112-.111c.031.029.067.065.11.109a1.572,1.572,0,0,0,.449,1.317h0a2.216,2.216,0,0,0,1.043.183q13.392-.008,26.783,0c.257,0,.563-.154.782.129.023.044.064.087.067.133.147,2.039.147,2.039-1.907,2.04h-.153c-1.36,0-1.352,0-1.436,1.344a5.439,5.439,0,0,1-.173.815,3.2,3.2,0,0,1-2.3,2.3,3.461,3.461,0,0,1-4.476-3.236c-.01-.254.014-.51.022-.765q-.016-.221-.032-.442h0c-.793,0-1.593,0-2.366,0h-.13c-2.063,0-4.2,0-6.29-.032h-.025a.586.586,0,0,0-.446.133.606.606,0,0,0-.072.474v.027c0,.058.01.116.01.172a4.232,4.232,0,0,1-.576,2.272,3.355,3.355,0,0,1-1.7,1.349,1.158,1.158,0,0,1-.294.055h-.024c-.042,0-.085.009-.127.015h0a1.708,1.708,0,0,1-.761.184A1.8,1.8,0,0,1,24.936,30.088Zm-.46-4.442a.479.479,0,0,0-.072.382,1.714,1.714,0,0,1-.015.381c-.008.075-.017.152-.019.227a1.173,1.173,0,0,0,1.135,1.271l.066,0a1.178,1.178,0,0,0,1.21-1.132c.016-.281.006-.568,0-.845,0-.115-.007-.232-.01-.347l.027-.022-.023-.009-.013-.026-.024.031c-.17,0-.342,0-.509,0-.423,0-.86,0-1.289-.021l-.091,0A.467.467,0,0,0,24.477,25.646Zm16.466.454a1.166,1.166,0,0,0,.36,1.385,1.074,1.074,0,0,0,1.395-.2c.037-.035.073-.071.107-.108q.1-.117.2-.232,0-.475,0-.949a1.245,1.245,0,0,1-.2-.2,1.741,1.741,0,0,0-.759-.041,1.453,1.453,0,0,1-.367-.012,2.311,2.311,0,0,0-.256-.02A.433.433,0,0,0,40.943,26.1Zm-3.8-2.718h0Zm-5.49-4.709.325-.028A1.991,1.991,0,0,0,31.65,18.672Zm5.9-.01.236-.02A1.929,1.929,0,0,0,37.552,18.662ZM22.324,16.317l.075.274c.025.092.05.183.075.274v0l.064.232c.093.34.189.691.286,1.036.076.271.157.463.5.463h.042c.435-.02.887-.03,1.38-.03.441,0,.918.008,1.46.024h.041a.4.4,0,0,0,.318-.1c.071-.084.064-.223.031-.406-.078-.435-.143-.881-.2-1.275-.026-.18-.052-.357-.079-.534-1.332-.012-2.664-.076-3.995.035Zm21.7,2.276h.046c.31,0,.491-.075.559-.468a9.29,9.29,0,0,1,.28-1.086v0c.042-.139.091-.3.135-.46v0h0a15.211,15.211,0,0,0-2-.076c-.284,0-.567,0-.85,0a1.474,1.474,0,0,1-1.029-.228l-.145.309q-.075,1-.15,2h1.453C42.825,18.578,43.421,18.579,44.023,18.593ZM28.8,18.274l.011.023q.07.145.139.29h3.557l.007-.067c0-.022.005-.044.008-.067.013-.108.026-.213.029-.319.005-.172.03-.36.055-.543l0-.015a1.75,1.75,0,0,0-.072-1.152.639.639,0,0,0-.573-.229,3.944,3.944,0,0,0-.426.032h-.007a4.257,4.257,0,0,1-.448.032,1.325,1.325,0,0,1-.275-.025l-2.161.04,0,.214,0,.214v0c0,.144.005.288.008.432a.715.715,0,0,1,.025.512.7.7,0,0,0,.031.522c.041,0,.075.016.083.1Zm9.729.292.3-2.295-3.988.03h0v2.245ZM10.614,11.8c-.219.221-.213.673-.2,1.573,0,.062,0,.121.007.187a2.206,2.206,0,0,1-.008.434,2.763,2.763,0,0,0,1.075,2.9c.432-.409.733-.977,1.371-1.139a8.169,8.169,0,0,1-.063-1.967v-.008a10.391,10.391,0,0,0,0-1.56c-.044-.42-.064-.611-.577-.617h-.074c-.144,0-.311,0-.461,0C11.107,11.595,10.787,11.627,10.614,11.8ZM34.84,16.3a2.579,2.579,0,0,0,.383-.077Q35.026,16.256,34.84,16.3Zm-6.193-.025Zm-3.352-2.314c.042,0,.085,0,.132,0a.626.626,0,0,0,.514-.166A.7.7,0,0,0,26,13.206a11.58,11.58,0,0,1-.325-2.487.14.14,0,0,1-.039-.053c-.292-1.374-.292-1.379-1.792-1.373-1.079,0-2.158.023-3.237.035.1.384.2.772.3,1.137.255.958.519,1.948.734,2.935.1.471.291.554.651.554h.1l.084,0c.491-.012,1-.025,1.5-.025S24.9,13.937,25.295,13.961Zm19.8,0h.049c.437,0,.571-.2.663-.571.235-.936.483-1.866.761-2.9v0q.152-.565.3-1.129a41.958,41.958,0,0,0-4.924-.029l-.479,3.693a1.8,1.8,0,0,0-.054.218,1.74,1.74,0,0,0,.054-.217q.005.462.01.924h.112l.933,0c.306,0,.653,0,.99,0C44.136,13.937,44.638,13.944,45.09,13.959ZM34.841,10.478v.081c0,.939.01,1.91,0,2.863a.572.572,0,0,0,.106.43.49.49,0,0,0,.363.1h.04c.5-.012,1.021-.018,1.582-.018.536,0,1.1.005,1.735.016h.042c.3,0,.437-.064.478-.44.112-1.017.255-2.046.393-3.042l0-.021.046-.336,0-.01q.049-.355.1-.71l.053-.021-.043-.052c-1.634-.05-3.268-.082-4.9.013C34.837,9.716,34.839,10.1,34.841,10.478Zm-2.775,3.477h.062a.5.5,0,0,0,.4-.119.559.559,0,0,0,.071-.451,11.748,11.748,0,0,1,.009-2.263c.014-.207.029-.429.041-.645h0c-.014-.021-.037-.041-.04-.064-.179-1.14-.179-1.146-1.374-1.138-1.17.008-2.341.03-3.512.045h0c.032.344.084.691.135,1.028l.005.034v.01a11.344,11.344,0,0,1,.173,1.827.516.516,0,0,1,.118.492c.1,1.233.1,1.233,1.3,1.234.272,0,.558,0,.787,0s.5,0,.756,0C31.416,13.939,31.756,13.944,32.066,13.955ZM26,13.173v0ZM46.866,9.356h0l0,0ZM20.612,9.328h0Zm14.214-.146V9.158l-.019.012ZM35,9.145l0-.015-.005.015ZM21.839,7.354l.029-.027h-.009Zm20.482-.328.05-.065,1.14,0c.877,0,2.2.007,3.436.024h.024a.468.468,0,0,0,.545-.444c.112-.522.26-1.058.391-1.531l.008-.029c.067-.244.123-.446.173-.634a.884.884,0,0,1,.331-1.25c.031-.247.062-.494.1-.816h-.26l-1.115,0h-.021l-1.368,0c-.963,0-1.715-.007-2.438-.021h-.032c-.363,0-.44.138-.477.446-.1.853-.212,1.719-.317,2.556l-.022.173-.033.259,0,.019q-.078.616-.155,1.232l0,0-.008,0,0,0h0l.005,0h0l0,0-.007.008.011,0Q42.3,7,42.321,7.025ZM26.836,2.37q.07.524.143,1.047l.009.067,0,.021c.135.978.274,1.989.385,2.987.043.388.164.506.517.506h.034c.841-.015,1.591-.022,2.292-.022.636,0,1.224.005,1.8.017h.038a.532.532,0,0,0,.4-.112.619.619,0,0,0,.113-.461c-.008-1.077.007-2.249.05-3.689a.54.54,0,0,0-.109-.4.409.409,0,0,0-.307-.1,1.23,1.23,0,0,0-.147.01,8.035,8.035,0,0,1-1.016.059c-.413,0-.833-.024-1.238-.046h-.021c-.27-.016-.536-.03-.8-.039a4.149,4.149,0,0,1-1.775.008h-.222l-.141.154h0ZM39.51,7h.027c.367,0,.511-.135.549-.518.05-.517.129-1.041.2-1.5v0l.022-.147c.023-.156.046-.312.068-.466h0v0a.079.079,0,0,1,0-.015c.008-.152.015-.276.026-.458.008-.143.016-.258.025-.386.007-.1.015-.2.028-.38.021-.287.049-.658.044-.892l-.206.021-.03,0a4.627,4.627,0,0,1-.5.037h-.021c-.6,0-1.2-.012-1.791-.019l-.17,0h-.123c-.7-.009-1.428-.018-2.141-.022-.038,0-.078,0-.117-.005l-.032,0c-.048,0-.1-.008-.158-.008a.378.378,0,0,0-.279.089.486.486,0,0,0-.1.363c.024,1.24.029,2.5.013,3.85a.479.479,0,0,0,.1.357.526.526,0,0,0,.4.1h.017c.671-.005,1.282-.008,1.866-.008C38.051,6.981,38.8,6.986,39.51,7ZM24.69,7h.025a.442.442,0,0,0,.349-.1c.064-.073.079-.19.052-.393q-.034-.245-.068-.489l0-.029c-.143-1.03-.289-2.1-.371-3.148-.039-.511-.261-.6-.684-.6h-.053c-.277,0-.575.006-.967.006h-1.6a1.763,1.763,0,0,0-.355-.03c-.2,0-.437.019-.667.038l-.057,0c-.307.024-.563.042-.836.042l-.136,0h-.044l-.087,0a.27.27,0,0,0-.222.069c-.043.056-.045.152-.008.294.292,1.1.67,2.548,1,4.02.067.294.206.315.411.315h1.972C22.991,6.982,23.838,6.984,24.69,7Zm-23,23.185a3.328,3.328,0,0,0-.46,0c-1.188.01-1.188.01-1.2-1.153a3.153,3.153,0,0,0,0-.536c-.081-.463.065-.628.562-.615,1.711.046,1.693.029,1.673,1.779,0,.389-.116.539-.409.539A1.221,1.221,0,0,1,1.688,30.182Zm25.081-4.63,0,0,0,.005Z" transform="translate(790.27 4719.968)" fill="#404040" stroke="rgba(0,0,0,0)" stroke-width="1"/>
      <path id="Union_23" data-name="Union 23" d="M3.185,74.5A3.558,3.558,0,0,1,.013,70.77C0,70.487,0,70.2,0,69.92Q0,37.234,0,4.547A5.315,5.315,0,0,1,.344,2.2,2.96,2.96,0,0,1,2.733.156l.34-.022A.179.179,0,0,0,3.185,0H36.879a.242.242,0,0,0,.029.144,3.355,3.355,0,0,1,2.9,3.262c.039,2.575,0,5.151.016,7.727,0,.352-.071.469-.457.481-1.849.056-1.854.071-1.859-1.764-.006-2.06,0-4.12,0-6.181,0-.936-.415-1.345-1.364-1.345q-16.071,0-32.142,0c-1.015,0-1.428.42-1.428,1.444q0,33.531,0,67.064c0,.918.435,1.348,1.369,1.348q16.109,0,32.22,0c.96,0,1.347-.392,1.347-1.349,0-6.258.013-12.516-.021-18.775,0-.665.228-.8.8-.823,1.529-.065,1.531-.082,1.531,1.421q0,8.731,0,17.462c0,2.565-.6,3.468-2.94,4.383Zm16.377-4.774h0a1.377,1.377,0,0,1-.986-.3,3.382,3.382,0,0,1-1.943-3.494,3.487,3.487,0,0,1,2.811-2.969,3.536,3.536,0,0,1,3.518,1.52,1.1,1.1,0,0,1,.17.723l.144.079c.244.188.134.469.186.707l0,0,0,0a3.453,3.453,0,0,1-3.26,3.83A2.182,2.182,0,0,1,19.562,69.726Zm-13.333-9.2a1.233,1.233,0,0,1-1.3-1.327c-.017-2.211,0-4.421.005-6.632q0-3.621-.005-7.242c0-2.416-.005-4.832,0-7.249.005-2.364.027-4.727.033-7.092q.008-3.852,0-7.7c-.006-2.364-.032-4.728-.033-7.092,0-2.466.021-4.932.025-7.4,0-.874-.054-1.75-.019-2.622.027-.65.132-1.315,1-1.393.051-.014.1-.026.153-.036A8.9,8.9,0,0,1,8.4,4.652c.35.016.7.033,1.049.032,5.45-.033,10.9,0,16.351.008,2.571,0,5.142-.018,7.713-.028a1.419,1.419,0,0,1,1.08.267h0a1.013,1.013,0,0,1,.576.993c.015,1.749-.006,3.5.016,5.247.005.4-.141.449-.489.46-1.841.059-1.84.07-1.838-1.747,0-.771-.036-1.545.012-2.314.033-.534-.173-.625-.654-.623-4.424.021-8.847.018-13.27.019-.2,0-.41-.019-.615-.029h0l-.159,0c-3.422.012-6.845.033-10.266.023-.516,0-.7.1-.7.669q.029,12.544.013,25.089,0,12.352-.017,24.7c0,.642.073.854.808.85,6.432-.035,12.864-.014,19.3-.007,1.8,0,3.6.011,5.4.016.284-.215.146-.523.147-.784.014-1.847.027-3.693,0-5.54-.01-.536.072-.753.69-.735,1.641.048,1.644.013,1.639,1.661,0,1.436-.016,2.871-.025,4.307.008.694.038,1.389.019,2.083a1.113,1.113,0,0,1-1.135,1.2c-1.822.032-3.645.018-5.468.026-1.36.006-2.721.022-4.082.027-1.49.005-2.981,0-4.471,0l-7.237.005c-1.281,0-2.563.007-3.844.007Q7.582,60.543,6.229,60.531ZM19.308,5.193q-.061.088-.127.172l.3-.241-.075-.106A.884.884,0,0,1,19.308,5.193Z" transform="translate(767.498 4704.443)" fill="#78bd00" stroke="rgba(0,0,0,0)" stroke-width="1"/>
    </g>
  </g>
</svg>
