<svg xmlns="http://www.w3.org/2000/svg" width="57.045" height="104.143" viewBox="0 0 57.045 104.143">
  <g id="Group_12118" data-name="Group 12118" transform="translate(-1074.018 -4863.724)">
    <path id="Path_4000" data-name="Path 4000" d="M1070.851,2330.316H1125.9v-21.685a.941.941,0,0,0-.95-.95h-11.223l-1.616-14.552h.874a.953.953,0,0,0,.951-.95.941.941,0,0,0-.951-.951H1111.9l-1.921-17.213h.874a.955.955,0,0,0,.951-.953.942.942,0,0,0-.951-.95h-1.083l-3.1-27.864a.019.019,0,0,0-.019-.02.941.941,0,0,0-1.864,0,.019.019,0,0,1-.019.02l-1.835,16.587-1.247,11.277h-1.1a.954.954,0,0,0-.951.95.967.967,0,0,0,.951.953h.894l-1.921,17.213h-1.084a.953.953,0,0,0-.951.951.966.966,0,0,0,.951.95h.874l-1.616,14.552-11.108.95c.171,4.445.032,3.588,0,9.738-9.188,1.188-9.877-1.135-15.768,0C1071.256,2326.626,1071.473,2330.316,1070.851,2330.316Z" transform="translate(4.167 2636.551)" fill="none" stroke="#404040" stroke-linecap="round" stroke-linejoin="round" stroke-miterlimit="10" stroke-width="2"/>
    <path id="Path_4001" data-name="Path 4001" d="M1110.642,2297.162l1.161,10.518h-4.089Z" transform="translate(4.167 2636.551)" fill="none" stroke="#78bd00" stroke-miterlimit="10" stroke-width="1"/>
    <path id="Path_4002" data-name="Path 4002" d="M1108.778,2280.519l-1.807-6.5h1.083Z" transform="translate(4.167 2636.551)" fill="#78bd00" stroke="#78bd00" stroke-miterlimit="10" stroke-width="1"/>
    <path id="Path_4003" data-name="Path 4003" d="M1106.667,2261.5l1.179,10.613h-1.179Z" transform="translate(4.167 2636.551)" fill="#78bd00" stroke="#78bd00" stroke-miterlimit="10" stroke-width="1"/>
    <path id="Path_4004" data-name="Path 4004" d="M1106.667,2280.005l3.12,11.222h-3.12Z" transform="translate(4.167 2636.551)" fill="#78bd00"/>
    <path id="Path_4005" data-name="Path 4005" d="M1106.667,2293.129h3.12l-3.12,11.2Z" transform="translate(4.167 2636.551)" fill="#78bd00"/>
    <path id="Path_4006" data-name="Path 4006" d="M1104.765,2261.537v10.575H1103.6Z" transform="translate(4.167 2636.551)" fill="#78bd00" stroke="#78bd00" stroke-miterlimit="10" stroke-width="1"/>
    <path id="Path_4007" data-name="Path 4007" d="M1103.376,2274.015h1.085l-1.789,6.485Z" transform="translate(4.167 2636.551)" fill="#78bd00" stroke="#78bd00" stroke-miterlimit="10" stroke-width="1"/>
    <path id="Path_4008" data-name="Path 4008" d="M1104.765,2280.024v11.2h-3.1Z" transform="translate(4.167 2636.551)" fill="#78bd00"/>
    <path id="Path_4009" data-name="Path 4009" d="M1104.765,2293.129v11.184l-3.1-11.184Z" transform="translate(4.167 2636.551)" fill="#78bd00"/>
    <path id="Path_4010" data-name="Path 4010" d="M1100.808,2297.181l2.91,10.5h-4.071Z" transform="translate(4.167 2636.551)" fill="none" stroke="#78bd00" stroke-miterlimit="10" stroke-width="1"/>
    <path id="Path_4012" data-name="Path 4012" d="M1085.669,2317.875h27.465v12.44h-41.122v-12.44Z" transform="translate(4.167 2636.551)" fill="none" stroke="#404040" stroke-miterlimit="10" stroke-width="1"/>
    <path id="Path_8615" data-name="Path 8615" d="M1.56,0c.861,0,1.56.448,1.56,1V44c0,.552-.7,1-1.56,1S0,44.552,0,44V1C0,.448.7,0,1.56,0Z" transform="translate(1074.5 4957) rotate(-90)" fill="#404040"/>
    <rect id="Rectangle_675" data-name="Rectangle 675" width="2" height="41" rx="1" transform="translate(1089 4946) rotate(-90)" fill="#404040"/>
    <g id="Rectangle_673" data-name="Rectangle 673" transform="translate(1074.5 4954.5)" fill="#78bd00" stroke="#404040" stroke-width="1">
      <rect width="2" height="12.5" rx="1" stroke="none"/>
      <rect x="0.5" y="0.5" width="1" height="11.5" rx="0.5" fill="none"/>
    </g>
    <g id="Rectangle_674" data-name="Rectangle 674" transform="translate(1117.5 4954.5)" fill="#78bd00" stroke="#404040" stroke-width="1">
      <rect width="2" height="12.5" rx="1" stroke="none"/>
      <rect x="0.5" y="0.5" width="1" height="11.5" rx="0.5" fill="none"/>
    </g>
    <g id="Rectangle_676" data-name="Rectangle 676" transform="translate(1128.5 4944.5)" fill="#78bd00" stroke="#404040" stroke-width="1">
      <rect width="2" height="22.5" rx="1" stroke="none"/>
      <rect x="0.5" y="0.5" width="1" height="21.5" rx="0.5" fill="none"/>
    </g>
    <path id="Path_8612" data-name="Path 8612" d="M-7016.606,17973.729s-12.1.244-12.1,12.1" transform="translate(8128 -13103.992)" fill="none" stroke="#81c341" stroke-linecap="round" stroke-width="2"/>
    <path id="Path_8613" data-name="Path 8613" d="M-7021.387,17973.729s-7.314.146-7.314,7.322" transform="translate(8125.202 -13106.412)" fill="none" stroke="#81c341" stroke-linecap="round" stroke-width="2"/>
    <path id="Path_8614" data-name="Path 8614" d="M-7024.619,17973.729s-4.082.082-4.082,4.09" transform="translate(8122.006 -13108.985)" fill="none" stroke="#81c341" stroke-linecap="round" stroke-width="2"/>
  </g>
</svg>
